<svg xmlns="http://www.w3.org/2000/svg" viewBox="0 0 14.16 15.68"><defs><style>.cls-1{fill:#242126;}</style></defs><title>Asset 2user</title><g id="Layer_2" data-name="Layer 2"><g id="Layer_1-2" data-name="Layer 1"><g id="Group_9142" data-name="Group 9142"><g id="Group_9140" data-name="Group 9140"><g id="Path_9121" data-name="Path 9121"><path class="cls-1" d="M7.08,7.27A3.64,3.64,0,0,1,7.08,0h0a3.64,3.64,0,0,1,0,7.27Zm0-5.77a2.14,2.14,0,0,0,0,4.27h0A2.14,2.14,0,0,0,8.6,2.13,2.11,2.11,0,0,0,7.09,1.5Z"/></g></g><g id="Group_9141" data-name="Group 9141"><g id="Path_9122" data-name="Path 9122"><path class="cls-1" d="M13.41,15.68H.75a.73.73,0,0,1-.54-.24A.76.76,0,0,1,0,14.89,6.82,6.82,0,0,1,7.11,8.41a6.81,6.81,0,0,1,7,6.48.75.75,0,0,1-.74.79ZM1.6,14.18h11A5.32,5.32,0,0,0,7.11,9.91,5.32,5.32,0,0,0,1.6,14.18Z"/></g></g></g></g></g></svg>