<svg xmlns="http://www.w3.org/2000/svg" viewBox="0 0 16.3 17.73"><defs><style>.cls-1{fill:#242126;}</style></defs><title>trashAsset 1</title><g id="Layer_2" data-name="Layer 2"><g id="Layer_1-2" data-name="Layer 1"><g id="Group_11045" data-name="Group 11045"><g id="Group_11040" data-name="Group 11040"><g id="Path_9547" data-name="Path 9547"><path class="cls-1" d="M.65,5.4A.66.66,0,0,1,0,4.89a.65.65,0,0,1,.5-.77l15-3.19a.66.66,0,0,1,.78.5.66.66,0,0,1-.51.77L.79,5.39Z"/></g></g><g id="Group_11041" data-name="Group 11041"><g id="Path_9548" data-name="Path 9548"><path class="cls-1" d="M5.47,4.38a.71.71,0,0,1-.35-.1.64.64,0,0,1-.28-.41L4.61,2.79A1.75,1.75,0,0,1,6,.72L9.13.05h0a1.75,1.75,0,0,1,2.07,1.34l.23,1.08a.66.66,0,0,1-.51.77L5.61,4.37Zm4-3.08h0L6.22,2a.45.45,0,0,0-.34.53L6,3l4.09-.87L10,1.66A.46.46,0,0,0,9.46,1.3Z"/></g></g><g id="Group_11042" data-name="Group 11042"><g id="Path_9549" data-name="Path 9549"><path class="cls-1" d="M7.22,13.9a.65.65,0,0,1-.65-.65V7.77a.65.65,0,1,1,1.3,0v5.48A.65.65,0,0,1,7.22,13.9Z"/></g></g><g id="Group_11043" data-name="Group 11043"><g id="Path_9550" data-name="Path 9550"><path class="cls-1" d="M10.51,13.9a.65.65,0,0,1-.65-.65V7.77a.65.65,0,0,1,1.3,0v5.48A.65.65,0,0,1,10.51,13.9Z"/></g></g><g id="Group_11044" data-name="Group 11044"><g id="Path_9551" data-name="Path 9551"><path class="cls-1" d="M12.78,17.73H4.94a1.74,1.74,0,0,1-1.73-1.6L2.45,7A.64.64,0,0,1,3,6.3a.65.65,0,0,1,.7.6L4.5,16a.44.44,0,0,0,.45.4h7.83a.42.42,0,0,0,.45-.4l.95-10.89H13a.65.65,0,0,1,0-1.3h1.92a.67.67,0,0,1,.48.21.71.71,0,0,1,.17.5l-1,11.59A1.75,1.75,0,0,1,12.78,17.73Z"/></g></g></g></g></g></svg>