<svg xmlns="http://www.w3.org/2000/svg" xmlns:xlink="http://www.w3.org/1999/xlink" width="120" height="120" viewBox="0 0 120 120">
  <defs>
    <clipPath id="clip-path">
      <circle id="Ellipse_3" data-name="Ellipse 3" cx="60" cy="60" r="60" transform="translate(120.268 120.001) rotate(180)" fill="#fff"/>
    </clipPath>
  </defs>
  <g id="Group_22" data-name="Group 22" transform="translate(120.268 120.001) rotate(180)" clip-path="url(#clip-path)">
    <path id="Path_27" data-name="Path 27" d="M78.889,19.375c2.966,5.651,4.45,26.239,4.45,26.239H0S1.484,25.026,4.45,19.375C8.9,10.9,41.669,0,41.669,0S74.439,10.9,78.889,19.375Z" transform="translate(101.528 44.793) rotate(180)" fill="#0abaee"/>
    <path id="Path_28" data-name="Path 28" d="M0,17.761a1.618,1.618,0,1,1,1.618,1.618A1.618,1.618,0,0,1,0,17.761ZM0,9.688a1.618,1.618,0,1,1,1.618,1.618A1.618,1.618,0,0,1,0,9.688Zm0-8.07A1.618,1.618,0,1,1,1.618,3.236,1.618,1.618,0,0,1,0,1.618Z" transform="translate(61.477 26.628) rotate(180)" fill="#fff"/>
    <path id="Path_29" data-name="Path 29" d="M66.835,54.928,1.112,47Q-3.75,21.259,12.642,14.564C17.692-1.951,37.353-.607,42.925.738Q71.372,7.611,66.835,54.928Z" transform="translate(92.115 104.398) rotate(180)" fill="#2c317a"/>
    <path id="Path_30" data-name="Path 30" d="M6.675,43.723V19.5C-3.451,19.352-1.477,1.851,8.7,7.192,10.518,8,15.17,5.776,13.552.33,24.475,8.4,39.694-5.765,40.658,2.953c1.891,17.159-1.768,31.263-11.472,31.264a15.956,15.956,0,0,1-3.092-.183v9.688a18.455,18.455,0,0,1-9.507,2.826,20.673,20.673,0,0,1-9.912-2.826Z" transform="translate(76.239 83.671) rotate(180)" fill="#f4f4f4"/>
    <path id="Path_31" data-name="Path 31" d="M14.16,5.449V8.679Q5.057,8.679,0,0A36.613,36.613,0,0,0,14.16,5.449Z" transform="translate(64.309 55.086) rotate(180)" fill="#c1c1c1"/>
    <path id="Path_32" data-name="Path 32" d="M15.36,7.256C18.127,7.123,25.082,5.7,25.082,2.6V0c.742,0,2.866,1.749,3.959,3.229,4.32,5.853-.471,11.1-4.378,11.1-4.931,0-8.192-4.109-9.29-6.088-1.093,1.977-4.359,6.088-9.29,6.088-3.907,0-8.7-5.247-4.378-11.1C2.8,1.749,4.921,0,5.664,0V2.607c0,3.087,6.776,4.516,9.7,4.652Z" transform="translate(75.231 44.793) rotate(180)" fill="#2c317a"/>
  </g>
</svg>
