<svg xmlns="http://www.w3.org/2000/svg" width="30" height="30" viewBox="0 0 30 30"><defs><style>.a,.b{fill:#f7f7f7;}.b{opacity:0.3;}.c{fill:none;stroke:#2c317a;stroke-linecap:round;stroke-linejoin:round;stroke-width:1.5px;}</style></defs><g transform="translate(-1210 -105.827)"><g transform="translate(-1.397 -5.397)"><g transform="translate(1211 110.827)"><g transform="translate(0.397 0.397)"><circle class="a" cx="15" cy="15" r="15" transform="translate(0 0)"/><path class="b" d="M14.859,0A14.859,14.859,0,1,1,0,14.859,14.859,14.859,0,0,1,14.859,0Z" transform="translate(0.07 0.211)"/></g><g transform="translate(8.354 8.35)"><g transform="translate(0.12 0.055)"><path class="c" d="M0,0H3.446V3.446H0Z"/></g><g transform="translate(0.12 10.569)"><path class="c" d="M0,0H3.446V3.446H0Z"/></g><g transform="translate(10.634 0.055)"><path class="c" d="M0,0H3.446V3.446H0Z"/></g><g transform="translate(0 7.691)"><path class="c" d="M0,0H6.891V1.723"/></g><g transform="translate(8.966 8.901)"><path class="c" d="M0,0V5.168H5.168V0H3.446"/></g><g transform="translate(6.334 12.244)"><path class="c" d="M.5,0V1.723" transform="translate(-0.5 0)"/></g><g transform="translate(6.239 0)"><path class="c" d="M0,0V5.168H1.723"/></g><g transform="translate(10.634 6.269)"><path class="c" d="M0,.5H3.446" transform="translate(0 -0.5)"/></g></g></g></g></g></svg>