<svg xmlns="http://www.w3.org/2000/svg">
<defs>
<font id="DBHelvethaicaX-65Med" horiz-adv-x="0" >
  <font-face 
    font-family="DB Helvethaica X 65 Med"
    font-weight="500"
    font-stretch="normal"
    units-per-em="4096"
    panose-1="2 0 5 6 9 0 0 2 0 4"
    ascent="3276"
    descent="-820"
    x-height="1454"
    cap-height="1999"
    bbox="-2163 -1339 3504 3277"
    underline-thickness="82"
    underline-position="-627"
    unicode-range="U+0020-F882"
  />
<missing-glyph horiz-adv-x="1151" 
d="M1171 1114v-41h17q20 0 20 29q-1 3 -4 6q-6 6 -16 6h-17zM1180 1069h-9v-37h-12v94h29q15 0 24 -6t9 -18q0 -25 -8.5 -29t-20.5 -4l29 -37h-13zM1188 1020q17 0 28.5 5.5t19 13.5t10.5 17t3 17q0 34 -16.5 50t-44.5 16t-47 -16t-19 -50q0 -22 14.5 -37.5t51.5 -15.5z
M1188 1147q34 0 51.5 -20t17.5 -54q0 -22 -17.5 -41.5t-51.5 -19.5q-37 0 -55.5 19.5t-18.5 41.5q0 34 18.5 54t55.5 20zM557 881q27 -3 63.5 -7.5t76.5 -10.5t81.5 -13.5t78.5 -16.5t65.5 -19.5t44.5 -22.5q-29 54 -75 96.5t-101.5 72t-116.5 45t-121 15.5q-48 0 -94.5 -9
t-89 -27.5t-78.5 -46.5t-62 -65q50 4 101 6.5t100 2.5h127zM1044 1102v-397q-139 40 -310.5 69t-360.5 29q-133 0 -262 -12q12 61 48.5 117.5t93.5 99.5t132 68.5t164 25.5q86 0 155 -19.5t121.5 -48.5t88 -62t53.5 -59v189h77zM422 352q0 25 -15 35t-30 10q-25 0 -37 -10
t-12 -35q0 -41 49 -41q15 0 30 10t15 31zM86 389q0 63 25.5 112.5t66.5 83.5t94 52t109 18q57 0 108 -15.5t90 -47.5t62 -80.5t23 -114.5v-323h303v565h77v-635h-532v70h82v332q0 44 -16.5 76.5t-45 53.5t-66.5 31.5t-81 10.5t-83 -12t-70.5 -35.5t-49 -57t-18.5 -76.5v-295
l164 164q-6 1 -16.5 7.5t-20.5 17t-17.5 26t-7.5 35.5q0 53 31 82t84 29q23 0 43 -8.5t35 -23.5t24 -35.5t9 -43.5q0 -18 -5.5 -33.5t-13 -26.5t-16.5 -18t-15 -8q-2 -6 -14.5 -18.5t-31.5 -30.5t-42.5 -41t-46.5 -49q-31 -28 -64 -58.5t-67 -64.5h-90v385z" />
    <glyph glyph-name="plusminus" unicode="&#x2b;&#x2d;" horiz-adv-x="1679" 
d="M1571 258l2 -258h-1467l-1 258h1466zM710 1090v462h258v-462h602l2 -259h-602v-462h-258v462h-606l-2 259h606z" />
    <glyph glyph-name="ellipsis" unicode="&#x2e;&#x2e;&#x2e;" horiz-adv-x="2777" 
d="M658 389l-3 -393h-393l3 393h393zM2506 389l-3 -393h-394l3 393h394zM1580 389l-3 -393h-393l3 393h393z" />
    <glyph glyph-name="lessequal" unicode="&#x3c;&#x3d;" horiz-adv-x="1786" 
d="M1630 246l4 -246h-1482l-4 246h1482zM496 1130l1137 -512l-1 -262l-1484 664l1 225l1484 668l-2 -266z" />
    <glyph glyph-name="greaterequal" unicode="&#x3e;&#x3d;" horiz-adv-x="1786" 
d="M1630 246l4 -246h-1482l-4 246h1482zM149 1647l1 266l1481 -668l-1 -225l-1481 -664l2 262l1132 512z" />
    <glyph glyph-name="fongmanfunnuthai" unicode="&#xe4f;&#x22;" horiz-adv-x="2077" 
d="M1124 2417h275l-30 -459h-213zM678 2417h270l-34 -459h-209zM146 836q0 122 31.5 234.5t89 210t139 178t180.5 137.5t213 88.5t237 31.5q121 0 232.5 -31.5t208.5 -88.5t177 -137.5t137 -178t88 -210t32 -234.5q0 -122 -31 -234.5t-88.5 -210.5t-138 -178.5t-178 -137.5
t-209.5 -88.5t-233 -31.5q-123 0 -236.5 31.5t-212 88.5t-179 137.5t-138 178.5t-89.5 210.5t-32 234.5zM561 844q0 94 37.5 178t102 147.5t150 100.5t182.5 37q94 0 177 -37t145.5 -100.5t99 -147.5t36.5 -178q1 -97 -35.5 -182t-99 -148.5t-146 -100t-177.5 -36.5
q-97 0 -182.5 36.5t-149.5 100t-101.5 148.5t-38.5 182zM778 844q1 -54 20.5 -100.5t53 -80.5t80 -53.5t101.5 -19.5q51 0 95 19.5t77 53.5t51.5 80.5t17.5 100.5q0 51 -18.5 95.5t-51 78t-76 53t-94.5 19.5q-56 0 -102.5 -19.5t-81 -53t-53.5 -78t-19 -95.5zM389 844
q1 -132 51 -249t137 -204.5t204.5 -138.5t252.5 -51q87 0 168 23t151.5 65.5t128.5 101t99 130t63.5 153.5t22.5 170q1 88 -21.5 169.5t-64 152t-100 128t-129 99t-151.5 64t-168 22.5q-135 0 -252.5 -49.5t-204 -136t-136.5 -202t-51 -247.5z" />
    <glyph glyph-name="dochadaphinthuthai" unicode="&#xe0e;&#xe3a;" horiz-adv-x="1839" 
d="M1280 -918q-1 48 17 89.5t49.5 73t73.5 49.5t90 18q46 0 86.5 -18t71 -49.5t48.5 -73t19 -89.5q1 -46 -17 -87t-49.5 -71.5t-73 -48.5t-87.5 -18q-48 0 -89 18t-72 48.5t-48.5 71.5t-18.5 87zM90 0l-2 274h164v635q-1 34 -6.5 69t-20.5 68.5t-42.5 63.5t-70.5 53
q15 68 45.5 135t76.5 128.5t110 114.5t147 92t186 61t228 22q148 0 263.5 -27t202 -75.5t145.5 -114.5t96 -144.5t52.5 -165.5t15.5 -177l3 -1590h-328q-23 37 -56.5 71t-82 60.5t-115 42t-155.5 15.5q-72 0 -136 -16t-122.5 -46t-112.5 -74.5t-106 -101.5l1 324
q37 40 88 74t112.5 59.5t132 40t147.5 14.5q72 0 132 -10t108.5 -25.5t86 -33.5t63.5 -33l-1 1257q0 71 -21.5 140t-72.5 124t-134.5 89.5t-206.5 36.5q-103 1 -180.5 -22.5t-131 -59.5t-84 -77t-38.5 -75q25 -23 46.5 -54.5t37 -69t24 -80t7.5 -87.5l5 -905h-500z" />
    <glyph glyph-name="topatakphintuthai" unicode="&#xe0f;&#xe3a;" horiz-adv-x="1839" 
d="M1280 -918q-1 48 17 89.5t49.5 73t73.5 49.5t90 18q46 0 86.5 -18t71 -49.5t48.5 -73t19 -89.5q1 -46 -17 -87t-49.5 -71.5t-73 -48.5t-87.5 -18q-48 0 -89 18t-72 48.5t-48.5 71.5t-18.5 87zM1683 -578h-336q-6 29 -19.5 63.5t-36 64t-53.5 49.5t-73 20
q-41 0 -71.5 -19.5t-51 -48.5t-30 -63.5t-9.5 -65.5h-283q0 22 -6.5 56t-24 66t-47 55.5t-75.5 23.5q-37 0 -62.5 -18.5t-42 -48t-23.5 -65t-6 -69.5h-270q-1 120 32.5 206.5t88 143t122 83t135.5 26.5q99 0 176 -40.5t127 -114.5q28 35 63 62t72 45t74.5 27t71.5 9
q74 0 126.5 -22t90.5 -56l-3 1249q0 71 -21.5 140t-72.5 124t-134.5 89.5t-206.5 36.5q-103 1 -180.5 -22.5t-131 -59.5t-84 -77t-38.5 -75q25 -23 46.5 -54.5t37 -69t24 -80t7.5 -87.5l5 -905h-500l-2 274h164v635q-1 34 -6.5 69t-20.5 68.5t-42.5 63.5t-70.5 53
q15 68 45.5 135t76.5 128.5t110 114.5t147 92t186 61t228 22q148 0 263.5 -27t202 -75.5t145.5 -114.5t96 -144.5t52.5 -165.5t15.5 -177z" />
    <glyph glyph-name="dochadasarauthai" unicode="&#xe0e;&#xe38;" horiz-adv-x="1839" 
d="M1363 -1311l4 369h-147l-2 258h463l-2 -627h-316zM90 0l-2 274h164v635q-1 34 -6.5 69t-20.5 68.5t-42.5 63.5t-70.5 53q15 68 45.5 135t76.5 128.5t110 114.5t147 92t186 61t228 22q148 0 263.5 -27t202 -75.5t145.5 -114.5t96 -144.5t52.5 -165.5t15.5 -177l3 -1590
h-328q-23 37 -56.5 71t-82 60.5t-115 42t-155.5 15.5q-72 0 -136 -16t-122.5 -46t-112.5 -74.5t-106 -101.5l1 324q37 40 88 74t112.5 59.5t132 40t147.5 14.5q72 0 132 -10t108.5 -25.5t86 -33.5t63.5 -33l-1 1257q0 71 -21.5 140t-72.5 124t-134.5 89.5t-206.5 36.5
q-103 1 -180.5 -22.5t-131 -59.5t-84 -77t-38.5 -75q25 -23 46.5 -54.5t37 -69t24 -80t7.5 -87.5l5 -905h-500z" />
    <glyph glyph-name="topataksarauthai" unicode="&#xe0f;&#xe38;" horiz-adv-x="1839" 
d="M1363 -1311l4 369h-147l-2 258h463l-2 -627h-316zM1683 -578h-336q-6 29 -19.5 63.5t-36 64t-53.5 49.5t-73 20q-41 0 -71.5 -19.5t-51 -48.5t-30 -63.5t-9.5 -65.5h-283q0 22 -6.5 56t-24 66t-47 55.5t-75.5 23.5q-37 0 -62.5 -18.5t-42 -48t-23.5 -65t-6 -69.5h-270
q-1 120 32.5 206.5t88 143t122 83t135.5 26.5q99 0 176 -40.5t127 -114.5q28 35 63 62t72 45t74.5 27t71.5 9q74 0 126.5 -22t90.5 -56l-3 1249q0 71 -21.5 140t-72.5 124t-134.5 89.5t-206.5 36.5q-103 1 -180.5 -22.5t-131 -59.5t-84 -77t-38.5 -75q25 -23 46.5 -54.5
t37 -69t24 -80t7.5 -87.5l5 -905h-500l-2 274h164v635q-1 34 -6.5 69t-20.5 68.5t-42.5 63.5t-70.5 53q15 68 45.5 135t76.5 128.5t110 114.5t147 92t186 61t228 22q148 0 263.5 -27t202 -75.5t145.5 -114.5t96 -144.5t52.5 -165.5t15.5 -177z" />
    <glyph glyph-name="dochadasarauuthai" unicode="&#xe0e;&#xe39;" horiz-adv-x="1839" 
d="M620 -684h467v-229q1 -81 35 -122.5t105 -41.5q69 0 104.5 41.5t33.5 122.5l1 229h315v-229q0 -88 -24 -165.5t-77.5 -135.5t-140.5 -91.5t-213 -33.5q-118 0 -203 28.5t-140.5 80.5t-83 125.5t-30.5 162.5h-147zM90 0l-2 274h164v635q-1 34 -6.5 69t-20.5 68.5
t-42.5 63.5t-70.5 53q15 68 45.5 135t76.5 128.5t110 114.5t147 92t186 61t228 22q148 0 263.5 -27t202 -75.5t145.5 -114.5t96 -144.5t52.5 -165.5t15.5 -177l3 -1590h-328q-23 37 -56.5 71t-82 60.5t-115 42t-155.5 15.5q-72 0 -136 -16t-122.5 -46t-112.5 -74.5
t-106 -101.5l1 324q37 40 88 74t112.5 59.5t132 40t147.5 14.5q72 0 132 -10t108.5 -25.5t86 -33.5t63.5 -33l-1 1257q0 71 -21.5 140t-72.5 124t-134.5 89.5t-206.5 36.5q-103 1 -180.5 -22.5t-131 -59.5t-84 -77t-38.5 -75q25 -23 46.5 -54.5t37 -69t24 -80t7.5 -87.5
l5 -905h-500z" />
    <glyph glyph-name="topataksarauuthai" unicode="&#xe0f;&#xe39;" horiz-adv-x="1839" 
d="M620 -684h467v-229q1 -81 35 -122.5t105 -41.5q69 0 104.5 41.5t33.5 122.5l1 229h315v-229q0 -88 -24 -165.5t-77.5 -135.5t-140.5 -91.5t-213 -33.5q-118 0 -203 28.5t-140.5 80.5t-83 125.5t-30.5 162.5h-147zM1683 -578h-336q-6 29 -19.5 63.5t-36 64t-53.5 49.5
t-73 20q-41 0 -71.5 -19.5t-51 -48.5t-30 -63.5t-9.5 -65.5h-283q0 22 -6.5 56t-24 66t-47 55.5t-75.5 23.5q-37 0 -62.5 -18.5t-42 -48t-23.5 -65t-6 -69.5h-270q-1 120 32.5 206.5t88 143t122 83t135.5 26.5q99 0 176 -40.5t127 -114.5q28 35 63 62t72 45t74.5 27t71.5 9
q74 0 126.5 -22t90.5 -56l-3 1249q0 71 -21.5 140t-72.5 124t-134.5 89.5t-206.5 36.5q-103 1 -180.5 -22.5t-131 -59.5t-84 -77t-38.5 -75q25 -23 46.5 -54.5t37 -69t24 -80t7.5 -87.5l5 -905h-500l-2 274h164v635q-1 34 -6.5 69t-20.5 68.5t-42.5 63.5t-70.5 53
q15 68 45.5 135t76.5 128.5t110 114.5t147 92t186 61t228 22q148 0 263.5 -27t202 -75.5t145.5 -114.5t96 -144.5t52.5 -165.5t15.5 -177z" />
    <glyph glyph-name=".notdef" horiz-adv-x="1151" 
d="M1171 1114v-41h17q20 0 20 29q-1 3 -4 6q-6 6 -16 6h-17zM1180 1069h-9v-37h-12v94h29q15 0 24 -6t9 -18q0 -25 -8.5 -29t-20.5 -4l29 -37h-13zM1188 1020q17 0 28.5 5.5t19 13.5t10.5 17t3 17q0 34 -16.5 50t-44.5 16t-47 -16t-19 -50q0 -22 14.5 -37.5t51.5 -15.5z
M1188 1147q34 0 51.5 -20t17.5 -54q0 -22 -17.5 -41.5t-51.5 -19.5q-37 0 -55.5 19.5t-18.5 41.5q0 34 18.5 54t55.5 20zM557 881q27 -3 63.5 -7.5t76.5 -10.5t81.5 -13.5t78.5 -16.5t65.5 -19.5t44.5 -22.5q-29 54 -75 96.5t-101.5 72t-116.5 45t-121 15.5q-48 0 -94.5 -9
t-89 -27.5t-78.5 -46.5t-62 -65q50 4 101 6.5t100 2.5h127zM1044 1102v-397q-139 40 -310.5 69t-360.5 29q-133 0 -262 -12q12 61 48.5 117.5t93.5 99.5t132 68.5t164 25.5q86 0 155 -19.5t121.5 -48.5t88 -62t53.5 -59v189h77zM422 352q0 25 -15 35t-30 10q-25 0 -37 -10
t-12 -35q0 -41 49 -41q15 0 30 10t15 31zM86 389q0 63 25.5 112.5t66.5 83.5t94 52t109 18q57 0 108 -15.5t90 -47.5t62 -80.5t23 -114.5v-323h303v565h77v-635h-532v70h82v332q0 44 -16.5 76.5t-45 53.5t-66.5 31.5t-81 10.5t-83 -12t-70.5 -35.5t-49 -57t-18.5 -76.5v-295
l164 164q-6 1 -16.5 7.5t-20.5 17t-17.5 26t-7.5 35.5q0 53 31 82t84 29q23 0 43 -8.5t35 -23.5t24 -35.5t9 -43.5q0 -18 -5.5 -33.5t-13 -26.5t-16.5 -18t-15 -8q-2 -6 -14.5 -18.5t-31.5 -30.5t-42.5 -41t-46.5 -49q-31 -28 -64 -58.5t-67 -64.5h-90v385z" />
    <glyph glyph-name=".null" 
 />
    <glyph glyph-name="nonmarkingreturn" horiz-adv-x="791" 
 />
    <glyph glyph-name="space" unicode=" " horiz-adv-x="696" 
 />
    <glyph glyph-name="exclam" unicode="!" horiz-adv-x="1036" 
d="M714 381l3 -381h-398l-3 381h398zM624 549h-213l-72 823l-2 627h360l2 -627z" />
    <glyph glyph-name="quotedbl" unicode="&#x22;" horiz-adv-x="1225" 
d="M939 1999l-1 -729h-237v729h238zM521 1999v-729h-238l1 729h237z" />
    <glyph glyph-name="numbersign" unicode="#" horiz-adv-x="1642" 
d="M679 831h262l43 336h-258zM101 561l1 270h303l42 336h-274l1 267h312l80 565h271l-81 -565h266l77 565h274l-76 -565h241l-1 -267h-275l-46 -336h241v-270h-283l-76 -561h-279l81 561h-258l-81 -561h-274l76 561h-262z" />
    <glyph glyph-name="dollar" unicode="$" horiz-adv-x="1618" 
d="M398 672q5 -170 85 -274t218 -132l-1 619q-137 38 -244 83t-181 108.5t-112.5 151t-38.5 210.5q1 126 46.5 231t124 183.5t183 127t223.5 60.5v192h241v-192q227 -37 363 -193t190 -422h-328q-26 121 -80 196.5t-143 102.5l-2 -569q69 -13 141 -37t139 -59t126.5 -82.5
t103 -107.5t69 -134t24.5 -162q0 -129 -44.5 -237t-124.5 -188t-190.5 -129t-243.5 -60l1 -233h-242l2 237q-140 18 -251.5 73t-192.5 144.5t-129.5 213t-63.5 278.5h332zM945 254q56 9 104 32.5t82.5 60.5t54 88.5t19.5 117.5q0 57 -20 99.5t-55 74t-83 53.5t-104 39z
M470 1466q0 -58 15 -97t44 -66t72.5 -45t100.5 -33l1 512q-51 -11 -94.5 -33.5t-74.5 -56t-48 -79t-16 -102.5z" />
    <glyph glyph-name="percent" unicode="%" horiz-adv-x="2818" 
d="M548 1430q0 -56 6.5 -118.5t26 -115.5t56.5 -88t99 -35q43 0 74.5 16t54 43t36.5 62.5t22 75.5t11 81t3 79q0 54 -5.5 116t-25.5 115.5t-59 89t-107 35.5q-60 0 -97.5 -35.5t-58.5 -89t-28.5 -115.5t-7.5 -116zM269 1425q0 77 10 150.5t33 138.5t59 119.5t88.5 94
t122 61.5t158.5 22q138 0 230.5 -46.5t148 -126t78.5 -185t23 -223.5q0 -75 -11.5 -147.5t-36.5 -137t-63 -119t-91.5 -94t-122.5 -62t-155 -22.5q-129 0 -218.5 44.5t-146 122.5t-81.5 183.5t-25 226.5zM1879 561q0 -52 6.5 -113.5t27 -114.5t58.5 -88.5t101 -35.5
t101.5 34t59.5 86t28 115t7 121q0 54 -6.5 116.5t-26 116t-57 89t-98.5 35.5q-43 0 -74.5 -16.5t-54 -44t-36.5 -64.5t-22 -77t-11 -81t-3 -78zM1596 557q0 117 24.5 223.5t81 188t149 130t229.5 48.5q136 0 227 -46.5t145 -126t76.5 -185.5t22.5 -224q0 -114 -26.5 -219
t-83 -185.5t-146 -128.5t-215.5 -48q-132 0 -224 45t-150 123t-84 182.5t-26 222.5zM2185 2040l-1230 -2080h-332l1237 2080h325z" />
    <glyph glyph-name="ampersand" unicode="&#x26;" horiz-adv-x="1831" 
d="M1318 213q-50 -62 -114.5 -108t-138.5 -76.5t-153.5 -46t-159.5 -15.5q-143 0 -247.5 30t-177.5 79t-118.5 110t-70.5 123t-33.5 118.5t-7.5 96.5q0 117 33.5 204.5t92.5 155.5t140 123t174 107q-38 48 -74 97.5t-63.5 103t-44.5 112.5t-17 125q0 86 31.5 164t92.5 137
t150.5 94t206.5 35q100 0 194 -27.5t167 -81t117 -133t43 -184.5q0 -86 -29 -161t-77 -138.5t-111.5 -115.5t-133.5 -92l284 -336q21 62 31 124.5t17 133.5h299q-10 -65 -18 -115t-16 -91.5t-16.5 -76.5t-20 -68.5t-26.5 -68.5t-35 -76l429 -475h-410zM1134 426
q-106 118 -211.5 243.5t-207.5 239.5q-60 -35 -113.5 -72.5t-94 -82.5t-64.5 -100t-24 -126q1 -66 30 -119t76.5 -90t108 -57t125.5 -20q118 0 212 48.5t163 135.5zM650 1544q-1 -34 12.5 -69t35.5 -71t51 -73t60 -74q36 26 75 54.5t71 63t53.5 76t22.5 93.5q-1 34 -15 64.5
t-39 53.5t-60.5 36.5t-80.5 13.5q-35 0 -68.5 -10t-59.5 -31t-42 -52.5t-16 -74.5z" />
    <glyph glyph-name="quotesingle" unicode="'" horiz-adv-x="811" 
d="M521 1999v-729h-238l1 729h237z" />
    <glyph glyph-name="parenleft" unicode="(" horiz-adv-x="803" 
d="M561 -545q-98 152 -179 306.5t-139 315t-89.5 329t-31.5 348.5q0 167 27.5 336t82.5 334t138 322.5t193 301.5h275q-102 -163 -174 -321.5t-117 -318t-65.5 -322t-19.5 -332.5q-1 -171 19.5 -333.5t65.5 -322t116.5 -319t172.5 -324.5h-275z" />
    <glyph glyph-name="parenright" unicode=")" horiz-adv-x="803" 
d="M-36 -545q100 165 171 324.5t116 319t66 322t22 333.5q-1 170 -22.5 332.5t-67 322t-116.5 318t-171 321.5h274q111 -144 193.5 -301.5t138 -322.5t83.5 -334t28 -336q0 -180 -33 -348.5t-91.5 -329t-140.5 -315t-180 -306.5h-270z" />
    <glyph glyph-name="asterisk" unicode="*" horiz-adv-x="1057" 
d="M914 1827l84 -205l-294 -102l180 -246l-183 -123l-172 250l-172 -250l-190 123l173 246l-284 102l71 205l288 -103l-1 295h221l2 -295z" />
    <glyph glyph-name="plus" unicode="+" horiz-adv-x="1720" 
d="M1589 885l3 -267h-598l-3 -602h-266l3 602h-602l-4 267h602l3 606h267l-3 -606h598z" />
    <glyph glyph-name="comma" unicode="," horiz-adv-x="811" 
d="M601 389l-2 -323q0 -86 -22 -164t-69 -144t-120.5 -117t-175.5 -83l-3 229q40 14 70 37.5t50 52t30 59.5t10 60h-164l3 393h393z" />
    <glyph glyph-name="hyphen" unicode="-" horiz-adv-x="1327" 
d="M1195 885l4 -267h-1073l-4 267h1073z" />
    <glyph glyph-name="period" unicode="." horiz-adv-x="811" 
d="M601 389l-3 -393h-393l3 393h393z" />
    <glyph glyph-name="slash" unicode="/" horiz-adv-x="1057" 
d="M1092 2048l-830 -2089h-298l817 2089h311z" />
    <glyph glyph-name="zero" unicode="0" horiz-adv-x="1585" 
d="M426 979q0 -67 2.5 -147t13 -160t32.5 -154.5t62.5 -132.5t102 -92.5t150.5 -34.5q90 0 152 34.5t102 92.5t62 132.5t32.5 154.5t12 159.5t1.5 147.5q0 66 -2.5 145.5t-14.5 159.5t-35 155t-63 133t-100.5 93t-146.5 35q-85 0 -145 -35t-100 -93t-63.5 -133t-35.5 -155
t-15.5 -159.5t-3.5 -145.5zM86 979q0 80 3.5 165.5t15 171.5t32.5 169t56.5 157.5t87 137.5t124 109t167.5 72t217 26q164 0 280 -45t194 -121.5t123 -177.5t68.5 -213t30 -228.5t6.5 -222.5q0 -84 -3 -172t-14 -175t-32 -170t-56 -157t-86.5 -136t-124 -107t-168 -70
t-218.5 -25q-122 0 -217 25t-167.5 70t-124 107t-87 136t-56.5 157t-32.5 170t-15 175t-3.5 172z" />
    <glyph glyph-name="one" unicode="1" horiz-adv-x="1585" 
d="M208 1581q106 6 197.5 20t163 52.5t121.5 109.5t74 191h286l3 -1954h-324l-2 1376q-98 -46 -226 -64.5t-297 -21.5z" />
    <glyph glyph-name="two" unicode="2" horiz-adv-x="1585" 
d="M122 1217q-10 108 6 207t55 183.5t99 153t138.5 117t174 74.5t205.5 26q136 0 256.5 -39t209.5 -115t140.5 -186.5t51.5 -253.5q0 -92 -20.5 -169t-56 -141.5t-83.5 -118.5t-103 -99t-114 -83.5t-116 -72.5q-79 -48 -158.5 -97.5t-147.5 -101t-118 -104t-71 -106.5h975
l1 -291h-1380q11 122 39.5 221t70 180t95 146.5t113.5 120t125.5 100.5t131.5 88q123 80 211.5 141.5t146.5 120t86 122.5t28 149q-1 69 -26.5 124.5t-69.5 94t-103 59.5t-126 21q-91 0 -157 -40.5t-108 -106.5t-60.5 -150.5t-12.5 -173.5h-328z" />
    <glyph glyph-name="three" unicode="3" horiz-adv-x="1585" 
d="M623 1151h111q64 0 123 17.5t103.5 51t71 83t26.5 114.5q0 66 -22.5 116.5t-63 85t-96 52t-121.5 17.5q-84 0 -142 -31.5t-93.5 -86.5t-51.5 -128t-17 -156h-336q4 154 46.5 281t122.5 218.5t198 142t273 50.5q138 0 256 -34.5t204.5 -105t135 -176.5t48.5 -249
q1 -120 -53.5 -210.5t-150.5 -158.5q73 -27 127 -72.5t89 -105.5t52 -134t17 -159q0 -95 -25.5 -177.5t-70.5 -151t-107 -121.5t-134 -90q-41 -22 -87 -35.5t-94.5 -21t-99 -10.5t-101.5 -3q-158 0 -285.5 43t-216.5 128.5t-136.5 212.5t-46.5 296h336q1 -91 22.5 -164.5
t64 -125t107.5 -79.5t152 -28q84 0 154 22.5t120 64t77.5 101.5t26.5 135q0 78 -28 137.5t-77.5 99t-117.5 59.5t-148 20h-32t-31.5 -0.5t-35.5 -1.5t-43 -2v270z" />
    <glyph glyph-name="four" unicode="4" horiz-adv-x="1585" 
d="M931 1401q-65 -86 -126 -170.5t-122.5 -169.5t-125 -171.5t-131.5 -176.5h503zM1519 713l3 -303h-267l2 -410h-323l-2 410h-864l1 286l895 1258h291l-2 -1241h266z" />
    <glyph glyph-name="five" unicode="5" horiz-adv-x="1585" 
d="M587 1667l-79 -401q69 43 146.5 58t158.5 15q143 0 267 -43t215.5 -129.5t144 -216t52.5 -303.5q0 -131 -45.5 -252t-137 -214.5t-229 -149.5t-321.5 -56q-135 0 -255.5 40.5t-211.5 119.5t-145.5 196.5t-57.5 270.5h328q7 -74 35 -136.5t74.5 -109t110.5 -72.5t144 -26
q76 0 143.5 25.5t117 76.5t78 128t28.5 180q0 84 -27.5 155t-79 122t-124.5 79.5t-162 28.5q-56 0 -102.5 -13.5t-88 -37.5t-79 -56t-74.5 -69l-285 8l199 1069h1061v-287h-799z" />
    <glyph glyph-name="six" unicode="6" horiz-adv-x="1585" 
d="M1121 1430q-17 138 -92.5 200t-204.5 62q-76 0 -134 -23t-101.5 -62.5t-73.5 -92.5t-50 -114t-31.5 -127t-17.5 -130q41 38 92 69t108 53t117.5 34t122.5 12q155 0 275 -51t201.5 -140.5t124 -210t42.5 -258.5q1 -76 -13 -156t-47 -156t-86 -143.5t-131 -118.5
t-182 -80.5t-238 -29.5q-157 0 -271.5 42t-194.5 113.5t-130.5 166.5t-78.5 201.5t-38.5 217t-10.5 214.5q0 137 15.5 269t50.5 250.5t93 218.5t142.5 172.5t199 113.5t264.5 41q130 0 236 -34.5t183 -104.5t124.5 -174.5t62.5 -243.5h-328zM811 1020q-87 0 -155 -30
t-114.5 -82.5t-70.5 -122.5t-24 -150q0 -81 25 -150.5t72.5 -119.5t115 -78.5t153.5 -28.5q85 0 150.5 29.5t110.5 80t67.5 118.5t21.5 145q0 80 -21.5 150.5t-65 123.5t-110 84t-155.5 31z" />
    <glyph glyph-name="seven" unicode="7" horiz-adv-x="1585" 
d="M1476 1704q-100 -95 -192.5 -216.5t-173 -260t-147 -291t-116 -310t-80 -316.5t-38.5 -310h-364q15 241 73.5 469.5t151.5 437.5t216.5 396.5t267.5 347.5h-962v303h1364v-250v0z" />
    <glyph glyph-name="eight" unicode="8" horiz-adv-x="1585" 
d="M491 1446q0 -65 25.5 -114t68 -82t98.5 -49.5t118 -16.5q60 0 110.5 18t88 51.5t59 82t22.5 110.5q-1 61 -23 107.5t-60 77t-91 46t-116 15.5q-57 0 -111.5 -15t-97 -45t-68 -76.5t-23.5 -109.5zM153 1458q0 129 51.5 228t137.5 165.5t199 101t236 34.5
q171 0 292.5 -45.5t199 -119.5t114 -169t36.5 -195q-2 -260 -213 -389q142 -71 218 -194.5t76 -284.5q0 -151 -55.5 -267t-150.5 -195t-222 -120t-270 -41q-151 0 -282 39t-227.5 117t-152.5 195t-57 272q1 157 71.5 280.5t212.5 194.5q-50 32 -89.5 76t-67.5 95
t-42.5 107.5t-14.5 114.5zM425 582q0 -78 27.5 -138.5t77.5 -102t119 -62.5t152 -21q80 0 145.5 23.5t112.5 66.5t72.5 103.5t25.5 134.5q0 66 -29 123.5t-78.5 100t-115 67t-139.5 24.5q-77 0 -144.5 -22.5t-118 -63.5t-79 -100.5t-28.5 -132.5z" />
    <glyph glyph-name="nine" unicode="9" horiz-adv-x="1585" 
d="M461 524q14 -138 89.5 -200t204.5 -62q76 0 134 23t101.5 62t73.5 92.5t50.5 114.5t32.5 126.5t19 130.5q-42 -38 -93 -69t-107.5 -53t-117 -34t-121.5 -12q-155 0 -275.5 51t-203 140.5t-126 210t-43.5 258.5q0 76 15 156t48.5 156t87 143.5t131.5 118.5t182 80.5
t238 29.5q118 0 211 -24t166 -67t126.5 -102t91.5 -129t62.5 -148.5t38 -160.5t18.5 -164t5 -160q1 -137 -13.5 -269.5t-49 -250.5t-92 -218t-142 -172.5t-199.5 -113.5t-264 -41q-131 0 -237 34.5t-184 104.5t-125 174t-60 244h327zM768 934q87 0 155 30t114.5 82.5
t70.5 122.5t24 150q0 81 -25 150.5t-72.5 119.5t-115.5 78.5t-154 28.5q-84 0 -149.5 -29.5t-110 -80t-67.5 -118.5t-24 -145q0 -80 22 -150.5t66 -123.5t110.5 -84t155.5 -31z" />
    <glyph glyph-name="colon" unicode=":" horiz-adv-x="811" 
d="M601 389l-3 -393h-393l3 393h393zM599 1454l2 -393h-393l-2 393h393z" />
    <glyph glyph-name="semicolon" unicode=";" horiz-adv-x="811" 
d="M599 1454l2 -393h-393l-2 393h393zM601 389l-2 -323q0 -86 -22 -164t-69 -144t-120.5 -117t-175.5 -83l-3 229q40 14 70 37.5t50 52t30 59.5t10 60h-164l3 393h393z" />
    <glyph glyph-name="less" unicode="&#x3c;" horiz-adv-x="1827" 
d="M530 758l1124 -508l1 -270l-1489 663l-1 234l1493 667l-3 -274z" />
    <glyph glyph-name="equal" unicode="=" horiz-adv-x="1708" 
d="M123 901l3 258h1454l-3 -258h-1454zM123 344l3 258h1454l-3 -258h-1454z" />
    <glyph glyph-name="greater" unicode="&#x3e;" horiz-adv-x="1827" 
d="M164 1270l3 274l1489 -667l1 -234l-1493 -663l-1 270l1129 508z" />
    <glyph glyph-name="question" unicode="?" horiz-adv-x="1647" 
d="M203 1315q-5 161 41 296t134 232t213.5 151t279.5 54q139 0 255 -39t199.5 -113.5t130 -183t47.5 -246.5q-2 -89 -27 -157.5t-64 -123.5t-85.5 -99.5t-89.5 -86.5q-40 -37 -78 -73t-67.5 -77.5t-47.5 -91.5t-18 -114l-2 -147h-327l1 172q3 84 29 151t63.5 121.5
t82.5 100.5t86 89q33 34 70.5 72t69 82.5t51 95.5t16.5 111q-7 61 -29.5 111t-59.5 85.5t-89 54.5t-118 19q-90 0 -154.5 -36t-106 -97t-60.5 -142t-18 -171h-328zM1054 381l3 -381h-398l-3 381h398z" />
    <glyph glyph-name="at" unicode="@" horiz-adv-x="2327" 
d="M1358 504q-52 3 -105 29t-102 81q-54 -49 -120.5 -83.5t-141.5 -34.5q-80 0 -154 31t-134.5 85t-103.5 127.5t-61 157.5q-18 85 -16.5 168.5t21.5 159.5t58.5 141.5t95 113t130 74.5t163.5 27q31 0 69.5 -8t78 -27t78 -51.5t68.5 -81.5q2 11 4.5 27.5t4.5 35t4 36.5t4 32
h209l-62 -708q-2 -28 0 -57t11 -53t26.5 -39t46.5 -15q38 0 75 17.5t70 49.5t59 77t41.5 100.5t17.5 120t-13 134.5q-35 162 -120 284.5t-202 205t-256.5 124.5t-282.5 42q-116 0 -214.5 -29.5t-177.5 -83.5t-135.5 -129.5t-88.5 -168t-37.5 -199t19.5 -222.5
q24 -114 75.5 -218t124.5 -194t164 -163.5t193.5 -126t213.5 -81t225 -28.5q92 0 182 14t170.5 45.5t148 82.5t114.5 125h262q-61 -126 -150 -215.5t-197.5 -146t-233 -83t-256.5 -26.5q-151 0 -296.5 36t-279 101.5t-250.5 159t-210.5 208.5t-159.5 249.5t-97 281.5
q-31 143 -20.5 274.5t55.5 245.5t122.5 207t181 159t231 102t272.5 36q131 0 260.5 -29t248.5 -83t225 -130.5t190 -171.5t143.5 -206.5t85.5 -235.5q24 -115 11 -211t-52.5 -173t-100 -134.5t-131.5 -95t-146.5 -54t-145.5 -12.5zM935 1380q-56 0 -101 -21.5t-78 -57.5
t-55 -84t-33.5 -100t-11.5 -106t10 -102q9 -44 31 -81.5t53 -64.5t69 -42.5t80 -15.5q48 0 87.5 22.5t69.5 60t51 86.5t32 102t11.5 107t-9.5 101q-8 35 -26.5 70t-45.5 63t-61.5 45.5t-72.5 17.5z" />
    <glyph glyph-name="A" unicode="A" horiz-adv-x="1929" 
d="M1212 868l-263 734l-257 -734h520zM1148 1999l781 -1999h-397l-202 561h-762q-28 -72 -53 -141.5t-49 -138.5t-48 -139t-49 -142h-369l763 1999h385z" />
    <glyph glyph-name="B" unicode="B" horiz-adv-x="1929" 
d="M1012 1176q101 0 173 16t117.5 49t66.5 82t21 115q0 65 -12 110t-35.5 73.5t-57.5 43.5t-76.5 22t-93.5 8t-108 1h-467l5 -520h467zM996 1999q90 0 180.5 -7t173 -26.5t153.5 -54.5t123.5 -91.5t82.5 -137.5t30 -191q0 -146 -52 -250.5t-161 -175.5q73 -31 128.5 -78.5
t93 -108t56.5 -132.5t19 -152q0 -74 -18.5 -146.5t-55 -138.5t-91 -122.5t-126 -98t-160 -65t-192.5 -23.5h-987l-4 1999h807zM1140 299q80 0 142 21t104.5 60.5t64.5 96.5t22 129q0 80 -34 131.5t-88.5 81.5t-123.5 41.5t-139 11.5h-545l-1 -573h598z" />
    <glyph glyph-name="C" unicode="C" horiz-adv-x="2032" 
d="M1558 1356q-20 103 -63 176.5t-106.5 120.5t-145.5 69.5t-180 22.5q-107 0 -195 -28t-156.5 -78t-119 -119t-83.5 -150.5t-49.5 -172.5t-16.5 -185q1 -154 37.5 -291t112.5 -240t193.5 -163t280.5 -60q120 0 212 39.5t156 110t100 168.5t45 215h352q-20 -200 -86 -354.5
t-177 -259.5t-266.5 -159.5t-355.5 -54.5q-160 0 -292.5 36t-239 101.5t-186 158.5t-132 207t-79 247t-26.5 278q0 148 28.5 283t84 252t138 212.5t190.5 163.5t242 105t293 37q166 0 309 -43t254 -129t185 -215t103 -301h-361v0z" />
    <glyph glyph-name="D" unicode="D" horiz-adv-x="1982" 
d="M919 299q31 0 75 3.5t94 14.5t103.5 32t104.5 57t96.5 88t80 125t54 169t19.5 220q0 164 -33.5 292t-107.5 216t-192.5 134t-287.5 46h-385l2 -1397h377zM898 1999q240 0 425.5 -58.5t312.5 -177t193 -296.5t66 -418q-1 -252 -58.5 -447.5t-178.5 -329t-308.5 -203
t-448.5 -69.5h-708l-4 1999h709z" />
    <glyph glyph-name="E" unicode="E" horiz-adv-x="1720" 
d="M1635 1999l-1 -303h-1094l5 -520h1015l-1 -304h-1016l-1 -573h1098l2 -299h-1449l-4 1999h1446z" />
    <glyph glyph-name="F" unicode="F" horiz-adv-x="1618" 
d="M1566 1999l-2 -303h-1024l5 -520h893l-2 -304h-893l2 -872h-352l-4 1999h1377z" />
    <glyph glyph-name="G" unicode="G" horiz-adv-x="2134" 
d="M1676 184q-62 -57 -134 -98.5t-149.5 -68.5t-158 -40.5t-158.5 -13.5q-154 0 -287 37t-242.5 104t-194.5 159.5t-143 203.5t-88.5 237t-30.5 259q0 144 27.5 280.5t82.5 256.5t137.5 220t192 172t246 112t300.5 40q165 0 314 -37.5t267 -121.5t195.5 -218.5t98.5 -327.5
h-348q-21 111 -69 188t-117.5 125.5t-156.5 70.5t-185 22q-112 0 -202 -30t-160.5 -83t-121.5 -125.5t-84 -157.5t-49 -179.5t-16 -190.5q1 -94 19.5 -184t55 -170.5t90 -147.5t123.5 -116t156.5 -76t188.5 -27q131 0 236.5 42t180.5 114t117.5 169t48.5 208h-627l-2 303
h954l4 -1094h-250z" />
    <glyph glyph-name="H" unicode="H" horiz-adv-x="2032" 
d="M542 1999l3 -823h942l-3 823h352l3 -1999h-352l-2 872h-942l2 -872h-352l-4 1999h353z" />
    <glyph glyph-name="I" unicode="I" horiz-adv-x="795" 
d="M570 1999l3 -1999h-352l-3 1999h352z" />
    <glyph glyph-name="J" unicode="J" horiz-adv-x="1466" 
d="M1270 532q0 -72 -12.5 -143t-41.5 -134.5t-76 -117.5t-116.5 -93.5t-162.5 -62t-214 -22.5q-150 0 -265.5 39.5t-193.5 116t-118 190t-39 260.5v152h361l-3 -123q1 -75 12 -137t40.5 -106.5t81.5 -68.5t135 -24q75 0 125 21.5t80 60.5t42 94t12 123l1 1442h353z" />
    <glyph glyph-name="K" unicode="K" horiz-adv-x="1933" 
d="M542 1999v-893l897 893h463l-851 -815l870 -1184h-426l-688 942q-69 -65 -132 -129t-133 -129l3 -684h-352l-4 1999h353z" />
    <glyph glyph-name="L" unicode="L" horiz-adv-x="1552" 
d="M542 1999v-1700h996l2 -299h-1347l-4 1999h353z" />
    <glyph glyph-name="M" unicode="M" horiz-adv-x="2433" 
d="M2237 1999l4 -1999h-353l-4 1442q-65 -186 -129 -366t-128 -358.5t-128.5 -356.5t-130.5 -361h-303l-521 1446l1 -1446h-352l-4 1999h471l550 -1565l552 1565h475z" />
    <glyph glyph-name="N" unicode="N" horiz-adv-x="2040" 
d="M1442 0l-901 1479l4 -1479h-352l-4 1999h402l903 -1491l-2 1491h352l3 -1999h-405z" />
    <glyph glyph-name="O" unicode="O" horiz-adv-x="2138" 
d="M430 999q0 -92 15.5 -182.5t48.5 -173t84 -153t121 -122t160.5 -81t203.5 -29.5q115 0 206.5 29.5t162.5 81t121.5 122t83 153t48 173t15.5 182.5t-15.5 183.5t-48 174t-83.5 153.5t-121.5 123.5t-162.5 82t-206 29.5q-113 0 -203.5 -29.5t-161 -82t-121 -123.5
t-83.5 -153.5t-48.5 -174t-15.5 -183.5zM78 999q0 137 27.5 268t82.5 247t137 213.5t191 167.5t246 109.5t302 39.5q166 0 304 -39.5t248 -109.5t192 -167.5t136.5 -213.5t81 -247t26.5 -268t-26.5 -267t-81 -245t-137 -211.5t-192.5 -166t-247.5 -108t-303.5 -38.5
q-165 0 -302 38.5t-246.5 108t-191.5 166t-136.5 211.5t-82 245t-27.5 267z" />
    <glyph glyph-name="P" unicode="P" horiz-adv-x="1827" 
d="M998 1085q102 -2 175.5 18t121.5 59t71.5 96t25.5 131q-1 150 -98 228.5t-299 78.5h-455l3 -611h455zM1086 1999q163 0 285.5 -40.5t204.5 -118.5t123 -191.5t41 -259.5q0 -143 -41.5 -255.5t-123 -190.5t-204.5 -118.5t-286 -38.5h-544l4 -786h-352l-4 1999h897z" />
    <glyph glyph-name="Q" unicode="Q" horiz-adv-x="2138" 
d="M78 999q0 137 27.5 268t82.5 247t137 213.5t191 167.5t246 109.5t302 39.5q166 0 304 -39.5t248 -109.5t192 -167.5t136.5 -213.5t81 -247t26.5 -268q0 -107 -16.5 -210t-49 -198t-82 -180t-115.5 -157l271 -217l-188 -234l-331 267q-100 -53 -219 -80t-258 -27
q-165 0 -302 38.5t-246.5 108t-191.5 166t-136.5 211.5t-82 245t-27.5 267zM430 999q0 -92 15.5 -182.5t48.5 -173t84 -153t121 -122t160.5 -81t203.5 -29.5q59 0 110 6.5t96 22.5l-183 151l193 230l256 -205q43 52 74.5 115t51.5 132t29.5 142t9.5 147q0 92 -15.5 183.5
t-48 174t-83.5 153.5t-121.5 123.5t-162.5 82t-206 29.5q-113 0 -203.5 -29.5t-161 -82t-121 -123.5t-83.5 -153.5t-48.5 -174t-15.5 -183.5z" />
    <glyph glyph-name="R" unicode="R" horiz-adv-x="1929" 
d="M1152 1999q154 0 274.5 -37t203.5 -106.5t126 -171t43 -230.5q0 -78 -14 -151t-44 -136t-77 -114t-113 -86q67 -43 106.5 -105t61.5 -133t31 -146.5t16 -144.5q7 -54 11 -109t17 -110t42 -110t85 -109h-401q-26 28 -42.5 61t-26 71.5t-13.5 83t-6 95.5q-4 51 -8 107.5
t-14.5 111.5t-29 105.5t-51.5 90t-82 64.5t-119 29h-586l3 -819h-352l-4 1999h963zM1033 1114q80 0 155 13.5t133 47.5t92.5 93t33.5 149q1 63 -17.5 114.5t-57 88t-98 56.5t-140.5 20h-594l1 -582h492z" />
    <glyph glyph-name="S" unicode="S" horiz-adv-x="1827" 
d="M1314 1372q-12 106 -46 177.5t-88.5 115t-129 62t-168.5 18.5q-74 0 -144.5 -14.5t-126 -47.5t-89.5 -87t-34 -134q0 -66 39 -110t105 -75t153.5 -52t183.5 -41q91 -19 183.5 -39.5t178.5 -50.5t161.5 -73t131 -105t87.5 -147t32 -200q0 -111 -33.5 -199.5t-91.5 -156
t-136 -115t-168 -77.5t-187.5 -44t-193.5 -14q-118 0 -226.5 17.5t-202 55t-170.5 96t-131.5 141t-84.5 190t-30 242.5h335q0 -123 41 -208t111.5 -138.5t164.5 -77t200 -23.5q83 0 164.5 12.5t146 46.5t105 93t40.5 151q-1 52 -21.5 92t-56 70.5t-84.5 53.5t-107 40.5
t-123.5 31.5t-133.5 28q-89 18 -178 38.5t-170.5 49t-152 68.5t-122.5 96.5t-82 133t-30 179.5t30 188t82 152t123.5 116t156 81.5t178.5 48.5t191 16q161 0 295.5 -37.5t233.5 -118.5t157.5 -208.5t67.5 -307.5h-336v0z" />
    <glyph glyph-name="T" unicode="T" horiz-adv-x="1626" 
d="M20 1696l1 303h1577l-1 -303h-619l5 -1696h-352l-5 1696h-606z" />
    <glyph glyph-name="U" unicode="U" horiz-adv-x="2056" 
d="M1863 733q0 -194 -55 -339t-160 -241.5t-258.5 -145t-349.5 -48.5q-203 0 -360.5 45.5t-266 140.5t-165 241t-56.5 347l-3 1266h353l2 -1266q-1 -239 124.5 -357t374.5 -118q233 0 349.5 118t118.5 357l-3 1266h353z" />
    <glyph glyph-name="V" unicode="V" horiz-adv-x="1786" 
d="M692 0l-694 1999h384l512 -1565l516 1565h373l-702 -1999h-389z" />
    <glyph glyph-name="W" unicode="W" horiz-adv-x="2589" 
d="M1683 0l-405 1499l-401 -1499h-361l-518 1999h363l355 -1458q94 368 191 730t192 728h381l388 -1467l361 1467h357l-534 -1999h-369z" />
    <glyph glyph-name="X" unicode="X" horiz-adv-x="1802" 
d="M34 1999h426l440 -701l457 701h401l-654 -971l698 -1028h-430l-475 733l-491 -733h-406l681 1032z" />
    <glyph glyph-name="Y" unicode="Y" horiz-adv-x="1896" 
d="M1126 0h-356l-3 803l-769 1196h425l534 -860l523 860h413l-771 -1192z" />
    <glyph glyph-name="Z" unicode="Z" horiz-adv-x="1855" 
d="M1265 1696h-1073l1 303h1524l2 -279l-1160 -1421h1196l2 -299h-1659l-1 274z" />
    <glyph glyph-name="bracketleft" unicode="[" horiz-adv-x="770" 
d="M493 1782v-2061h254l-1 -266h-574l2 2593h574l-1 -266h-254z" />
    <glyph glyph-name="backslash" unicode="\" horiz-adv-x="1057" 
d="M273 2048l816 -2089h-303l-824 2089h311z" />
    <glyph glyph-name="bracketright" unicode="]" horiz-adv-x="770" 
d="M18 1782l1 266h573l-2 -2593h-569l1 266h250v2061h-254z" />
    <glyph glyph-name="asciicircum" unicode="^" horiz-adv-x="1708" 
d="M989 1974l611 -1220h-258l-489 975l-473 -975h-275l614 1220h270z" />
    <glyph glyph-name="underscore" unicode="_" horiz-adv-x="1446" 
d="M1423 -188l1 -234h-1401v234h1400z" />
    <glyph glyph-name="grave" unicode="`" horiz-adv-x="795" 
d="M461 2048l248 -414h-258l-371 414h381z" />
    <glyph glyph-name="a" unicode="a" horiz-adv-x="1532" 
d="M1499 33q-47 -34 -94 -50t-108 -16q-43 0 -81.5 9t-70 28t-54 49.5t-33.5 73.5q-44 -38 -98 -68t-113.5 -50.5t-123 -31t-126.5 -10.5q-106 0 -201 23.5t-166 74.5t-112.5 132t-41.5 196q-1 94 23 161t66.5 113.5t101.5 77.5t128.5 52.5t146.5 38.5t157 36
q55 14 113.5 28t106.5 32t79 42t31 58q0 58 -23.5 91t-61 49.5t-84.5 20t-95 3.5q-63 0 -115 -9t-90.5 -35.5t-60.5 -75t-25 -126.5h-336q5 154 58.5 257t141 165t203 88.5t244.5 26.5q69 0 139 -6.5t134.5 -24t120.5 -47t97.5 -76.5t65 -113t24.5 -155v-709q1 -46 2.5 -68
t20.5 -22q4 0 11 0.5t19.5 3.5t32 10t49.5 19zM650 258q103 0 175 25.5t117.5 64.5t66 85t19.5 87l2 185q-60 -25 -130 -44t-129 -34q-65 -17 -128 -33.5t-112.5 -40t-80 -57.5t-30.5 -86q0 -42 18.5 -71t50 -47t73.5 -26t88 -8z" />
    <glyph glyph-name="b" unicode="b" horiz-adv-x="1688" 
d="M488 1999l-1 -672q41 46 90.5 80t104 56t112 33t114.5 11q118 0 215 -29.5t174 -82t134.5 -124.5t95.5 -157.5t57 -181.5t20 -195q0 -160 -42 -300t-127 -244.5t-214.5 -165t-304.5 -60.5q-57 0 -113 8.5t-110 29.5t-105.5 55.5t-99.5 86.5l4 -147h-336l-3 1999h335z
M1249 750q0 86 -21.5 169t-68.5 148t-120.5 105t-178.5 40q-106 0 -179 -42t-118 -109.5t-65 -152.5t-20 -171q0 -92 21 -177.5t68 -151.5t123.5 -106t187.5 -40q106 0 177.5 41.5t115 110t61.5 156.5t17 180z" />
    <glyph glyph-name="c" unicode="c" horiz-adv-x="1532" 
d="M1123 938q-14 74 -42.5 123.5t-68.5 79.5t-91 42.5t-111 12.5q-114 0 -190.5 -40.5t-123.5 -108t-66.5 -155.5t-19.5 -183q0 -86 22 -167.5t68 -144.5t117.5 -101t171.5 -38q154 0 233.5 77.5t104.5 237.5h344q-27 -147 -80.5 -260.5t-137 -190t-198.5 -116t-266 -39.5
q-178 0 -312 55.5t-223.5 154.5t-134.5 235t-45 297q1 163 45 305t133 247t225 165.5t320 60.5q130 0 244 -31t201.5 -97.5t144 -170.5t72.5 -250h-336v0z" />
    <glyph glyph-name="d" unicode="d" horiz-adv-x="1688" 
d="M1529 1999l3 -1999h-336l-3 147q-47 -52 -97 -86.5t-102.5 -55.5t-108.5 -29.5t-116 -8.5q-175 0 -304.5 60.5t-215 165t-127 244.5t-41.5 300q-1 99 17.5 195t56.5 181.5t96 157.5t135.5 124.5t175 82t215.5 29.5q57 0 114 -10.5t111 -32t102.5 -55.5t87.5 -82l1 672
h336zM430 750q1 -92 20 -180t62.5 -156.5t114.5 -110t177 -41.5q111 0 187.5 40t124.5 106t69.5 151.5t21.5 177.5q0 86 -21 171t-67 152.5t-120 109.5t-180 42q-104 0 -178 -40t-121 -105t-68.5 -148t-21.5 -169z" />
    <glyph glyph-name="e" unicode="e" horiz-adv-x="1532" 
d="M1465 504q-28 -137 -87 -238t-145 -167.5t-196 -99t-239 -32.5q-185 0 -321 57t-225.5 159t-133 242.5t-41.5 307.5q-1 171 51 310t146.5 237.5t226.5 152.5t292 54q125 0 226.5 -34.5t180.5 -95t136 -143.5t92.5 -180t50 -204t8.5 -216h-1069q5 -74 30.5 -138.5t73 -113
t118 -76.5t165.5 -28q60 0 112.5 12.5t95 41t74 76t50.5 116.5h328zM781 1196q-72 0 -132 -23t-106.5 -62.5t-77.5 -92.5t-44 -113h713q-12 58 -43.5 111t-77.5 93t-105 63.5t-127 23.5z" />
    <glyph glyph-name="f" unicode="f" horiz-adv-x="938" 
d="M48 1143l-2 311h222l2 205q-2 100 27.5 175.5t86.5 126.5t140.5 77t191.5 26q40 0 87.5 -9t91.5 -27v-304q-46 25 -88 33t-73 8q-65 0 -98.5 -26.5t-32.5 -91.5v-193h263l1 -311h-262l1 -1143h-336l-1 1143h-221z" />
    <glyph glyph-name="g" unicode="g" horiz-adv-x="1638" 
d="M773 270q106 0 177.5 42.5t115 111t62.5 154.5t19 172q1 81 -17 161t-60 143.5t-110 102.5t-166 39q-102 0 -172.5 -37t-115 -99.5t-65 -145t-21.5 -173.5q-1 -83 16.5 -167t59 -151.5t109.5 -110t168 -42.5zM1479 94q1 -180 -41 -313.5t-130.5 -222t-224 -132.5
t-321.5 -44q-70 0 -143 12t-142 38t-130.5 66t-109 95.5t-77 127t-33.5 160.5h332q5 -58 37.5 -100t79.5 -69t102.5 -39.5t106.5 -12.5q103 0 174.5 31t116.5 89t65 140.5t20 185.5l2 29q-83 -74 -188.5 -112.5t-213.5 -38.5q-172 0 -301 59.5t-214.5 160.5t-128 234.5
t-42.5 282.5q0 84 14.5 173.5t48 174.5t87.5 161t132.5 133t183.5 90.5t240 33.5q114 0 209.5 -35t170.5 -113l-1 115h320z" />
    <glyph glyph-name="h" unicode="h" horiz-adv-x="1589" 
d="M488 1999l2 -664q42 36 92 64.5t103 49t107 31.5t103 11q158 0 262 -41.5t165 -114.5t85.5 -172.5t24.5 -216.5l2 -946h-336l-1 967q-2 108 -61 168.5t-177 60.5q-92 0 -161 -30t-115.5 -81.5t-69.5 -120t-24 -145.5l3 -819h-336l-3 1999h335z" />
    <glyph glyph-name="i" unicode="i" horiz-adv-x="705" 
d="M181 1630v369h336v-369h-336zM517 1454l3 -1454h-336l-2 1454h335z" />
    <glyph glyph-name="j" unicode="j" horiz-adv-x="705" 
d="M181 1630v369h336v-369h-336zM519 -172q-1 -109 -29.5 -187.5t-80 -128.5t-124 -74t-161.5 -24q-40 0 -84 3t-82 10l-1 299q28 -3 47.5 -5t35 -3t29 -1h28.5q24 0 40.5 7.5t26.5 25t13.5 45.5t2.5 70l2 1589h335z" />
    <glyph glyph-name="k" unicode="k" horiz-adv-x="1532" 
d="M484 1999l2 -1069l552 524h446l-589 -541l612 -913h-405l-456 680l-163 -143l4 -537h-331l-3 1999h331z" />
    <glyph glyph-name="l" unicode="l" horiz-adv-x="705" 
d="M517 1999l3 -1999h-336l-3 1999h336z" />
    <glyph glyph-name="m" unicode="m" horiz-adv-x="2408" 
d="M476 1454l3 -143q81 86 181.5 129t227.5 43q61 0 121 -11.5t114 -35t99.5 -59t78.5 -83.5q81 96 187 142.5t236 46.5q120 0 217 -25.5t166 -79.5t106 -139t36 -203l4 -1036h-336l-3 958q0 54 -10.5 97.5t-36.5 73.5t-69.5 46.5t-109.5 16.5q-75 0 -134.5 -21t-100.5 -60
t-62 -95.5t-19 -126.5v-889h-336l-2 934q1 55 -8.5 102.5t-34 82t-66.5 54t-106 19.5q-63 0 -111.5 -16t-85 -42t-61.5 -58.5t-40.5 -66t-22.5 -65.5t-7 -55l1 -889h-336l-3 1454h323z" />
    <glyph glyph-name="n" unicode="n" horiz-adv-x="1589" 
d="M476 1454l1 -151q73 85 173.5 132.5t241.5 47.5q158 0 262.5 -41t166 -113.5t86 -172.5t23.5 -218l4 -938h-332l-4 963q1 108 -61.5 168.5t-180.5 60.5q-92 0 -161 -30t-115 -81.5t-68.5 -120t-21.5 -145.5l2 -815h-336l-3 1454h323z" />
    <glyph glyph-name="o" unicode="o" horiz-adv-x="1634" 
d="M418 725q0 -115 31.5 -202.5t85.5 -146t126.5 -88.5t155.5 -30q80 0 151 30t124.5 88.5t85 146t31.5 202.5q1 112 -30 199.5t-84.5 148t-125 92t-151.5 31.5q-83 0 -155.5 -31.5t-126.5 -92t-85.5 -148t-32.5 -199.5zM74 725q0 161 47 300.5t140.5 242t232.5 161
t324 58.5q183 0 321 -58.5t231 -161t140 -242t47 -300.5q0 -107 -20.5 -204.5t-62 -181.5t-104 -152.5t-144.5 -117.5t-184 -75.5t-224 -26.5q-185 0 -324 58.5t-232 160.5t-140.5 240.5t-47.5 298.5z" />
    <glyph glyph-name="p" unicode="p" horiz-adv-x="1688" 
d="M152 -545l1 1999h336l-1 -147q49 52 101 86.5t106.5 55.5t111 29.5t113.5 8.5q175 0 304 -60.5t213.5 -165t125.5 -244.5t41 -300q0 -100 -19 -195.5t-56.5 -181t-94.5 -157.5t-133.5 -124.5t-173.5 -82t-215 -29.5q-57 0 -115 11t-113 33t-105 56t-90 80l-1 -672h-336z
M1251 705q0 92 -18.5 179.5t-62.5 156t-116 110t-178 41.5q-110 0 -186.5 -39.5t-124 -105.5t-68 -152t-19.5 -178q0 -86 20 -171t65.5 -152.5t118.5 -109.5t179 -42q105 0 179 40t121 105t68.5 148.5t21.5 169.5z" />
    <glyph glyph-name="q" unicode="q" horiz-adv-x="1688" 
d="M1192 -545l2 672q-39 -46 -88.5 -80t-104.5 -56t-113 -33t-115 -11q-118 0 -215 29.5t-174 82t-134.5 124.5t-95 157.5t-56 181t-18.5 195.5q0 160 41.5 300t126 244.5t213 165t303.5 60.5q57 0 113.5 -8.5t111 -29.5t105.5 -55.5t98 -86.5l1 147h336l-1 -1999h-336z
M432 705q0 -86 21.5 -169.5t68 -148.5t120.5 -105t178 -40q106 0 180 42t120 109.5t66.5 152.5t20.5 171q-1 92 -23 178t-69.5 152t-124 105.5t-187.5 39.5q-106 0 -177 -41.5t-114 -110t-61.5 -156t-18.5 -179.5z" />
    <glyph glyph-name="r" unicode="r" horiz-adv-x="987" 
d="M476 1454l3 -180q42 54 88 93.5t103 66t128 38.5t164 11v-328q-144 0 -236 -34.5t-144.5 -99.5t-72.5 -159.5t-20 -214.5l3 -647h-336l-3 1454h323z" />
    <glyph glyph-name="s" unicode="s" horiz-adv-x="1430" 
d="M389 520q6 -78 35.5 -129.5t75.5 -82t104.5 -42.5t123.5 -12q48 0 99 6.5t93 24.5t69.5 49t28.5 80q-1 44 -30.5 74t-78.5 51t-112.5 36.5t-130.5 30.5q-64 13 -132.5 30.5t-132.5 42t-121.5 57.5t-100 78t-67.5 104t-25 135q0 77 24 139t65.5 110t98 83t122 57.5
t136 33.5t141.5 11q126 0 237 -25t196.5 -85t138.5 -160t64 -250h-336q-5 66 -32 110.5t-67.5 72t-90 39t-98.5 11.5q-43 0 -87.5 -6.5t-81 -22t-59 -40.5t-22.5 -62q0 -35 25.5 -60t70 -44t103 -34t123.5 -30l104 -24q103 -25 195 -56.5t160.5 -80.5t109 -120t40.5 -174
q-1 -94 -27.5 -166t-72.5 -125.5t-108 -89t-134.5 -57.5t-151 -31.5t-157.5 -9.5q-134 0 -251 29t-205.5 94t-143 171t-63.5 259h336v0z" />
    <glyph glyph-name="t" unicode="t" horiz-adv-x="918" 
d="M837 1454l1 -311h-266l-2 -766q0 -26 6 -41.5t21 -23.5t39.5 -10.5t61.5 -2.5h156l2 -299h-225q-105 0 -179 15t-121.5 55t-70 110t-22.5 180l2 783h-221l-1 311h221l-1 430h332l1 -430h266z" />
    <glyph glyph-name="u" unicode="u" horiz-adv-x="1597" 
d="M1110 -4l-1 143q-79 -80 -179.5 -126t-230.5 -46q-158 0 -263.5 40.5t-168.5 113t-89 173.5t-26 222l1 938h344l1 -967q1 -105 59 -163t172 -58q97 0 166.5 28t115 78t67 119t22.5 152l-1 811h340l-1 -1458h-328z" />
    <glyph glyph-name="v" unicode="v" horiz-adv-x="1491" 
d="M573 0l-539 1454h373l348 -1036l336 1036h360l-529 -1454h-349z" />
    <glyph glyph-name="w" unicode="w" horiz-adv-x="2195" 
d="M1348 0l-255 942l-233 -942h-360l-466 1454h377l270 -979l242 979h356l254 -979l266 979h357l-460 -1454h-348z" />
    <glyph glyph-name="x" unicode="x" horiz-adv-x="1540" 
d="M59 1454h413l292 -426l294 426h414l-500 -672l548 -782h-414l-343 512l-341 -512h-402l535 762z" />
    <glyph glyph-name="y" unicode="y" horiz-adv-x="1503" 
d="M842 -205q-43 -109 -88.5 -186.5t-100 -127t-120.5 -72.5t-149 -23q-43 0 -96 3.5t-107 24.5l2 320q57 -22 99 -29.5t73 -7.5q103 0 152 94l87 225l-568 1438h369l372 -1036q88 264 177.5 519.5t175.5 516.5h352z" />
    <glyph glyph-name="z" unicode="z" horiz-adv-x="1511" 
d="M925 1155h-749l1 299h1209l-1 -225l-813 -934h803l1 -295h-1253l-2 238z" />
    <glyph glyph-name="braceleft" unicode="{" horiz-adv-x="967" 
d="M775 1802q-37 0 -62 -9.5t-40.5 -30.5t-22 -53.5t-6.5 -78.5l1 -504q0 -80 -23 -143.5t-56.5 -111.5t-70.5 -79.5t-64 -46.5q28 -11 65 -34.5t70 -67t56 -110.5t24 -164l-4 -504q3 -83 31.5 -123.5t102.5 -40.5h114l-1 -246h-205q-74 0 -137.5 23t-111 69t-75 115.5
t-28.5 161.5l4 504q-1 73 -19.5 132.5t-50 100.5t-73 63.5t-89.5 22.5l-2 201q48 0 90 25t73.5 68.5t49.5 101.5t18 124l-2 508q1 89 29.5 158.5t77 117t112.5 72.5t136 25h205l-1 -246h-115z" />
    <glyph glyph-name="bar" unicode="|" horiz-adv-x="655" 
d="M466 2200l-1 -2790h-279l1 2790h279z" />
    <glyph glyph-name="braceright" unicode="}" horiz-adv-x="967" 
d="M71 1802l1 246h205q72 0 136 -25t111.5 -72.5t75 -117t26.5 -158.5l2 -508q0 -66 18 -124t48.5 -101.5t71.5 -68.5t89 -25l2 -201q-48 0 -89.5 -22.5t-72 -63.5t-48 -100.5t-17.5 -132.5l-3 -504q1 -92 -26 -161.5t-75 -115.5t-113 -69t-138 -23h-201l-3 246h115
q74 0 102.5 40t26.5 124l3 504q0 97 22.5 164t55.5 110.5t69.5 67t63.5 34.5q-28 15 -64.5 46.5t-69.5 79.5t-55.5 111.5t-22.5 143.5v504q-1 46 -7.5 78.5t-22 53.5t-40.5 30.5t-62 9.5h-114z" />
    <glyph glyph-name="asciitilde" unicode="~" horiz-adv-x="1708" 
d="M1548 750q-32 -51 -70 -100.5t-86 -88t-109 -62.5t-139 -24q-54 0 -107.5 15t-106 37t-103.5 48.5t-100 48.5t-96 37t-91 15q-31 0 -61.5 -21t-60.5 -55t-59.5 -76.5t-59.5 -85.5l-141 205q25 54 61 104.5t85.5 90.5t113 64t143.5 24q54 0 108.5 -15t107.5 -37
t103.5 -48.5t97.5 -48.5t90 -37t80 -15q32 0 67 22t68 55.5t63 74t53 77.5z" />
    <glyph glyph-name="saraileftthai" 
d="M-1819 1933l131 267h1037l-1 -267h-1167z" />
    <glyph glyph-name="saraileftthai" unicode="&#xf701;" 
d="M-1819 1933l131 267h1037l-1 -267h-1167z" />
    <glyph glyph-name="saraiileftthai" 
d="M-1688 2200h717l-2 237h320l1 -504h-1167z" />
    <glyph glyph-name="saraiileftthai" unicode="&#xf702;" 
d="M-1688 2200h717l-2 237h320l1 -504h-1167z" />
    <glyph glyph-name="saraueleftthai" 
d="M-1214 2228q0 61 23 115t62.5 94t92.5 63t115 23q61 0 115.5 -23t95 -63t63.5 -94t22 -115q1 -62 -21.5 -115.5t-62.5 -93.5t-94 -63t-115 -23h-901l135 267h472zM-1026 2228q0 -21 9 -40t24 -32.5t34.5 -21.5t40.5 -8t40.5 8t33.5 21.5t22.5 32.5t8.5 40q-1 47 -31.5 77
t-73.5 30q-21 0 -41 -8t-35 -22.5t-23.5 -34t-8.5 -42.5z" />
    <glyph glyph-name="saraueleftthai" unicode="&#xf703;" 
d="M-1214 2228q0 61 23 115t62.5 94t92.5 63t115 23q61 0 115.5 -23t95 -63t63.5 -94t22 -115q1 -62 -21.5 -115.5t-62.5 -93.5t-94 -63t-115 -23h-901l135 267h472zM-1026 2228q0 -21 9 -40t24 -32.5t34.5 -21.5t40.5 -8t40.5 8t33.5 21.5t22.5 32.5t8.5 40q-1 47 -31.5 77
t-73.5 30q-21 0 -41 -8t-35 -22.5t-23.5 -34t-8.5 -42.5z" />
    <glyph glyph-name="saraueeleftthai" 
d="M-1684 2200h275l-2 237h303l2 -237h152l-2 237h303l1 -504h-1167z" />
    <glyph glyph-name="saraueeleftthai" unicode="&#xf704;" 
d="M-1684 2200h275l-2 237h303l2 -237h152l-2 237h303l1 -504h-1167z" />
    <glyph glyph-name="maieklowleftthai" 
d="M-1064 2445h328l2 -516h-327z" />
    <glyph glyph-name="maieklowleftthai" unicode="&#xf705;" 
d="M-1064 2445h328l2 -516h-327z" />
    <glyph glyph-name="maitholowleftthai" 
d="M-1399 1942l1 245h-139v246h406l-1 -246q81 1 138.5 21.5t94 54t54 77.5t17.5 93h295q0 -95 -36 -184t-112.5 -157t-195.5 -109t-285 -41h-237z" />
    <glyph glyph-name="maitholowleftthai" unicode="&#xf706;" 
d="M-1399 1942l1 245h-139v246h406l-1 -246q81 1 138.5 21.5t94 54t54 77.5t17.5 93h295q0 -95 -36 -184t-112.5 -157t-195.5 -109t-285 -41h-237z" />
    <glyph glyph-name="maitrilowleftthai" 
d="M-1031 1946q0 34 -3 70t-10 66t-18.5 49t-28.5 19q-15 0 -27 -18.5t-20 -48t-12 -66t-4 -71.5h-189q1 34 -1.5 70t-8.5 66t-17 49t-28 19q-20 0 -32 -19t-19 -49t-9.5 -66t-3.5 -70h-233q-6 114 14 198.5t56.5 140.5t86 83.5t103.5 27.5q65 0 112.5 -28.5t70.5 -77.5
q14 20 35.5 39t47.5 34t54.5 24t56.5 9q35 0 68.5 -13t62.5 -37.5t51.5 -61t35.5 -84.5q16 18 26 43.5t16 54.5t8 60.5t2 62.5h254q0 -86 -22.5 -165.5t-62.5 -143t-95 -107.5t-121 -59h-196z" />
    <glyph glyph-name="maitrilowleftthai" unicode="&#xf707;" 
d="M-1031 1946q0 34 -3 70t-10 66t-18.5 49t-28.5 19q-15 0 -27 -18.5t-20 -48t-12 -66t-4 -71.5h-189q1 34 -1.5 70t-8.5 66t-17 49t-28 19q-20 0 -32 -19t-19 -49t-9.5 -66t-3.5 -70h-233q-6 114 14 198.5t56.5 140.5t86 83.5t103.5 27.5q65 0 112.5 -28.5t70.5 -77.5
q14 20 35.5 39t47.5 34t54.5 24t56.5 9q35 0 68.5 -13t62.5 -37.5t51.5 -61t35.5 -84.5q16 18 26 43.5t16 54.5t8 60.5t2 62.5h254q0 -86 -22.5 -165.5t-62.5 -143t-95 -107.5t-121 -59h-196z" />
    <glyph glyph-name="maichattawalowleftthai" 
d="M-861 2142v-209h-307v209h-233l-2 242h233l2 205h307l-1 -205h233l2 -242h-234z" />
    <glyph glyph-name="maichattawalowleftthai" unicode="&#xf708;" 
d="M-861 2142v-209h-307v209h-233l-2 242h233l2 205h307l-1 -205h233l2 -242h-234z" />
    <glyph glyph-name="thanthakhatlowleftthai" 
d="M-692 2179q-151 0 -231.5 -58t-81.5 -184h-303q0 115 42.5 206.5t122.5 155.5t193.5 98t256.5 36z" />
    <glyph glyph-name="thanthakhatlowleftthai" unicode="&#xf709;" 
d="M-692 2179q-151 0 -231.5 -58t-81.5 -184h-303q0 115 42.5 206.5t122.5 155.5t193.5 98t256.5 36z" />
    <glyph glyph-name="maieklowrightthai" 
d="M-490 2445h327l3 -516h-324z" />
    <glyph glyph-name="maieklowrightthai" unicode="&#xf70a;" 
d="M-490 2445h327l3 -516h-324z" />
    <glyph glyph-name="maitholowrightthai" 
d="M-969 1942v249h-143v250h422v-250q81 1 143 21.5t104 54.5t63.5 78.5t21.5 95.5h299q0 -97 -41 -187t-123.5 -159.5t-207.5 -111t-292 -41.5h-246z" />
    <glyph glyph-name="maitholowrightthai" unicode="&#xf70b;" 
d="M-969 1942v249h-143v250h422v-250q81 1 143 21.5t104 54.5t63.5 78.5t21.5 95.5h299q0 -97 -41 -187t-123.5 -159.5t-207.5 -111t-292 -41.5h-246z" />
    <glyph glyph-name="maitrilowrightthai" 
d="M-650 1942q1 30 -2.5 66.5t-12 68t-22 52.5t-31.5 21q-20 0 -33 -20.5t-21.5 -51.5t-12 -67.5t-4.5 -68.5h-217q1 32 -2 68.5t-10.5 67.5t-20.5 51.5t-31 20.5q-20 0 -34 -21.5t-22 -53.5t-11.5 -68t-3.5 -65h-262q-7 120 15 207.5t63.5 145t97.5 85.5t118 28
q68 0 121.5 -28.5t88.5 -77.5q18 20 41.5 39t51.5 34t59.5 24t63.5 9q40 0 77.5 -13t70 -38t57 -62.5t38.5 -86.5q16 18 32 44t28 56.5t19.5 63.5t6.5 65h291q0 -84 -30.5 -166.5t-81 -150.5t-116 -115.5t-137.5 -62.5h-222z" />
    <glyph glyph-name="maitrilowrightthai" unicode="&#xf70c;" 
d="M-650 1942q1 30 -2.5 66.5t-12 68t-22 52.5t-31.5 21q-20 0 -33 -20.5t-21.5 -51.5t-12 -67.5t-4.5 -68.5h-217q1 32 -2 68.5t-10.5 67.5t-20.5 51.5t-31 20.5q-20 0 -34 -21.5t-22 -53.5t-11.5 -68t-3.5 -65h-262q-7 120 15 207.5t63.5 145t97.5 85.5t118 28
q68 0 121.5 -28.5t88.5 -77.5q18 20 41.5 39t51.5 34t59.5 24t63.5 9q40 0 77.5 -13t70 -38t57 -62.5t38.5 -86.5q16 18 32 44t28 56.5t19.5 63.5t6.5 65h291q0 -84 -30.5 -166.5t-81 -150.5t-116 -115.5t-137.5 -62.5h-222z" />
    <glyph glyph-name="maichattawalowrightthai" 
d="M-165 2146l1 -213h-307l-1 213h-242v250h238l1 209h311l-1 -209h241l-1 -250h-240z" />
    <glyph glyph-name="maichattawalowrightthai" unicode="&#xf70d;" 
d="M-165 2146l1 -213h-307l-1 213h-242v250h238l1 209h311l-1 -209h241l-1 -250h-240z" />
    <glyph glyph-name="thanthakhatlowrightthai" 
d="M-82 2179q-151 0 -231.5 -58t-81.5 -184h-299q0 115 42 206.5t121 155.5t192 98t256 36z" />
    <glyph glyph-name="thanthakhatlowrightthai" unicode="&#xf70e;" 
d="M-82 2179q-151 0 -231.5 -58t-81.5 -184h-299q0 115 42 206.5t121 155.5t192 98t256 36z" />
    <glyph glyph-name="maihanakatleftthai" 
d="M-1229 1937v402h311l-2 -144h1080l1 -258h-1390z" />
    <glyph glyph-name="maihanakatleftthai" unicode="&#xf710;" 
d="M-1229 1937v402h311l-2 -144h1080l1 -258h-1390z" />
    <glyph glyph-name="nikhahitleftthai" 
d="M-1081 2224q0 -23 9 -44t24.5 -36.5t36.5 -25t44 -9.5t44 9.5t37 25t25 36.5t9 44t-9.5 44t-25.5 36.5t-36.5 25t-43.5 9.5t-44 -9.5t-36.5 -25t-24.5 -36.5t-9 -44zM-1286 2224q0 66 24.5 124t67.5 101.5t101 69t124 25.5q64 0 122.5 -25.5t102.5 -69t70.5 -101.5
t26.5 -124t-26 -124t-70 -101.5t-102.5 -68.5t-122.5 -25q-66 0 -124 25t-101 68.5t-68 101.5t-25 124z" />
    <glyph glyph-name="nikhahitleftthai" unicode="&#xf711;" 
d="M-1081 2224q0 -23 9 -44t24.5 -36.5t36.5 -25t44 -9.5t44 9.5t37 25t25 36.5t9 44t-9.5 44t-25.5 36.5t-36.5 25t-43.5 9.5t-44 -9.5t-36.5 -25t-24.5 -36.5t-9 -44zM-1286 2224q0 66 24.5 124t67.5 101.5t101 69t124 25.5q64 0 122.5 -25.5t102.5 -69t70.5 -101.5
t26.5 -124t-26 -124t-70 -101.5t-102.5 -68.5t-122.5 -25q-66 0 -124 25t-101 68.5t-68 101.5t-25 124z" />
    <glyph glyph-name="maitaikhuleftthai" 
d="M-1433 2318q0 -12 3 -30.5t12.5 -36.5t28 -30.5t49.5 -12.5q49 0 73 40t22 111h217q-4 -71 19.5 -111t69.5 -40q28 0 44.5 11t25 31t10 47.5t-0.5 61.5h237q10 -107 -8 -183t-56.5 -124.5t-94.5 -71t-120 -22.5q-42 0 -78 11.5t-65 30.5t-50 44t-33 53q-16 -28 -42.5 -53
t-60 -44t-72.5 -30.5t-79 -11.5q-95 0 -158.5 34t-101 86.5t-53.5 116t-17 123.5q0 102 34.5 174.5t92.5 119.5t134.5 69t160.5 22h762l1 -237h-741q-57 0 -90 -15t-50 -37.5t-21 -48t-4 -47.5z" />
    <glyph glyph-name="maitaikhuleftthai" unicode="&#xf712;" 
d="M-1433 2318q0 -12 3 -30.5t12.5 -36.5t28 -30.5t49.5 -12.5q49 0 73 40t22 111h217q-4 -71 19.5 -111t69.5 -40q28 0 44.5 11t25 31t10 47.5t-0.5 61.5h237q10 -107 -8 -183t-56.5 -124.5t-94.5 -71t-120 -22.5q-42 0 -78 11.5t-65 30.5t-50 44t-33 53q-16 -28 -42.5 -53
t-60 -44t-72.5 -30.5t-79 -11.5q-95 0 -158.5 34t-101 86.5t-53.5 116t-17 123.5q0 102 34.5 174.5t92.5 119.5t134.5 69t160.5 22h762l1 -237h-741q-57 0 -90 -15t-50 -37.5t-21 -48t-4 -47.5z" />
    <glyph glyph-name="maiekupperleftthai" 
d="M-964 3117h307l6 -491h-312z" />
    <glyph glyph-name="maiekupperleftthai" unicode="&#xf713;" 
d="M-964 3117h307l6 -491h-312z" />
    <glyph glyph-name="maithoupperleftthai" 
d="M-1261 2621l1 250h-156l-4 250h422l4 -250q81 1 144.5 21.5t106.5 54.5t65 78.5t20 95.5h291q1 -97 -38.5 -187t-121.5 -159.5t-206.5 -111.5t-293.5 -42h-234z" />
    <glyph glyph-name="maithoupperleftthai" unicode="&#xf714;" 
d="M-1261 2621l1 250h-156l-4 250h422l4 -250q81 1 144.5 21.5t106.5 54.5t65 78.5t20 95.5h291q1 -97 -38.5 -187t-121.5 -159.5t-206.5 -111.5t-293.5 -42h-234z" />
    <glyph glyph-name="maitriupperleftthai" 
d="M-781 2621q-1 19 -3.5 50t-8.5 61t-16.5 52t-27.5 22t-27 -19t-15.5 -47t-7 -60.5t-1.5 -58.5h-217q-1 26 -3 58.5t-7.5 60.5t-15.5 47t-25 19q-17 0 -27.5 -22t-16 -52t-7 -61t-0.5 -50h-250q-8 111 11.5 192.5t58 135.5t90 80.5t108.5 26.5q59 0 107 -28t83 -75
q31 47 84 75t111 28q77 0 137 -44.5t86 -136.5q16 19 30 45.5t24 58t16 66t7 68.5h266q1 -50 -11.5 -103.5t-34.5 -105t-53 -99t-68 -85.5t-78.5 -64t-84.5 -35h-213z" />
    <glyph glyph-name="maitriupperleftthai" unicode="&#xf715;" 
d="M-781 2621q-1 19 -3.5 50t-8.5 61t-16.5 52t-27.5 22t-27 -19t-15.5 -47t-7 -60.5t-1.5 -58.5h-217q-1 26 -3 58.5t-7.5 60.5t-15.5 47t-25 19q-17 0 -27.5 -22t-16 -52t-7 -61t-0.5 -50h-250q-8 111 11.5 192.5t58 135.5t90 80.5t108.5 26.5q59 0 107 -28t83 -75
q31 47 84 75t111 28q77 0 137 -44.5t86 -136.5q16 19 30 45.5t24 58t16 66t7 68.5h266q1 -50 -11.5 -103.5t-34.5 -105t-53 -99t-68 -85.5t-78.5 -64t-84.5 -35h-213z" />
    <glyph glyph-name="maichattawaupperleftthai" 
d="M-661 2830l3 -209h-304l-3 209h-237l2 242h238l1 205h299l3 -205h233l-2 -242h-233z" />
    <glyph glyph-name="maichattawaupperleftthai" unicode="&#xf716;" 
d="M-661 2830l3 -209h-304l-3 209h-237l2 242h238l1 205h299l3 -205h233l-2 -242h-233z" />
    <glyph glyph-name="thanthakhatupperleftthai" 
d="M-353 2671q-151 0 -229.5 -58t-75.5 -184h-303q-2 115 40 206t121 155t192 98.5t254 36.5z" />
    <glyph glyph-name="thanthakhatupperleftthai" unicode="&#xf717;" 
d="M-353 2671q-151 0 -229.5 -58t-75.5 -184h-303q-2 115 40 206t121 155t192 98.5t254 36.5z" />
    <glyph glyph-name="uni00A0" unicode="&#xa0;" horiz-adv-x="496" 
 />
    <glyph glyph-name="cent" unicode="&#xa2;" horiz-adv-x="1544" 
d="M1130 963q-9 58 -29 101t-48.5 73t-65 48t-78.5 27l3 -917q97 25 150 100.5t76 202.5h344q-51 -267 -188.5 -418.5t-380.5 -179.5l-2 -299h-221l2 299q-152 15 -266 76t-190 157t-113.5 223.5t-36.5 276.5q-1 149 35 281t111 234.5t189.5 169.5t270.5 85l-4 266h221
l3 -262q110 -12 206 -49.5t169 -104t120 -163.5t59 -227h-336zM422 733q-2 -74 13.5 -144t49 -128.5t85 -102t121.5 -63.5l-1 909q-77 -21 -128.5 -67.5t-82.5 -109.5t-44 -138.5t-13 -155.5z" />
    <glyph glyph-name="sterling" unicode="&#xa3;" horiz-adv-x="1544" 
d="M207 1085q-41 77 -68.5 168.5t-26.5 204.5q0 91 25.5 170t71 144t109 115.5t139.5 85.5t161.5 53t175.5 18q164 0 294.5 -48.5t220.5 -145t137 -242t45 -338.5h-327q-4 117 -27 208t-67 154t-109 96t-152 33q-77 0 -141.5 -24t-111 -66t-72.5 -100t-26 -125
q0 -51 9.5 -99t26 -93.5t37.5 -87.5t45 -81h463v-213h-353q11 -34 19 -74t9 -77q1 -60 -12 -116t-35.5 -106.5t-53 -95.5t-63.5 -84q26 7 49 10t51 3q89 0 154 -15t117 -30q46 -12 78.5 -21t57 -14t44 -7.5t39.5 -2.5q28 0 60 10t65 27t64.5 39t58.5 47l180 -250
q-53 -46 -111.5 -76t-118.5 -48t-119.5 -25t-116.5 -7q-42 0 -79 4.5t-72 11.5t-69 16.5t-70 20.5q-76 25 -141 39.5t-133 14.5q-71 0 -141.5 -30.5t-146.5 -76.5l-192 246q66 38 125.5 90t104.5 112.5t71.5 128t25.5 136.5q1 23 -2.5 49t-11 52.5t-18.5 52t-23 46.5h-250
v213h127z" />
    <glyph glyph-name="yen" unicode="&#xa5;" horiz-adv-x="1651" 
d="M261 406l-2 258h394v98l-33 61h-361l-1 254h222l-486 922h412l433 -881l411 881h402l-484 -922h233l1 -254h-369l-32 -61v-98h401l2 -258h-401l1 -406h-349l-1 406h-393z" />
    <glyph glyph-name="copyright" unicode="&#xa9;" horiz-adv-x="2228" 
d="M64 987q0 145 37.5 278.5t106.5 248.5t165 209t212 160.5t249 103t275 36.5t274.5 -36.5t248 -103t210.5 -160.5t163.5 -209t106 -248.5t37.5 -278.5q0 -149 -37.5 -284t-106 -250t-164 -208t-211 -158.5t-248 -100.5t-274.5 -35q-143 0 -275.5 35t-248.5 100.5
t-212 158.5t-164 208t-106 249.5t-38 284.5zM306 987q0 -180 59.5 -332.5t165.5 -264.5t253 -175t322 -63q112 0 215.5 28.5t193 81.5t163 128t125.5 167.5t80.5 201t28.5 228.5t-28 228t-80 200t-124.5 166t-162 126t-192.5 80t-216 28q-175 0 -322.5 -62t-254 -172.5
t-166.5 -262t-60 -331.5zM1668 819q-26 -114 -76 -202t-118.5 -149t-153.5 -92.5t-182 -31.5q-141 0 -254.5 48.5t-193.5 134t-123 202.5t-43 254q0 138 41.5 254t119.5 200t189.5 130.5t251.5 46.5q103 0 192 -27.5t159 -83.5t118.5 -141.5t70.5 -202.5h-221
q-13 54 -41 101t-68.5 82t-92 55t-111.5 20q-89 0 -159 -32.5t-117.5 -90t-72 -136.5t-22.5 -171q0 -84 25.5 -163t74.5 -140t119.5 -98t159.5 -37q57 0 107.5 19t90.5 54.5t67.5 85t37.5 111.5h225z" />
    <glyph glyph-name="guillemotleft" unicode="&#xab;" horiz-adv-x="1286" 
d="M128 922l438 344l3 -283l-270 -213l269 -209v-287l-439 349zM672 922l438 344l4 -283l-274 -213l273 -209l-1 -287l-438 349z" />
    <glyph glyph-name="registered" unicode="&#xae;" horiz-adv-x="2216" 
d="M64 987q0 145 37.5 278.5t106.5 248.5t165 209t212 160.5t249 103t275 36.5t274.5 -36.5t248 -103t210.5 -160.5t163.5 -209t106 -248.5t37.5 -278.5q0 -149 -37.5 -284t-106 -250t-164 -208t-211 -158.5t-248 -100.5t-274.5 -35q-143 0 -275.5 35t-248.5 100.5
t-212 158.5t-164 208t-106 249.5t-38 284.5zM306 987q0 -180 59.5 -332.5t165.5 -264.5t253 -175t322 -63q112 0 215.5 28.5t193 81.5t163 128t125.5 167.5t80.5 201t28.5 228.5t-28 228t-80 200t-124.5 166t-162 126t-192.5 80t-216 28q-175 0 -322.5 -62t-254 -172.5
t-166.5 -262t-60 -331.5zM1066 1053q46 0 90.5 4t79 19t56 44t21.5 80q-1 40 -19.5 65.5t-47 40t-63.5 20t-69 5.5h-180l-3 -278h135zM1139 1536q209 0 310 -81t102 -259q-1 -60 -19 -111.5t-50.5 -92.5t-77.5 -70.5t-100 -44.5l278 -443h-266l-265 418h-119l-1 -418h-242
v1102h450z" />
    <glyph glyph-name="guillemotright" unicode="&#xbb;" horiz-adv-x="1286" 
d="M1153 623l-438 -349l1 287l263 209l-262 213l-4 283l439 -344zM608 623l-438 -349l1 287l267 209l-266 213l-4 283l439 -344z" />
    <glyph glyph-name="onequarter" unicode="&#xbc;" horiz-adv-x="2335" 
d="M1897 1999l-1139 -1999h-258l1139 1999h258zM132 1729q62 3 117 14.5t98.5 36.5t75 67t46.5 107h209v-1213h-238l-1 815q-59 -27 -131.5 -38.5t-172.5 -14.5zM1828 475l2 336l-260 -336h258zM2230 475l2 -221h-164v-254h-237l-1 254h-524l-3 205l576 758h189l-2 -742h164
z" />
    <glyph glyph-name="onehalf" unicode="&#xbd;" horiz-adv-x="2335" 
d="M1365 729q1 103 32 191.5t88.5 153t139.5 101.5t185 37q88 0 166.5 -26t137.5 -74t93.5 -117t34.5 -155q1 -91 -36.5 -162.5t-95 -128.5t-126 -101t-130.5 -79q-22 -12 -49.5 -27.5t-56.5 -35t-57 -42.5t-49 -51h585l1 -213h-889q7 120 38.5 204t80 145.5t111 105
t131.5 82.5q68 40 121.5 73t90.5 67.5t56.5 73t19.5 89.5q-1 74 -48.5 114.5t-128.5 40.5q-51 0 -87 -22t-59 -59t-34 -85t-12 -100h-254zM1811 1999l-1139 -1999h-258l1139 1999h258zM132 1729q62 3 117 14.5t98.5 36.5t75 67t46.5 107h209v-1213h-238l-1 815
q-59 -27 -131.5 -38.5t-172.5 -14.5z" />
    <glyph glyph-name="threequarters" unicode="&#xbe;" horiz-adv-x="2335" 
d="M583 1475q34 0 67 8t59 24t42.5 40.5t16.5 58.5q-1 34 -15.5 59t-37.5 42t-53 25.5t-62 8.5q-49 0 -82.5 -15.5t-53.5 -43.5t-28 -67t-7 -87h-254q7 101 37.5 181t83.5 135.5t129 84.5t174 29q90 0 167 -21.5t132.5 -65.5t87.5 -110t32 -155q0 -59 -33 -116t-90 -97
q87 -44 130.5 -117t45.5 -166q0 -97 -39 -169t-104.5 -120t-150 -72t-174.5 -24q-97 0 -180.5 26.5t-145.5 80.5t-97 136.5t-35 194.5h258q2 -58 13.5 -100t35.5 -69t61 -39.5t89 -12.5q40 0 78 10.5t68.5 31t49.5 50t20 68.5q-1 48 -20 80t-49 51.5t-68.5 28t-78.5 8.5h-77
l1 205h57zM1869 475l2 336l-260 -336h258zM2271 475l2 -221h-164v-254h-237l-1 254h-524l-3 205l576 758h188l-1 -742h164zM2057 1999l-1144 -1999h-254l1140 1999h258z" />
    <glyph glyph-name="multiply" unicode="&#xd7;" horiz-adv-x="1434" 
d="M540 750l-498 532l188 180l487 -520l492 520l189 -180l-501 -532l502 -529l-187 -180l-492 520l-487 -520l-190 180z" />
    <glyph glyph-name="divide" unicode="&#xf7;" horiz-adv-x="1667" 
d="M621 201q0 43 17 82t45.5 69t66 48t79.5 18q43 0 81.5 -18t68 -48t46.5 -69t17 -82q1 -39 -16 -75t-45.5 -64t-66 -45t-78.5 -17q-42 0 -81 16t-69 43t-48 63.5t-17 78.5zM621 1298q0 43 17 81.5t45.5 68t66 46.5t79.5 17q43 0 81.5 -17t68 -46.5t47 -68t17.5 -81.5
q-1 -41 -18 -79t-46 -66.5t-66.5 -45.5t-79.5 -17t-80.5 17t-68 45.5t-47 66.5t-16.5 79zM1560 885l4 -267h-1467l-3 267h1466z" />
    <glyph glyph-name="kokaithai" unicode="&#xe01;" horiz-adv-x="1769" 
d="M835 1430q-104 1 -181.5 -22.5t-131 -59.5t-84 -77t-38.5 -75q25 -23 46.5 -54.5t37.5 -69t24.5 -80t7.5 -87.5l4 -905h-336l-1 909q-1 34 -7 69t-21 68.5t-42 63.5t-70 53q15 68 45 135t76.5 128.5t110 114.5t146.5 92t186 61t228 22q148 0 263.5 -27t202 -75.5
t146 -114.5t96 -144.5t52.5 -165.5t16 -177l3 -1012h-340l-5 1040q0 71 -21.5 140t-72 124t-134 89.5t-206.5 36.5z" />
    <glyph glyph-name="khokhaithai" unicode="&#xe02;" horiz-adv-x="1556" 
d="M569 0l-316 1409h-217v270h512l270 -1310l271 1310h348l-372 -1679h-496z" />
    <glyph glyph-name="khokhuatthai" unicode="&#xe03;" horiz-adv-x="1597" 
d="M430 1098q24 17 50 37t49 43.5t41.5 51.5t26.5 60q-29 -21 -71.5 -33t-85.5 -12q-29 0 -68.5 6t-81.5 23t-83.5 47t-74 78.5t-52.5 117t-19 162.5h319q-1 -32 5.5 -61.5t20.5 -52t35.5 -36t50.5 -13.5q28 0 50.5 12t38 34t24.5 52t9 65h327l1 -348q-1 -49 -16.5 -89.5
t-45.5 -80.5t-74 -83.5t-102 -98.5q-39 -40 -67 -74t-46 -67t-27.5 -69t-10.5 -81l3 -106q0 -78 20 -138.5t57 -102t88 -62.5t113 -21q57 0 106 15.5t85.5 51t57 92.5t19.5 140l3 1122h336l-3 -1147q1 -147 -49 -255t-134 -178.5t-194 -105t-230 -34.5q-123 0 -235 36.5
t-197.5 109t-136.5 179.5t-52 248v78q0 68 3 120.5t12 94.5t24.5 76.5t40 66t59 63t81.5 67.5z" />
    <glyph glyph-name="khokhwaithai" unicode="&#xe04;" horiz-adv-x="1786" 
d="M492 0h-336l-3 971q0 94 13.5 186t47 174.5t89 153t137.5 122t194 80.5t258 29q145 0 256 -29t193 -80.5t136.5 -122t88 -153t47.5 -174.5t15 -186l2 -971h-340l-2 1008q0 47 -8 95.5t-27 94t-50 85.5t-75 70t-103 47t-135 17t-135 -17t-103.5 -47t-75 -70t-50 -85.5
t-28 -94t-8.5 -95.5l-2 -226q46 66 97 112.5t113 76t137.5 42t171.5 11.5l-3 -295q-147 0 -246 -38.5t-159 -111.5t-85.5 -177t-25.5 -234z" />
    <glyph glyph-name="khokhonthai" unicode="&#xe05;" horiz-adv-x="1802" 
d="M618 1368q-38 -21 -63 -60.5t-40 -87.5t-21 -100t-6 -100v-238q46 66 97 112.5t113 76t137.5 42t171.5 11.5l-3 -295q-147 0 -246 -38.5t-159 -111.5t-85.5 -177t-25.5 -234l4 -168h-336l-1 987q0 82 9.5 162.5t33.5 154.5t64 139.5t100 118t142 89t190 53.5l202 -221
l195 221q112 -16 196.5 -52t146 -88t102 -117.5t65 -140t34.5 -155.5t10 -164l2 -987h-340l-4 1020q1 45 -5.5 96.5t-22.5 100.5t-43.5 89.5t-68.5 61.5l-208 -217q-8 -9 -20 -17t-36 -8q-22 0 -37 8t-26 17z" />
    <glyph glyph-name="khorakhangthai" unicode="&#xe06;" horiz-adv-x="1782" 
d="M417 1081q23 22 46.5 42t45 43.5t38.5 51t28 64.5q-31 -15 -65 -24t-71 -9q-29 0 -68 5.5t-81.5 22t-83.5 46.5t-73.5 77.5t-52.5 116t-19 162.5h319q-1 -32 5.5 -61.5t20.5 -52t35.5 -36t50.5 -13.5q28 0 50.5 12t38 34t24.5 52t9 65h327v-344q0 -65 -21 -116.5
t-54.5 -96t-77.5 -84.5t-91 -80q-42 -35 -69.5 -63.5t-43.5 -60.5t-22.5 -74t-5.5 -105q-1 -75 29 -146t86.5 -125.5t136.5 -88t180 -33.5q66 0 120.5 21t93 59t59.5 92.5t21 122.5l3 1122h340l-1 -1093q0 -138 -28.5 -253t-97.5 -197t-184 -127.5t-287 -45.5
q-158 0 -280.5 53t-207.5 164l-2 -180h-324l-1 598q-1 72 1.5 125t10.5 94t22.5 73.5t37.5 62t56 60t77 68.5z" />
    <glyph glyph-name="ngonguthai" unicode="&#xe07;" horiz-adv-x="1323" 
d="M650 311q11 -34 33.5 -49.5t49.5 -15.5q44 0 70 24t28 58l-3 1089h-233l2 262h570l-3 -1298q1 -112 -33 -192t-93 -131t-138.5 -75t-170.5 -24t-159 23t-118 65t-85.5 101t-61.5 131l-266 729h352z" />
    <glyph glyph-name="chochanthai" unicode="&#xe08;" horiz-adv-x="1622" 
d="M1484 1126q-1 -65 -20 -151t-49.5 -183.5t-70 -202t-82 -208t-86.5 -201t-82 -180.5h-422l-270 745h-225v267h488l227 -660q37 89 78 190t75.5 200.5t57.5 192.5t26 167q2 164 -83.5 246t-255.5 82q-136 0 -215 -62t-111 -201h-369q21 124 78.5 225t149 172t216 109.5
t281.5 38.5q78 0 158 -11.5t154.5 -38t139.5 -70t113 -108.5t74.5 -153.5t24.5 -204.5z" />
    <glyph glyph-name="chochingthai" unicode="&#xe09;" horiz-adv-x="1769" 
d="M113 1139q12 114 59.5 218t138.5 184t227.5 127.5t325.5 47.5q149 0 262.5 -28t197 -78t139 -119t89 -150.5t47.5 -172.5t15 -185v-983h-324l-11 188q-90 -120 -217 -174.5t-300 -54.5q-177 0 -294 47.5t-187 133.5t-99 206t-29 264l-1 328h336l-1 -360q1 -69 24 -126
t64.5 -97.5t100 -62.5t130.5 -22q118 0 206 37.5t145.5 104t86 157.5t27.5 197v250q0 72 -19 143.5t-66 129t-126 93t-199 35.5q-107 0 -180 -25.5t-118.5 -66t-69 -89.5t-31.5 -97h-349z" />
    <glyph glyph-name="chochangthai" unicode="&#xe0a;" horiz-adv-x="1581" 
d="M1083 668q0 94 -21.5 148.5t-61.5 83t-97.5 36.5t-129.5 10l-3 246q98 0 164.5 30.5t107 91.5t58 152.5t18.5 212.5h340q-1 -92 -14 -183t-46 -171.5t-89 -144.5t-141 -103q60 -18 102 -46.5t70 -63.5t44 -74t24 -78.5t9.5 -77t1.5 -69.5l-1 -136q1 -98 -23 -179
t-66.5 -144.5t-101.5 -110.5t-128.5 -78t-147 -46t-157.5 -15q-123 0 -237.5 36.5t-203 109t-142.5 179.5t-55 248l1 136q0 64 4 112t11.5 85.5t20.5 68t31.5 59.5t43.5 59.5t58 69.5q24 31 43.5 56.5t33.5 48.5t23 46.5t13 49.5q4 25 -1.5 46t-19 36.5t-33 24t-44.5 8.5
q-28 0 -55 -4t-59 -12.5t-71.5 -22t-90.5 -31.5l2 262q51 18 100 32t91 23.5t75.5 14t53.5 4.5q95 0 172.5 -22.5t130.5 -68.5t77.5 -115t13.5 -163q-7 -46 -24 -87t-44 -85.5t-65 -97.5t-87 -123q-26 -37 -39 -66.5t-19 -58t-7.5 -58.5t-4.5 -67l3 -110q0 -78 23.5 -138.5
t64.5 -102t96.5 -62.5t118.5 -21q60 0 112 15.5t90.5 51t60.5 92.5t21 140z" />
    <glyph glyph-name="sosothai" unicode="&#xe0b;" horiz-adv-x="1683" 
d="M601 582q0 -78 23.5 -138.5t64 -102t95 -62.5t115.5 -21q60 0 112 15.5t90.5 51t60.5 92.5t22 140l1 107q0 89 -21.5 143.5t-60.5 85t-92.5 41t-118.5 12.5l-3 246q91 6 155 39.5t104 94.5t58 149.5t18 203.5h336q0 -92 -13.5 -183t-46.5 -171.5t-89 -144.5t-141 -103
q90 -29 141.5 -79t77 -107.5t31.5 -117.5t5 -109l-1 -132q1 -98 -23.5 -179t-67.5 -144.5t-102 -110.5t-129 -78t-147.5 -46t-157.5 -15q-82 0 -161 16.5t-149.5 48.5t-130.5 80.5t-103.5 112t-68.5 142.5t-25 173q0 100 3 179.5t20 147t54.5 128t107.5 123.5
q14 14 32.5 34.5t37 45.5t34.5 51.5t24 52.5q-35 -24 -77 -36.5t-88 -12.5q-29 0 -68.5 6t-81.5 23t-83.5 47t-74 78.5t-52.5 117t-19 162.5h320q-1 -32 6 -61.5t21 -52t35.5 -36t48.5 -13.5q28 0 50.5 12t38.5 34t24.5 52t8.5 65h328v-348q-1 -49 -13 -89.5t-36.5 -80
t-62 -82t-88.5 -96.5q-39 -40 -61.5 -89t-33 -102t-12.5 -107t-1 -103z" />
    <glyph glyph-name="chochoethai" unicode="&#xe0c;" horiz-adv-x="2650" 
d="M1543 737q0 -103 25 -190.5t73 -151.5t118 -100.5t160 -36.5q54 0 97 15.5t73 51t46 92.5t15 140l4 1122h340l-2 -1093q0 -149 -27 -266t-89 -197t-165.5 -122t-256.5 -42q-71 0 -133 16.5t-115.5 46t-97.5 70t-78 88.5l-2 -180h-324l-5 1040q1 69 -19 138t-66.5 124.5
t-123 90.5t-188.5 37q-91 1 -161.5 -19.5t-120.5 -54.5t-80 -76t-40 -84q62 -43 90 -121t27 -174l2 -627h180l1 -274h-516l-4 905q0 35 -5 71.5t-20 70t-42 63.5t-70 53q15 68 45.5 135t76 128.5t108 114.5t141.5 92t175.5 61t212.5 22q141 0 251 -27t192.5 -75.5t139 -115
t91.5 -145t50.5 -166.5t15.5 -179z" />
    <glyph glyph-name="yoyingthai" unicode="&#xe0d;" horiz-adv-x="2650" 
d="M1470 0q15 -55 47.5 -97t74.5 -70.5t90 -43t94 -14.5q110 0 184.5 38t119 98.5t62.5 135t16 146.5l2 106q-35 -45 -81 -85.5t-100 -71.5t-115 -49.5t-127 -18.5q-154 0 -257 43t-165 125.5t-88 203t-25 275.5l-1 295q0 72 -20 143t-66.5 128t-123.5 92.5t-191 37.5
q-91 1 -161 -19.5t-119.5 -55t-79 -78.5t-39.5 -88q62 -44 90 -124t28 -180v-598h180l1 -274h-516l-2 877q0 35 -6 72t-21 71.5t-42 66t-69 56.5q15 69 44.5 138.5t75.5 133.5t108 119t141.5 95.5t176 63.5t212.5 23q141 0 251 -28t192 -78t139 -119t92 -150.5t51 -172.5
t17 -185l-3 -295q0 -86 16 -144.5t46.5 -94.5t73.5 -52t97 -16q91 0 161.5 38.5t118.5 105t73 157t25 195.5l2 802h340v-1331q0 -121 -12.5 -212.5t-32.5 -160.5t-46 -118t-53 -86l3 4q-51 -75 -115 -127.5t-137.5 -85.5t-154 -47.5t-165.5 -14.5q-115 0 -221.5 30.5
t-191 92t-142 155.5t-75.5 222h319z" />
    <glyph glyph-name="dochadathai" unicode="&#xe0e;" horiz-adv-x="1839" 
d="M90 0l-2 274h164v635q-1 34 -6.5 69t-20.5 68.5t-42.5 63.5t-70.5 53q15 68 45.5 135t76.5 128.5t110 114.5t147 92t186 61t228 22q148 0 263.5 -27t202 -75.5t145.5 -114.5t96 -144.5t52.5 -165.5t15.5 -177l3 -1590h-328q-23 37 -56.5 71t-82 60.5t-115 42t-155.5 15.5
q-72 0 -136 -16t-122.5 -46t-112.5 -74.5t-106 -101.5l1 324q37 40 88 74t112.5 59.5t132 40t147.5 14.5q72 0 132 -10t108.5 -25.5t86 -33.5t63.5 -33l-1 1257q0 71 -21.5 140t-72.5 124t-134.5 89.5t-206.5 36.5q-103 1 -180.5 -22.5t-131 -59.5t-84 -77t-38.5 -75
q25 -23 46.5 -54.5t37 -69t24 -80t7.5 -87.5l5 -905h-500z" />
    <glyph glyph-name="topatakthai" unicode="&#xe0f;" horiz-adv-x="1839" 
d="M1683 -578h-336q-6 29 -19.5 63.5t-36 64t-53.5 49.5t-73 20q-41 0 -71.5 -19.5t-51 -48.5t-30 -63.5t-9.5 -65.5h-283q0 22 -6.5 56t-24 66t-47 55.5t-75.5 23.5q-37 0 -62.5 -18.5t-42 -48t-23.5 -65t-6 -69.5h-270q-1 120 32.5 206.5t88 143t122 83t135.5 26.5
q99 0 176 -40.5t127 -114.5q28 35 63 62t72 45t74.5 27t71.5 9q74 0 126.5 -22t90.5 -56l-3 1249q0 71 -21.5 140t-72.5 124t-134.5 89.5t-206.5 36.5q-103 1 -180.5 -22.5t-131 -59.5t-84 -77t-38.5 -75q25 -23 46.5 -54.5t37 -69t24 -80t7.5 -87.5l5 -905h-500l-2 274h164
v635q-1 34 -6.5 69t-20.5 68.5t-42.5 63.5t-70.5 53q15 68 45.5 135t76.5 128.5t110 114.5t147 92t186 61t228 22q148 0 263.5 -27t202 -75.5t145.5 -114.5t96 -144.5t52.5 -165.5t15.5 -177z" />
    <glyph glyph-name="thothanthai" unicode="&#xe10;" horiz-adv-x="1614" 
d="M637 -590q0 29 -7.5 55.5t-21 46t-32.5 31t-44 11.5q-26 0 -44 -12t-29.5 -32t-17 -46t-5.5 -54h-254q-5 82 9 143.5t40 106.5t61.5 74t72.5 46.5t73 24.5t64 7q65 0 115 -22.5t83 -59.5q49 46 97 64t82 18q49 0 85 -13t70 -41v115h340v-463h-331q-9 71 -37 107.5
t-81 36.5q-24 0 -42.5 -11t-30.5 -30.5t-17.5 -45.5t-4.5 -57h-193zM1484 1126q-1 -64 -19 -149.5t-48.5 -183t-70.5 -202.5t-83 -208.5t-87 -201.5t-82 -181h-422l-271 750h-225l1 262h488l226 -656q38 88 79 187.5t75.5 199t57.5 192.5t26 167q2 164 -83.5 246t-255.5 82
q-137 0 -221.5 -71.5t-117.5 -207.5h-368q21 124 80.5 228t154 179t221.5 116.5t284 41.5q71 0 141.5 -9.5t136.5 -31.5q34 6 59.5 23.5t42.5 41.5t25.5 52t8.5 55h361q-1 -48 -13 -99.5t-38.5 -99t-68 -87t-101.5 -62.5q54 -65 81.5 -157t25.5 -216z" />
    <glyph glyph-name="thonangmonthothai" unicode="&#xe11;" horiz-adv-x="1782" 
d="M938 1561q64 46 125 76.5t115.5 49t101.5 26t83 7.5q83 0 134 -26.5t79 -74.5t38 -116t11 -151l1 -1352h-340l-3 1245q1 32 0 60.5t-5.5 49.5t-13 33.5t-22.5 12.5q-62 0 -192 -109.5t-324 -333.5q-34 -40 -60 -70.5t-45.5 -57.5t-33 -52.5t-21.5 -54.5t-12.5 -64
t-4.5 -81l4 -578h-340l-1 545q0 63 1 111.5t6.5 87t16.5 71.5t31 66.5t51 70.5t75 84q53 55 90.5 93.5t62.5 67t39 51t20 46.5q-15 -8 -36 -16.5t-43.5 -15.5t-45 -12t-40.5 -5q-29 0 -68 5.5t-81.5 22t-83.5 46.5t-73.5 78t-52.5 117.5t-20 164.5h319q0 -34 6.5 -63.5
t20 -51.5t35 -35t50.5 -13q56 0 88.5 44.5t33.5 118.5h327z" />
    <glyph glyph-name="thophuthaothai" unicode="&#xe12;" horiz-adv-x="2720" 
d="M1612 737q0 -103 25 -190.5t73 -151.5t118 -100.5t161 -36.5q55 0 98.5 15.5t73 51t45 92.5t14.5 140l3 1122h340l-1 -1093q0 -149 -27 -266t-89.5 -197t-165.5 -122t-257 -42q-71 0 -132.5 16.5t-115 46t-97.5 70t-79 88.5l3 -180h-328l-3 1069q0 43 -3 89t-15 87.5
t-35.5 75t-63.5 51.5l-215 -205q-5 -6 -19.5 -15t-36.5 -9q-21 0 -38 7.5t-25 16.5l-216 209q-34 -20 -56 -55t-35 -77t-18.5 -87.5t-5.5 -87.5l1 -618q56 71 125 150t132 157h-118l-1 254h487l1 -234l-641 -778h-319l-4 1036q0 79 9 154.5t31 143.5t60 127.5t96.5 107
t139.5 81t190 50.5l205 -213l193 213q111 -15 194.5 -47.5t143 -79.5t97.5 -107t60.5 -128.5t30.5 -145t8 -156.5z" />
    <glyph glyph-name="nonenthai" unicode="&#xe13;" horiz-adv-x="2650" 
d="M2494 0h-327l-6 180q-36 -48 -81 -88.5t-98 -70t-114.5 -46t-130.5 -16.5q-154 0 -257 42t-165 122t-87.5 197t-25.5 266l-3 454q1 69 -19 138t-66.5 124.5t-123 90.5t-188.5 37q-91 1 -161 -19t-120 -53.5t-80 -76t-41 -85.5q62 -43 90 -121t27 -174l2 -627h180l1 -274
h-516l-4 905q0 35 -5 71.5t-20 70t-42 63.5t-70 53q15 68 45.5 135t76 128.5t108 114.5t141.5 92t175.5 61t212.5 22q141 0 251 -27t192.5 -75.5t139 -115t91.5 -145t50.5 -166.5t15.5 -179l-2 -451q1 -83 17.5 -140t47.5 -92.5t74 -51t97 -15.5q91 0 161.5 36.5
t118.5 100.5t72.5 151.5t24.5 190.5l1 942h340v-1679z" />
    <glyph glyph-name="dodekthai" unicode="&#xe14;" horiz-adv-x="1802" 
d="M772 758h-131l-1 258h508l1 -238l-674 -778h-319l-1 1004q-1 90 13 177.5t47 167t89 146.5t139 116.5t196 77t262 27.5q146 0 258 -27.5t194.5 -77t138 -116.5t90 -146.5t49 -167t15.5 -177.5l1 -1004h-340l-4 1036q1 69 -16 139.5t-62 127t-123.5 92t-201.5 35.5
q-83 0 -145.5 -16.5t-108.5 -44.5t-76 -66.5t-48 -82t-26 -91t-8 -93.5v-598z" />
    <glyph glyph-name="totaothai" unicode="&#xe15;" horiz-adv-x="1815" 
d="M475 0h-319l-3 1012q-1 118 23.5 231t86.5 206.5t168 159.5t268 91l209 -209l192 209q167 -22 275.5 -87t171 -159t86.5 -208t23 -234l3 -1012h-336l-5 1040q1 42 -8 91t-27 95.5t-45 85.5t-64 60l-211 -205q-10 -9 -23 -16.5t-32 -7.5q-22 0 -38.5 7.5t-24.5 16.5
l-216 209q-42 -20 -69 -57.5t-43 -84t-22.5 -97.5t-7.5 -97l1 -598l284 316h-131l-1 254h512l1 -234z" />
    <glyph glyph-name="thothungthai" unicode="&#xe16;" horiz-adv-x="1737" 
d="M519 274h180l1 -274h-516l-1 909q-1 34 -7 69t-21 68.5t-42 63.5t-70 53q15 68 44 135t73.5 128.5t106 114.5t142.5 92t183 61t227 22q148 0 262.5 -27t199 -75.5t141.5 -114.5t92 -144.5t49.5 -165.5t14.5 -177l3 -1012h-336l-5 1040q0 71 -19.5 140t-68 124t-130 89.5
t-204.5 36.5q-105 1 -180 -23t-125 -60t-77 -77.5t-36 -73.5q31 -21 53 -52t36.5 -68.5t21 -81t5.5 -89.5z" />
    <glyph glyph-name="thothahanthai" unicode="&#xe17;" horiz-adv-x="1769" 
d="M483 1679l2 -204q88 120 216 182.5t301 62.5q177 0 294 -47.5t187 -133.5t99 -206t29 -264l3 -1069h-336l-2 1102q-1 69 -23 125.5t-62.5 97t-98.5 62.5t-130 22q-119 0 -206.5 -37.5t-145.5 -104t-87 -157.5t-30 -197l3 -913h-340l-1 1679h328z" />
    <glyph glyph-name="thothongthai" unicode="&#xe18;" horiz-adv-x="1679" 
d="M488 844l1 -352q0 -68 32 -114t81.5 -74.5t111 -41t121.5 -12.5q55 0 117.5 10t115 37t87 74t34.5 121q0 40 -6 72.5t-23 60t-48 53t-81 50t-121.5 51t-169.5 57.5q-80 24 -155.5 48t-141 51t-120 59.5t-93 75.5t-58.5 97.5t-18 126.5q2 77 29.5 138t73 107.5t106.5 79
t130.5 53.5t144.5 30.5t149 9.5q150 0 278.5 -30.5t222 -97.5t146.5 -173t53 -256h-340q-1 75 -25 128t-68.5 86.5t-107.5 49t-141 15.5q-63 0 -120 -5.5t-100 -19.5t-68.5 -37.5t-25.5 -60.5q-1 -26 24 -50.5t65 -47.5t89.5 -43t98.5 -36.5t91.5 -29t68.5 -19.5
q98 -30 181.5 -59t150.5 -63t118.5 -76.5t86 -98.5t51.5 -128.5t17 -167.5q-1 -94 -27.5 -169.5t-73.5 -134t-112 -100.5t-142 -69t-163.5 -39.5t-176.5 -12.5q-91 0 -177 13t-162 40t-139.5 69.5t-109.5 100.5t-71.5 133.5t-25.5 168.5l-1 352h336z" />
    <glyph glyph-name="nonuthai" unicode="&#xe19;" horiz-adv-x="1769" 
d="M1286 0l-7 205q-89 -121 -216.5 -183.5t-300.5 -62.5q-177 0 -294 47.5t-187 133.5t-99 206t-29 264l2 1069h336l-4 -1101q1 -69 24 -126t64.5 -97.5t100 -62.5t130.5 -22q118 0 206 37.5t145.5 104t86 157.5t27.5 197l2 913h340l1 -1679h-328z" />
    <glyph glyph-name="bobaimaithai" unicode="&#xe1a;" horiz-adv-x="1769" 
d="M882 262q114 0 189 37.5t120 97t63.5 133.5t18.5 146v1003h340l-1 -979q0 -94 -14 -185t-46.5 -173t-86.5 -151.5t-134.5 -120t-191 -79t-255.5 -28.5q-146 0 -257.5 29t-192.5 80.5t-135 122t-86.5 153.5t-46.5 175t-14 186l3 970h336v-1003q0 -72 18.5 -146
t63.5 -133.5t120 -97t189 -37.5z" />
    <glyph glyph-name="poplathai" unicode="&#xe1b;" horiz-adv-x="1769" 
d="M882 262q114 0 189 37.5t120 97t63.5 133.5t18.5 146v1737h340l-1 -1713q0 -94 -14 -185t-46.5 -173t-86.5 -151.5t-134.5 -120t-191 -79t-255.5 -28.5q-146 0 -257.5 29t-192.5 80.5t-135 122t-86.5 153.5t-46.5 175t-14 186l3 970h336v-1003q0 -72 18.5 -146
t63.5 -133.5t120 -97t189 -37.5z" />
    <glyph glyph-name="phophungthai" unicode="&#xe1c;" horiz-adv-x="1896" 
d="M155 1679h557l-3 -274h-222l2 -877q1 -75 10 -128t26 -86t43.5 -48.5t61.5 -15.5q54 0 83.5 28t43 77t16 114.5t2.5 140.5l1 267h335v-267q0 -75 4 -140.5t20 -114.5t47.5 -77t86.5 -28q34 0 59.5 15.5t42 48.5t25 86t7.5 128l1 1151h336l-2 -1204q0 -131 -30 -226.5
t-85.5 -158t-133.5 -93t-175 -30.5q-121 0 -217 50t-153 143q-47 -99 -134 -146t-217 -47q-100 0 -181.5 30.5t-139 93t-88.5 158t-31 226.5z" />
    <glyph glyph-name="fofathai" unicode="&#xe1d;" horiz-adv-x="1896" 
d="M155 1679h557l-3 -274h-222l2 -877q1 -75 10 -128t26 -86t43.5 -48.5t61.5 -15.5q54 0 83.5 28t43 77t16 114.5t2.5 140.5l1 267h335v-267q0 -75 4 -140.5t20 -114.5t47.5 -77t86.5 -28q34 0 59.5 15.5t42 48.5t25 86t7.5 128l1 1885h336l-2 -1938q0 -131 -30 -226.5
t-85.5 -158t-133.5 -93t-175 -30.5q-121 0 -217 50t-153 143q-47 -99 -134 -146t-217 -47q-100 0 -181.5 30.5t-139 93t-88.5 158t-31 226.5z" />
    <glyph glyph-name="phophanthai" unicode="&#xe1e;" horiz-adv-x="2224" 
d="M1298 1679l261 -1192l243 1192h368l-425 -1679h-369l-274 1192l-254 -1192h-373l-426 1679h372l244 -1204l260 1204h373z" />
    <glyph glyph-name="fofanthai" unicode="&#xe1f;" horiz-adv-x="2224" 
d="M1298 1679l261 -1192l365 1926h369l-548 -2413h-369l-274 1192l-254 -1192h-373l-426 1679h372l244 -1204l260 1204h373z" />
    <glyph glyph-name="phosamphaothai" unicode="&#xe20;" horiz-adv-x="1839" 
d="M1339 1040q0 71 -21.5 140t-72.5 124t-134.5 89.5t-206.5 36.5q-103 1 -180.5 -22.5t-131 -59.5t-84 -77t-38.5 -75q25 -23 46.5 -54.5t37 -69t24 -80t7.5 -87.5l5 -905h-500l-2 274h164v635q-1 34 -6.5 69t-20.5 68.5t-42.5 63.5t-70.5 53q15 68 45.5 135t76.5 128.5
t110 114.5t147 92t186 61t228 22q148 0 263.5 -27t202 -75.5t145.5 -114.5t96 -144.5t52.5 -165.5t15.5 -177l3 -1012h-340z" />
    <glyph glyph-name="momathai" unicode="&#xe21;" horiz-adv-x="1769" 
d="M156 0l-1 1679h340l-3 -913q1 -106 30.5 -197t87.5 -157.5t146 -104t206 -37.5q72 0 130 22t98.5 62.5t62.5 97.5t21 126l3 1101h336l-2 -1069q0 -144 -29.5 -264t-100 -206t-188 -133.5t-294.5 -47.5q-173 0 -298.5 62.5t-216.5 183.5l-1 -205h-327z" />
    <glyph glyph-name="yoyakthai" unicode="&#xe22;" horiz-adv-x="1724" 
d="M127 1266q0 82 22 144.5t59 108t85.5 76.5t102 49.5t109 26.5t105.5 8h254l-2 -286h-184q-23 0 -57.5 -3.5t-67 -18.5t-55 -44.5t-22.5 -81.5q0 -57 17.5 -93t48 -57t71 -30t85.5 -12h163l-1 -283h-164q-49 -2 -89.5 -11.5t-69 -34t-44 -69t-14.5 -114.5
q-1 -75 29.5 -130.5t82.5 -92t119.5 -54.5t141.5 -18q81 0 150.5 21t120.5 68.5t79.5 124t27.5 187.5l2 1032h336l-2 -1089q0 -154 -56.5 -271.5t-154 -197.5t-227.5 -121t-276 -41q-91 0 -180.5 15t-170 46t-149.5 77.5t-119.5 110t-79 143.5t-28.5 177q0 64 8.5 121.5
t30.5 106t58 87.5t92 66q-59 34 -95.5 77t-56.5 90.5t-27 96t-8 93.5z" />
    <glyph glyph-name="roruathai" unicode="&#xe23;" horiz-adv-x="1491" 
d="M422 557q7 -83 30 -141.5t64.5 -95t101 -53.5t139.5 -17q46 0 98.5 9t97 33.5t73.5 66.5t29 108q0 51 -21 86.5t-64.5 65.5t-110.5 58.5t-157 63.5q-80 32 -153.5 61.5t-137 61t-115.5 68.5t-89 82.5t-58 103t-22 131.5q-1 81 22.5 147t65 117t98 89t121.5 62t135 36
t140 12q137 0 250.5 -26t197 -89t132 -168.5t56.5 -265.5h-336q-8 77 -30 129.5t-57 85t-82.5 46.5t-105.5 14q-43 0 -88 -10t-82.5 -31.5t-61.5 -57t-24 -86.5q0 -40 21 -70t64.5 -56.5t110.5 -53.5t159 -61q166 -60 275 -115t172.5 -117t89 -136.5t24.5 -172.5
q1 -140 -48.5 -236t-137 -155.5t-207 -86t-257.5 -26.5q-135 0 -251.5 31.5t-204.5 102t-142 183t-64 273.5h340z" />
    <glyph glyph-name="ruthai" unicode="&#xe24;" horiz-adv-x="1737" 
d="M519 274h180l1 -274h-516l-1 909q-1 34 -7 69t-21 68.5t-42 63.5t-70 53q15 68 44 135t73.5 128.5t106 114.5t142.5 92t183 61t227 22q148 0 262.5 -27t199 -75.5t141.5 -114.5t92 -144.5t49.5 -165.5t14.5 -177l-1 -1557h-336l-1 1585q0 71 -19.5 140t-68 124t-130 89.5
t-204.5 36.5q-105 1 -180 -23t-125 -60t-77 -77.5t-36 -73.5q31 -21 53 -52t36.5 -68.5t21 -81t5.5 -89.5z" />
    <glyph glyph-name="lolingthai" unicode="&#xe25;" horiz-adv-x="1729" 
d="M1235 815q-31 -14 -68 -24t-77 -17.5t-82 -13.5t-83 -10q-58 -7 -115.5 -15.5t-111 -21.5t-99 -33t-79 -49.5t-52.5 -70.5t-18 -97q0 -63 26.5 -105.5t70 -68t98 -36.5t110.5 -11q46 0 96 8t103 20l-1 -266q-70 -18 -132 -29.5t-130 -11.5q-118 0 -224.5 26t-187 83.5
t-127.5 149.5t-46 224q-1 99 22.5 174t68.5 131t110 95t148 67.5t183 48.5t214 37q73 11 142 21.5t123 29.5t86 50t32 84q0 81 -30.5 130t-79 74.5t-109 33.5t-120.5 8q-80 0 -148 -16t-118 -53.5t-80.5 -98.5t-35.5 -152h-344q3 113 31.5 201.5t78.5 155t118.5 113.5
t150.5 76t174.5 42.5t190.5 13.5q78 0 156.5 -9.5t151.5 -32t136.5 -59.5t110.5 -92.5t73.5 -131.5t26.5 -175l4 -1212h-336z" />
    <glyph glyph-name="luthai" unicode="&#xe26;" horiz-adv-x="1839" 
d="M1339 1040q0 71 -21.5 140t-72.5 124t-134.5 89.5t-206.5 36.5q-103 1 -180.5 -22.5t-131 -59.5t-84 -77t-38.5 -75q25 -23 46.5 -54.5t37 -69t24 -80t7.5 -87.5l5 -905h-500l-2 274h164v635q-1 34 -6.5 69t-20.5 68.5t-42.5 63.5t-70.5 53q15 68 45.5 135t76.5 128.5
t110 114.5t147 92t186 61t228 22q148 0 263.5 -27t202 -75.5t145.5 -114.5t96 -144.5t52.5 -165.5t15.5 -177v-1557h-340z" />
    <glyph glyph-name="wowaenthai" unicode="&#xe27;" horiz-adv-x="1573" 
d="M1119 840q0 153 -25.5 266t-72 186.5t-113 109.5t-149.5 36q-63 0 -117 -20.5t-94.5 -63.5t-66 -110t-32.5 -159h-340q5 141 53.5 258t133 201t202.5 130t262 46q181 0 314.5 -63.5t220.5 -179t129.5 -277.5t43.5 -360q0 -198 -42.5 -360t-129.5 -277t-220.5 -177.5
t-314.5 -62.5q-144 0 -262 46t-202.5 130t-132.5 201t-54 258h340q6 -92 31 -158.5t65.5 -109.5t94.5 -63.5t117 -20.5q83 0 149.5 35.5t113.5 109t72.5 185.5t25.5 264z" />
    <glyph glyph-name="sosalathai" unicode="&#xe28;" horiz-adv-x="1786" 
d="M492 0h-336l-3 971q0 94 13.5 186t47 174.5t89 153t137.5 122t194 80.5t258 29q95 0 175 -13t146 -36q34 2 59.5 19t42.5 42.5t26 57t11 61.5h360q0 -49 -13.5 -104t-41.5 -106t-72 -92.5t-104 -64.5q40 -52 68 -112t45.5 -125t25.5 -133.5t8 -138.5l2 -971h-340l-2 1008
q0 47 -8 95.5t-27 94t-50 85.5t-75 70t-103 47t-135 17t-135 -17t-103.5 -47t-75 -70t-50 -85.5t-28 -94t-8.5 -95.5l-2 -226q46 66 97 112.5t113 76t137.5 42t171.5 11.5l-3 -295q-147 0 -246 -38.5t-159 -111.5t-85.5 -177t-25.5 -234z" />
    <glyph glyph-name="sorusithai" unicode="&#xe29;" horiz-adv-x="1769" 
d="M783 782v389h320v-118h168l2 626h340l-2 -626h152l-1 -271h-151l1 -102q0 -90 -12.5 -178.5t-43 -168t-83 -147.5t-133.5 -117.5t-193.5 -77.5t-262.5 -28q-152 0 -265 28t-194 77.5t-134 117.5t-83.5 147.5t-42 168t-11.5 178.5l1 999h336l-3 -1028q1 -71 16.5 -142
t58 -129t118.5 -94t199 -36t199.5 36t119.5 94t57.5 129t13.5 142l1 131h-488z" />
    <glyph glyph-name="sosuathai" unicode="&#xe2a;" horiz-adv-x="1729" 
d="M1234 823q-63 -28 -145 -46t-164 -27q-87 -9 -172.5 -23t-153.5 -43.5t-109.5 -81t-40.5 -135.5q0 -63 26.5 -105.5t70 -68t98 -36.5t110.5 -11q46 0 96 8t103 20v-270q-70 -18 -132 -27.5t-130 -9.5q-118 0 -224.5 25.5t-187 82t-127.5 148t-46 223.5q0 112 32 193.5
t87.5 140t131 96.5t161 63.5t178 40.5t183.5 28q67 9 131 20t113.5 29.5t80 48.5t31.5 78q0 81 -30.5 130t-79 74.5t-109 33.5t-120.5 8q-80 0 -148 -15.5t-118.5 -52t-81 -97t-35.5 -151.5h-344q4 113 33 201.5t79.5 155t119.5 113.5t150.5 76t174.5 42.5t191 13.5
q74 0 150 -9.5t145 -31.5q36 3 64 19.5t47 40.5t29 53.5t12 58.5h361q0 -46 -13 -99.5t-41 -103.5t-72.5 -91t-105.5 -62q33 -56 54.5 -125.5t21.5 -153.5l4 -1212h-336z" />
    <glyph glyph-name="hohipthai" unicode="&#xe2b;" horiz-adv-x="1733" 
d="M491 1679l-2 -589l686 589h491l-375 -315q87 -35 142.5 -93t87 -135t42.5 -170.5t11 -199.5l3 -766h-336l-2 799q0 60 -11 117t-34.5 104t-61 81t-90.5 46l-551 -471l1 -676h-336l-1 1679h336z" />
    <glyph glyph-name="lochulathai" unicode="&#xe2c;" horiz-adv-x="2224" 
d="M1749 0h-373l-303 963l-287 -963h-372l-374 1679h377l205 -1233l284 971h348l299 -975q17 85 32.5 164t30 156.5t29 155.5t31.5 159q14 62 17 104.5t4 80.5q0 43 -10 76.5t-34 56.5t-64 35t-98 12l3 237q79 3 143.5 19.5t111.5 48t75 81t35 118.5h385q-11 -89 -39 -157.5
t-69.5 -118t-94 -81.5t-112.5 -49q43 -38 69 -86.5t36.5 -103t7 -113.5t-18.5 -119z" />
    <glyph glyph-name="oangthai" unicode="&#xe2d;" horiz-adv-x="1704" 
d="M99 1130q28 134 87 243t151.5 186t220 119t293.5 42q140 0 251.5 -31t196.5 -87.5t145.5 -136.5t98.5 -178t55.5 -212t17.5 -239q0 -117 -17.5 -227t-56 -207t-99 -177.5t-145 -139t-195 -90.5t-248.5 -32q-139 0 -249.5 32t-195 89.5t-144.5 138t-98 177.5t-55.5 207.5
t-16.5 228.5q0 9 -0.5 29t-0.5 41v52h758l-2 -266h-409q4 -100 36 -182t86 -140.5t127.5 -91t160.5 -32.5q97 0 174.5 39t131.5 114.5t83.5 185.5t30.5 251q0 289 -104.5 441.5t-316.5 152.5q-80 0 -147.5 -19.5t-119.5 -58t-85 -94.5t-44 -128h-356z" />
    <glyph glyph-name="honokhukthai" unicode="&#xe2e;" horiz-adv-x="1696" 
d="M99 1130q28 134 87 243.5t151 187.5t219.5 120.5t293.5 42.5q80 0 154 -12t138 -37q33 3 57.5 18.5t40.5 39.5t24.5 53.5t9.5 60.5h365q-1 -48 -14.5 -98t-40.5 -96.5t-67.5 -85.5t-95.5 -64q48 -60 84 -135t60 -160t36.5 -178t13.5 -190q0 -117 -17.5 -227t-56 -207
t-98.5 -177.5t-144.5 -139t-195 -90.5t-248.5 -32q-139 0 -249.5 32t-194.5 89.5t-144 138t-98 177.5t-56 207.5t-18 228.5v118h758l3 -262h-410q3 -101 34 -183.5t84 -141t126.5 -90t160.5 -31.5q97 0 175 39t132.5 114.5t84 185.5t28.5 251q1 286 -103.5 438t-316.5 152
q-158 0 -258.5 -77t-137.5 -223h-356z" />
    <glyph glyph-name="paiyannoithai" unicode="&#xe2f;" horiz-adv-x="1737" 
d="M1245 0l-3 782q-81 -68 -190.5 -101.5t-239.5 -33.5q-172 0 -302 39t-218 111.5t-132 174.5t-43 228q-1 90 23 160.5t65 124t97 90.5t119 60t130 33.5t132 10.5h271l-2 -282h-270q-112 0 -163.5 -49.5t-52.5 -151.5q0 -49 15 -97.5t53 -86.5t103 -62t165 -24
q215 0 328 79t114 248l1 426h335l1 -1679h-336z" />
    <glyph glyph-name="saraathai" unicode="&#xe30;" horiz-adv-x="1012" 
d="M152 1094v385h311l2 -123h401l-1 -262h-713zM153 262l1 381h311l-3 -123h402l2 -258h-713z" />
    <glyph glyph-name="maihanakatthai" unicode="&#xe31;" 
d="M-1054 1937v402h311l-2 -144h802l2 -258h-1113z" />
    <glyph glyph-name="saraaathai" unicode="&#xe32;" horiz-adv-x="1430" 
d="M43 1126q0 95 24.5 175.5t67 145.5t101 114.5t127.5 83t145.5 50.5t155.5 17q130 0 241.5 -35.5t193 -108t127.5 -183t45 -259.5l3 -1126h-336l-3 1069q2 181 -68 264.5t-202 83.5q-117 0 -189 -73t-81 -218h-352z" />
    <glyph glyph-name="saraamthai" unicode="&#xe33;" horiz-adv-x="1430" 
d="M43 1126q0 95 24.5 175.5t67 145.5t101 114.5t127.5 83t145.5 50.5t155.5 17q130 0 241.5 -35.5t193 -108t127.5 -183t45 -259.5l3 -1126h-336l-3 1069q2 181 -68 264.5t-202 83.5q-117 0 -189 -73t-81 -218h-352zM-472 2224q0 -23 9 -44t23.5 -36.5t34.5 -25t43 -9.5
t44 9.5t37 25t25 36.5t9 44t-9.5 44t-25 36.5t-36.5 25t-44 9.5t-43.5 -9.5t-36 -25t-24 -36.5t-6.5 -44zM-677 2224q0 66 24 124t66 101.5t99.5 69t123.5 25.5q64 0 122.5 -25.5t102.5 -69t70.5 -101.5t26.5 -124t-26 -124t-70 -101.5t-102.5 -68.5t-122.5 -25
q-65 0 -122 25t-99.5 68.5t-67.5 101.5t-25 124z" />
    <glyph glyph-name="saraithai" unicode="&#xe34;" 
d="M-1622 1933l135 267h1331v-267h-1466z" />
    <glyph glyph-name="saraiithai" unicode="&#xe35;" 
d="M-1487 2200h1016l-6 237h319l2 -504h-1466z" />
    <glyph glyph-name="sarauethai" unicode="&#xe36;" 
d="M-706 2228q0 61 23 115t62 94t91.5 63t112.5 23q61 0 115.5 -23t95 -63t63.5 -94t22 -115q1 -62 -21.5 -115.5t-62 -93.5t-92.5 -63t-113 -23h-1212l135 267h782zM-518 2228q0 -21 9 -40t23.5 -32.5t33 -21.5t38.5 -8q21 0 40.5 8t33.5 21.5t22.5 32.5t8.5 40
q-1 47 -31.5 77t-73.5 30q-21 0 -40.5 -8t-33.5 -22.5t-22 -34t-8 -42.5z" />
    <glyph glyph-name="saraueethai" unicode="&#xe37;" 
d="M-1487 2200h578l-2 237h303l2 -237h147l-2 237h303l2 -504h-1466z" />
    <glyph glyph-name="sarauthai" unicode="&#xe38;" 
d="M-468 -819l-1 368h-148l4 258h462l-2 -626h-315z" />
    <glyph glyph-name="sarauuthai" unicode="&#xe39;" 
d="M-1211 -193h467l-2 -229q-1 -80 33 -122t105 -42q68 0 103.5 42t37.5 122l1 229h315l-1 -229q-1 -87 -25 -164.5t-77 -135.5t-139 -92t-212 -34q-119 0 -204 28.5t-140.5 81t-84 125.5t-33.5 162h-148z" />
    <glyph glyph-name="phinthuthai" unicode="&#xe3a;" 
d="M-572 -369q0 48 18 89.5t49 73t72.5 49.5t89.5 18q46 0 87.5 -18t72 -49.5t48.5 -73t17 -89.5q1 -46 -16.5 -87t-47.5 -71.5t-71 -48.5t-87 -18q-48 0 -90 18t-73.5 48.5t-50 71.5t-18.5 87z" />
    <glyph glyph-name="PUCR2005" unicode="&#xe3e;" 
 />
    <glyph glyph-name="bahtthai" unicode="&#xe3f;" horiz-adv-x="1905" 
d="M787 1999l-1 176h312l1 -180q120 -6 232.5 -30.5t200.5 -80.5t141 -151t54 -242q0 -146 -52 -250.5t-161 -175.5q73 -31 128 -78.5t92.5 -108t56.5 -132.5t19 -152q0 -74 -18 -146.5t-55 -138.5t-91 -122.5t-126 -98t-160.5 -65t-192.5 -23.5h-65l-2 -188h-311l2 188
h-611l-3 1999h610zM1460 606q0 77 -30.5 127.5t-81 81t-115.5 43t-133 14.5l-1 -573h29q80 0 142 21t104 60.5t64 96.5t22 129zM788 299l1 573h-258l-1 -573h258zM790 1176l-4 520h-258l4 -520h258zM1377 1438q1 83 -18 133t-56 77.5t-89 36.5t-117 11l4 -516
q146 15 211 79.5t65 178.5z" />
    <glyph glyph-name="saraethai" unicode="&#xe40;" horiz-adv-x="717" 
d="M188 0v1679h340v-1679h-340z" />
    <glyph glyph-name="saraaethai" unicode="&#xe41;" horiz-adv-x="1282" 
d="M188 0v1679h340v-1679h-340zM754 0l-1 1679h340l1 -1679h-340z" />
    <glyph glyph-name="saraothai" unicode="&#xe42;" horiz-adv-x="852" 
d="M240 1933q0 58 -20 104t-54.5 77.5t-80 48t-97.5 16.5l62 258h820l152 -270h-525q41 -47 60 -105.5t17 -119.5l2 -1668h176l2 -274h-512z" />
    <glyph glyph-name="saraaimaimuanthai" unicode="&#xe43;" horiz-adv-x="852" 
d="M576 274h176l2 -274h-512l-1 1585q-2 69 3.5 122.5t21.5 100t45.5 89t76.5 90.5q11 12 31.5 30.5t40.5 39.5t35 43t16 42q-1 18 -7.5 36.5t-21 33.5t-39 24t-61.5 9q-40 0 -70.5 -18t-51 -51t-31 -80t-10.5 -105h-314q-1 133 38.5 231t106.5 162.5t153.5 95.5t180.5 31
q84 0 162.5 -19.5t139 -61.5t97 -109t36.5 -162q-2 -53 -19 -92.5t-43.5 -74t-59 -68t-63.5 -73.5q-22 -26 -34 -59t-17.5 -69t-6 -71.5t-0.5 -66.5v-1311z" />
    <glyph glyph-name="saraaimaimalaithai" unicode="&#xe44;" horiz-adv-x="852" 
d="M576 274h176l2 -274h-512l-4 1942q2 61 21 119.5t58 105.5h-523l151 270h818l67 -258q-52 0 -98.5 -16.5t-81 -48t-54.5 -77.5t-20 -104v-1659z" />
    <glyph glyph-name="lakkhangyaothai" unicode="&#xe45;" horiz-adv-x="1430" 
d="M43 1126q0 95 24.5 175.5t67 145.5t101 114.5t127.5 83t145.5 50.5t155.5 17q130 0 241.5 -35.5t193 -108t127.5 -183t45 -259.5l-1 -1671h-336l1 1614q2 181 -68 264.5t-202 83.5q-117 0 -189 -73t-81 -218h-352z" />
    <glyph glyph-name="maiyamokthai" unicode="&#xe46;" horiz-adv-x="1638" 
d="M446 1061q0 -37 7.5 -73t26.5 -64.5t51 -46t81 -17.5h69l1 -295h-70q-101 0 -192.5 28t-161 87.5t-110.5 152.5t-41 224q0 123 22 229t80 189t159.5 141t260.5 84l174 -184l159 180q117 -10 201 -42t141.5 -81t92 -112.5t53.5 -136.5t25 -153t6 -163l-3 -1549h-340v1581
q1 46 0 99t-10.5 100t-30 82.5t-57.5 46.5l-177 -188q-11 -10 -26.5 -17.5t-33.5 -7.5q-22 0 -36.5 7.5t-22.5 17.5l-182 184q-68 -43 -96.5 -123.5t-19.5 -179.5z" />
    <glyph glyph-name="maitaikhuthai" unicode="&#xe47;" 
d="M-1181 2322q0 -12 3 -30.5t13 -36.5t29.5 -30.5t51.5 -12.5q52 0 79 39.5t25 107.5h229q-4 -68 20 -107.5t77 -39.5q27 0 44.5 11t26.5 30.5t10.5 46.5t-2.5 59h250q14 -107 -4.5 -183t-60 -124.5t-100.5 -71t-127 -22.5q-44 0 -82 11.5t-69 30.5t-55 44t-40 53
q-16 -28 -43 -53t-62 -44t-75 -30.5t-82 -11.5q-103 0 -171 34.5t-109 88t-58 117.5t-17 124q0 102 36 174.5t97.5 119.5t142.5 69t170 22h815l-2 -241h-786q-60 0 -94.5 -15t-52.5 -37t-22.5 -47t-4.5 -45z" />
    <glyph glyph-name="maiekthai" unicode="&#xe48;" 
d="M-474 3117h312l1 -491h-311z" />
    <glyph glyph-name="maithothai" unicode="&#xe49;" 
d="M-774 2621v250h-155l-4 250h417l4 -250q81 1 144.5 21.5t107 54.5t66.5 78.5t23 95.5h289q1 -97 -39 -187t-122.5 -159.5t-207.5 -111.5t-294 -42h-229z" />
    <glyph glyph-name="maitrithai" unicode="&#xe4a;" 
d="M-315 2621q-1 19 -3.5 50t-8.5 61t-16.5 52t-27.5 22t-27.5 -19t-16 -47t-7 -60.5t-0.5 -58.5h-213q-1 26 -3 58.5t-7.5 60.5t-15.5 47t-25 19q-17 0 -27.5 -22t-16 -52t-7 -61t-0.5 -50h-250q-8 111 11.5 192.5t58 135.5t90 80.5t108.5 26.5q56 0 103.5 -28t82.5 -75
q30 47 83 75t112 28q78 0 139.5 -44t87.5 -137q16 19 30 45.5t24 58t16 66t7 68.5h265q0 -50 -12 -103.5t-34.5 -105t-53.5 -99t-68 -85.5t-79 -64t-86 -35h-213z" />
    <glyph glyph-name="maichattawathai" unicode="&#xe4b;" 
d="M-167 2830l3 -209h-303l-3 209h-233l2 242h233l1 205h303l-1 -205h237l-2 -242h-237z" />
    <glyph glyph-name="thanthakhatthai" unicode="&#xe4c;" 
d="M-84 2671q-150 0 -230.5 -58t-78.5 -184h-299q-2 115 39.5 206t120.5 155t192 98.5t256 36.5v-254z" />
    <glyph glyph-name="nikhahitthai" unicode="&#xe4d;" 
d="M-472 2224q0 -23 9 -44t23.5 -36.5t34.5 -25t43 -9.5t44 9.5t37 25t25 36.5t9 44t-9.5 44t-25 36.5t-36.5 25t-44 9.5t-43.5 -9.5t-36 -25t-24 -36.5t-6.5 -44zM-677 2224q0 66 24 124t66 101.5t99.5 69t123.5 25.5q64 0 122.5 -25.5t102.5 -69t70.5 -101.5t26.5 -124
t-26 -124t-70 -101.5t-102.5 -68.5t-122.5 -25q-65 0 -122 25t-99.5 68.5t-67.5 101.5t-25 124z" />
    <glyph glyph-name="yamakkanthai" unicode="&#xe4e;" 
d="M2 2396q-69 0 -111 -10.5t-65.5 -31.5t-32 -51.5t-9.5 -70.5l3 -69h-82q-54 0 -88 -15.5t-53 -45t-26 -71.5t-6 -94h-303q0 80 17 152.5t53 131.5t92.5 102.5t134.5 64.5q13 58 47.5 107t92.5 84.5t141 55t193 19.5z" />
    <glyph glyph-name="fongmanthai" unicode="&#xe4f;" horiz-adv-x="2077" 
d="M146 836q0 122 31.5 234.5t89 210t139 178t180.5 137.5t213 88.5t237 31.5q121 0 232.5 -31.5t208.5 -88.5t177 -137.5t137 -178t88 -210t32 -234.5q0 -122 -31 -234.5t-88.5 -210.5t-138 -178.5t-178 -137.5t-209.5 -88.5t-233 -31.5q-123 0 -236.5 31.5t-212 88.5
t-179 137.5t-138 178.5t-89.5 210.5t-32 234.5zM561 844q0 94 37.5 178t102 147.5t150 100.5t182.5 37q94 0 177 -37t145.5 -100.5t99 -147.5t36.5 -178q1 -97 -35.5 -182t-99 -148.5t-146 -100t-177.5 -36.5q-97 0 -182.5 36.5t-149.5 100t-101.5 148.5t-38.5 182zM778 844
q1 -54 20.5 -100.5t53 -80.5t80 -53.5t101.5 -19.5q51 0 95 19.5t77 53.5t51.5 80.5t17.5 100.5q0 51 -18.5 95.5t-51 78t-76 53t-94.5 19.5q-56 0 -102.5 -19.5t-81 -53t-53.5 -78t-19 -95.5zM389 844q1 -132 51 -249t137 -204.5t204.5 -138.5t252.5 -51q87 0 168 23
t151.5 65.5t128.5 101t99 130t63.5 153.5t22.5 170q1 88 -21.5 169.5t-64 152t-100 128t-129 99t-151.5 64t-168 22.5q-135 0 -252.5 -49.5t-204 -136t-136.5 -202t-51 -247.5z" />
    <glyph glyph-name="zerothai" unicode="&#xe50;" horiz-adv-x="1823" 
d="M1704 733q-1 -206 -64 -351.5t-170.5 -237.5t-251 -134.5t-306.5 -42.5q-108 0 -209.5 18.5t-190 58t-161 100.5t-125 146.5t-81 195.5t-27.5 247q0 181 54 321t155.5 235.5t248.5 144.5t333 49q184 0 331 -49t250 -144.5t158.5 -235.5t55.5 -321zM1367 717
q-1 132 -37 224.5t-98 151t-144.5 85t-176.5 26.5q-93 0 -176.5 -26.5t-146 -85t-99 -151t-36.5 -224.5q0 -102 32.5 -188t92 -149t143.5 -98.5t189 -35.5q104 0 188.5 35.5t144 98.5t92 149t32.5 188z" />
    <glyph glyph-name="onethai" unicode="&#xe51;" horiz-adv-x="1810" 
d="M813 -29q-94 0 -194 6.5t-203 31.5t-205.5 75t-200.5 137l265 217q52 -58 112.5 -96.5t127.5 -61.5t140 -32.5t150 -9.5q118 0 218 35t173 102.5t114 167.5t41 231q-1 98 -29.5 180t-84.5 141.5t-141.5 92.5t-200.5 33q-94 0 -171.5 -22.5t-133 -60.5t-86 -87t-30.5 -101
q-1 -48 21 -93.5t73 -77.5t134 -45.5t206 3.5l-1 -245q-65 -16 -115 -20.5t-93 -4.5q-117 0 -221 33t-181.5 93.5t-122.5 145t-43 187.5q0 101 30 182t83 143.5t125 107t156 73t176.5 42t185.5 13.5q168 0 314.5 -39t255.5 -123.5t172.5 -219.5t64.5 -327q0 -181 -60.5 -330
t-174 -255t-277 -164t-369.5 -58z" />
    <glyph glyph-name="twothai" unicode="&#xe52;" horiz-adv-x="2068" 
d="M138 1196q-2 110 -37.5 159.5t-111.5 49.5l53 283q95 0 173.5 -26.5t135 -81.5t87 -138t30.5 -197l2 -606q0 -78 37 -146.5t111.5 -118.5t186 -79t260.5 -29q140 0 240.5 27t166 71.5t96.5 102t31 119.5v405q0 43 -10.5 76.5t-29.5 57.5t-45.5 39.5t-58.5 23.5l-220 -197
l-219 185q-23 -2 -45 -13.5t-39.5 -33.5t-28 -54.5t-10.5 -75.5l3 -90q0 -41 2 -82.5t12.5 -75t32 -54.5t60.5 -21h127l-1 -262h-156q-97 0 -164.5 24.5t-112 64.5t-70 91.5t-38.5 105.5t-16.5 106.5t-5.5 94.5l-1 78q0 94 35.5 178t101.5 150.5t159 111.5t208 60l166 -140
l146 140q115 -6 215.5 -43t175 -97.5t116.5 -142t41 -176.5v-385q1 -115 -27.5 -208t-80 -166t-123 -126t-157 -87.5t-183 -51t-199.5 -16.5h-164q-206 0 -366 48.5t-270 138.5t-166.5 217t-55.5 284z" />
    <glyph glyph-name="threethai" unicode="&#xe53;" horiz-adv-x="1855" 
d="M673 1167q-34 -8 -71 -30t-67.5 -67t-50.5 -116t-19 -176l-1 -110q1 -46 1.5 -93.5t5.5 -92t15 -83t29 -67.5t49 -45.5t74 -16.5q14 0 37 1t52.5 3t64 6.5t72.5 10.5l-3 -279q-24 -8 -65 -14.5t-86.5 -10.5t-90 -5t-75.5 2q-104 13 -175.5 51.5t-117.5 93.5t-71 122.5
t-36.5 138.5t-13.5 141.5t-2 132.5l2 110q-2 172 38 298t117 211.5t188 133t252 62.5l201 -172l213 172q151 -9 261 -58t181.5 -125.5t106 -175t34.5 -207.5l2 -913h-335l-3 913q-1 48 -18.5 93t-45.5 80t-64 57t-73 24l-262 -213z" />
    <glyph glyph-name="fourthai" unicode="&#xe54;" horiz-adv-x="1855" 
d="M898 1167q-100 0 -180 -21t-136.5 -62t-87.5 -101.5t-31 -138.5v-193q0 -78 23 -145.5t70.5 -117t121 -77.5t174.5 -28h21q-43 43 -74 104.5t-33 132.5q0 23 4 58.5t20 74.5t47.5 78t87.5 70.5t139.5 51t203.5 19.5l-1 -282q-65 0 -100 -11t-52 -26t-20.5 -32t-3.5 -29
q0 -42 17.5 -79.5t45.5 -66.5t62 -46t66 -17h455l4 -283h-922q-136 0 -240.5 28.5t-181 76.5t-128.5 112t-83 135t-44 144.5t-12 142.5l-1 160q0 167 56 290.5t160 204.5t251.5 120.5t330.5 39.5h283q57 0 92.5 16.5t56 46.5t28.5 71.5t9 90.5h344q-1 -59 -9.5 -120
t-30.5 -118t-59 -107t-94.5 -87t-137.5 -58.5t-188 -21.5h-323z" />
    <glyph glyph-name="fivethai" unicode="&#xe55;" horiz-adv-x="1855" 
d="M847 1483q1 -47 29.5 -77t71.5 -30q50 0 77.5 30t26.5 77q2 49 -26 77.5t-78 28.5q-43 0 -71 -28.5t-30 -77.5zM1737 283l4 -283h-922q-136 0 -240 28.5t-181 77.5t-128.5 113.5t-82.5 136.5t-45 146.5t-14 144.5l-1 160q1 141 39.5 246t107 180t163 123.5t208.5 77.5
q-2 9 -3 22.5t-4 26.5q1 61 25.5 116.5t66.5 96.5t98 65.5t119 24.5q69 0 127 -24.5t100 -65.5t65 -96.5t22 -116.5q1 -10 1 -14v-6v-1q39 9 64.5 29t41 48t22 63.5t6.5 76.5h344q-1 -60 -9.5 -121t-30 -117.5t-59 -105.5t-95 -85.5t-137.5 -57.5t-188 -21h-307
q-100 0 -182.5 -17.5t-142 -56.5t-93 -100.5t-34.5 -148.5l4 -193q0 -77 22 -144.5t69.5 -118t120.5 -80t174 -29.5h21q-43 43 -74 104.5t-33 132.5q0 23 4 58.5t20 74.5t47.5 78t87.5 70.5t139.5 51t203.5 19.5l-1 -282q-65 0 -100 -11t-52 -26t-20.5 -32t-3.5 -29
q0 -42 17.5 -79.5t45.5 -66.5t62 -46t66 -17h455z" />
    <glyph glyph-name="sixthai" unicode="&#xe56;" horiz-adv-x="1880" 
d="M469 1356q45 21 99.5 42t120 37.5t142 28.5t165.5 15q148 4 262 -21t199.5 -72.5t144 -114t94.5 -146t51.5 -168t15.5 -179.5l2 -102q-1 -94 -24 -183.5t-68.5 -168.5t-114 -144t-159 -111t-204 -69.5t-249.5 -19.5q-150 4 -274 40.5t-213 101t-138.5 155t-49.5 202.5
q0 106 36 183t102 126.5t159.5 73t209.5 23.5h139l2 -258h-127q-57 0 -93 -12.5t-56.5 -34t-27.5 -50.5t-6 -63q0 -42 25 -78.5t71.5 -64t112.5 -44.5t146 -18q89 -2 171.5 24t146 78t102 129t38.5 179l-1 98q1 109 -26.5 189t-80.5 132.5t-130.5 77t-175.5 23.5
q-78 -2 -156.5 -15.5t-159.5 -41.5t-165 -72t-174 -105l-316 504l266 156z" />
    <glyph glyph-name="seventhai" unicode="&#xe57;" horiz-adv-x="2200" 
d="M1701 1245q1 112 32 194.5t87 136.5t134.5 80.5t173.5 26.5l48 -282q-38 0 -65 -11.5t-43.5 -36.5t-24 -64.5t-7.5 -96.5v-447q0 -153 -40.5 -283t-125 -229t-214 -162t-306.5 -83l-255 176q67 66 104.5 126.5t55 119.5t21 120t4.5 129l-1 123q0 88 -14.5 153.5
t-38.5 111.5t-55.5 73.5t-65.5 38.5l-216 -217l-220 225q-32 -8 -67.5 -34t-65 -73.5t-48.5 -118t-18 -167.5l-2 -106q0 -33 0.5 -74t6 -83t16.5 -82.5t31 -72t50.5 -50.5t74.5 -19q9 0 27.5 1.5t43 3.5t52 5t54.5 6l7 -283q-22 -6 -55 -12.5t-71 -11t-78.5 -4.5t-77.5 8
q-99 20 -168 60.5t-115.5 94t-73.5 117t-40 129.5t-16.5 132.5t-2.5 125.5l-2 111q1 163 41 287.5t116.5 212.5t187.5 139t254 66l157 -160l155 160q165 -19 273.5 -78.5t172.5 -151t89.5 -210t24.5 -253.5l1 -114q-2 -34 -5 -76.5t-8 -87.5t-13.5 -89.5t-21.5 -82.5
q37 28 64.5 71t45.5 95t27.5 108.5t9.5 110.5z" />
    <glyph glyph-name="eightthai" unicode="&#xe58;" horiz-adv-x="1851" 
d="M843 1159q-97 0 -167 -26.5t-115 -71t-67 -101t-23 -116.5l4 -303q-1 -46 15 -89.5t42.5 -78.5t60 -59t67.5 -31l273 217l268 -217q36 1 68 14t56 40.5t38.5 73t15.5 113.5q0 29 -4.5 58.5t-19 54.5t-40.5 43.5t-68 24.5q-14 3 -41.5 3.5t-58.5 0.5l3 258h123
q97 -5 167 -26t119 -53.5t78.5 -74.5t45.5 -89.5t21.5 -98.5t6.5 -101q-1 -134 -34 -235.5t-102.5 -170t-177.5 -103.5t-258 -35l-203 163l-207 -163q-145 9 -256 57t-186 123.5t-112.5 173.5t-35.5 207l-2 258q0 152 46.5 273.5t138.5 206t229 130t319 45.5h381
q55 0 90.5 16.5t56.5 46.5t29.5 71.5t9.5 90.5h340q0 -58 -8.5 -119.5t-30 -119t-58.5 -109t-94 -89.5t-136.5 -60.5t-185.5 -22.5h-421z" />
    <glyph glyph-name="ninethai" unicode="&#xe59;" horiz-adv-x="1884" 
d="M1356 1479q54 0 86 13t49 38t22 62.5t6 86.5h336q-1 -59 -7.5 -118t-24.5 -113.5t-50.5 -101t-85.5 -81t-129.5 -54t-181.5 -19.5h-24q-12 0 -27.5 -9t-32 -22.5t-33 -30.5t-31.5 -32l541 -1098h-352l-480 987q-49 99 -111.5 152t-145.5 53q-46 0 -85.5 -19t-68.5 -66
t-45.5 -126t-16.5 -199l-1 -151q1 -36 5 -76.5t13 -80t23.5 -76t37 -64t54 -44t74.5 -16.5q22 0 60 3.5t80 9.5l47 -275q-23 -6 -58 -11.5t-74 -9.5t-79.5 -5t-74.5 2q-102 11 -174 46.5t-121 87.5t-78 116.5t-44 135t-19.5 142.5t-4.5 139v119q0 174 28 305.5t92.5 220.5
t171 134t262.5 45q29 0 63.5 -0.5t71 -4t72.5 -11t68 -21.5q28 -19 56.5 -41.5t54.5 -57.5l112 107q13 12 30.5 20.5t45.5 8.5h98z" />
    <glyph glyph-name="angkhankhuthai" unicode="&#xe5a;" horiz-adv-x="2306" 
d="M1245 0l-3 782q-81 -68 -190.5 -101.5t-239.5 -33.5q-172 0 -302 39t-218 111.5t-132 174.5t-43 228q-1 90 23 160.5t65 124t97 90.5t119 60t130 33.5t132 10.5h271l-2 -282h-270q-112 0 -163.5 -49.5t-52.5 -151.5q0 -49 15 -97.5t53 -86.5t103 -62t165 -24
q215 0 328 79t114 248l1 426h335l1 -1679h-336zM1814 1679h336v-1679h-335z" />
    <glyph glyph-name="khomutthai" unicode="&#xe5b;" horiz-adv-x="3600" 
d="M2861 856q-29 -35 -59.5 -81.5t-62 -100.5t-63 -113t-63.5 -119q-62 130 -119.5 232.5t-108.5 185.5q-54 -80 -119 -216t-130 -325q-59 174 -120 308t-120 221q-17 -122 -57.5 -232.5t-101 -204.5t-139 -170t-171.5 -129.5t-199 -82.5t-220 -29q-136 0 -251.5 35
t-209.5 96.5t-166 145t-120.5 180t-73.5 202.5t-25 213q-1 94 20.5 191t63.5 188t104.5 170.5t144 138.5t181.5 93.5t218 34.5q113 0 203.5 -27t161 -74t121.5 -111.5t84.5 -140t49 -159t16.5 -168.5l-314 -4q0 176 -75 265.5t-215 98.5q-102 0 -181.5 -40.5t-134 -110
t-83.5 -163.5t-29 -202q0 -101 38.5 -195.5t107.5 -167.5t164.5 -117t211.5 -44q113 0 202.5 36t156.5 100.5t114.5 153.5t77.5 194t44 222.5t15 239.5l219 123q46 -49 87.5 -101t78.5 -102.5t68 -97t56 -84.5q26 37 58.5 84t66.5 96.5t67.5 97.5t62.5 86q29 -45 61 -93.5
t63.5 -97t59.5 -94t50 -83.5l126 176h537l213 -328h-643z" />
    <glyph glyph-name="ZWSP" unicode="&#x200b;" 
 />
    <glyph glyph-name="endash" unicode="&#x2013;" horiz-adv-x="1405" 
d="M1402 938l1 -315h-1404l-1 315h1404z" />
    <glyph glyph-name="emdash" unicode="&#x2014;" horiz-adv-x="2777" 
d="M2774 938l1 -315h-2776l-1 315h2776z" />
    <glyph glyph-name="quoteleft" unicode="&#x2018;" horiz-adv-x="819" 
d="M215 1241l1 340q-1 91 21.5 172t69.5 142t119 97t170 36v-193q-43 0 -74.5 -18.5t-51.5 -48.5t-30 -69t-10 -81h164l2 -377h-381z" />
    <glyph glyph-name="quoteright" unicode="&#x2019;" horiz-adv-x="819" 
d="M600 2028l-1 -340q1 -91 -21.5 -172t-69.5 -142t-119 -97t-170 -36v193q43 0 74 18.5t50.5 48.5t29 69t9.5 81h-164l1 377h381z" />
    <glyph glyph-name="quotedblleft" unicode="&#x201c;" horiz-adv-x="1278" 
d="M187 1241v340q-1 91 21.5 172t69.5 142t119 97t170 36v-193q-43 0 -74 -18.5t-51.5 -48.5t-30.5 -69t-10 -81h164l2 -377h-380zM707 1241v340q0 91 22.5 172t69 142t118.5 97t171 36v-193q-43 0 -74.5 -18.5t-51.5 -48.5t-30 -69t-10 -81h164l2 -377h-381z" />
    <glyph glyph-name="quotedblright" unicode="&#x201d;" horiz-adv-x="1278" 
d="M1088 2028l-1 -340q1 -91 -21.5 -172t-69.5 -142t-119 -97t-170 -36v193q43 0 73.5 18.5t50 48.5t29 69t10.5 81h-164l1 377h381zM567 2028v-340q1 -91 -21.5 -172t-69.5 -142t-119 -97t-170 -36v193q43 0 73.5 18.5t50 48.5t29 69t9.5 81h-163v377h381z" />
    <glyph glyph-name="bullet" unicode="&#x2022;" horiz-adv-x="1090" 
d="M75 860q0 88 36.5 168t99.5 141t147.5 97.5t179.5 36.5q97 0 182.5 -36.5t149.5 -97.5t101.5 -141t37.5 -168q0 -94 -37 -176t-101 -143t-149.5 -96t-182.5 -35q-95 0 -179.5 35t-147.5 96t-100 143t-37 176z" />
    <glyph glyph-name="Euro" unicode="&#x20ac;" horiz-adv-x="2224" 
d="M1751 1356q-20 103 -63.5 176.5t-106.5 120.5t-145.5 69.5t-180.5 22.5q-114 0 -205 -32t-161.5 -87.5t-120.5 -131t-80 -163.5h585l-1 -246h-631q-2 -18 -4 -36.5t-1 -36.5q-1 -25 1 -49.5t4 -49.5h630v-245h-582q31 -91 82 -166.5t121.5 -129.5t162 -84t205.5 -30
q120 0 211.5 39.5t155.5 110t100.5 168.5t45.5 215h352q-20 -200 -86 -354.5t-177 -259.5t-267 -159.5t-355 -54.5q-194 0 -348 51.5t-269 144.5t-190.5 222.5t-111.5 286.5h-258v245h221l1 78v94h-225l1 246h266q40 157 120 288t197 225.5t271.5 147t345.5 52.5
q166 0 308.5 -43t253.5 -129t185 -215t103 -301h-360v0z" />
    <glyph glyph-name="trademark" unicode="&#x2122;" horiz-adv-x="2753" 
d="M2343 786v811l-316 -811h-167l-324 811v-811h-254l1 1213h344l322 -803l309 803h348l-1 -1213h-262zM757 1778l-3 -992h-254l3 992h-361l-2 221h975l2 -221h-360z" />
    <glyph glyph-name="uni25CC" unicode="&#x25cc;" horiz-adv-x="1868" 
d="M567 455l64 159q23 -34 48.5 -61.5t60.5 -48.5zM931 1303l74 -156q-39 9 -82 7t-72 -11zM930 303l-73 152q18 -5 34.5 -7.5t33.5 -2t35 4t40 9.5zM1431 803l-153 -70q11 34 10 70.5t-10 77.5zM430 807l159 78q-4 -37 -6 -76.5t7 -79.5zM597 1159l163 -57q-45 -22 -76 -47
t-49 -56zM1272 451l-154 49q35 21 61.5 46t48.5 56zM1297 1159l-71 -164q-23 34 -52 61.5t-58 49.5z" />
    <glyph glyph-name="thothannobasethai" unicode="&#xf700;" horiz-adv-x="1614" 
d="M1484 1126q-1 -64 -19 -149.5t-48.5 -183t-70.5 -202.5t-83 -208.5t-87 -201.5t-82 -181h-422l-271 750h-225l1 262h488l226 -656q38 88 79 187.5t75.5 199t57.5 192.5t26 167q2 164 -83.5 246t-255.5 82q-137 0 -221.5 -71.5t-117.5 -207.5h-368q21 124 80.5 228
t154 179t221.5 116.5t284 41.5q71 0 141.5 -9.5t136.5 -31.5q34 6 59.5 23.5t42.5 41.5t25.5 52t8.5 55h361q-1 -48 -13 -99.5t-38.5 -99t-68 -87t-101.5 -62.5q54 -65 81.5 -157t25.5 -216z" />
    <glyph glyph-name="yoyingnobasethai" unicode="&#xf70f;" horiz-adv-x="2650" 
d="M1201 1016q0 72 -20 143t-66.5 128t-123.5 92.5t-191 37.5q-91 1 -161 -19.5t-119.5 -55t-79 -78.5t-39.5 -88q62 -44 90 -124t28 -180v-598h180l1 -274h-516l-2 877q0 35 -6 72t-21 71.5t-42 66t-69 56.5q15 69 44.5 138.5t75.5 133.5t108 119t141.5 95.5t176 63.5
t212.5 23q141 0 251 -28t192 -78t139 -119t92 -150.5t51 -172.5t17 -185l-1 -401q-1 -81 24 -143t67.5 -104t98.5 -63.5t118 -21.5q60 0 114.5 19.5t96 60t66.5 103.5t25 149l1 1097h340l-3 -1126q0 -101 -24.5 -184.5t-68.5 -149.5t-104 -115t-131 -81t-150.5 -48
t-161.5 -16q-128 0 -245 38t-207 113t-144 186t-54 257v463z" />
    <glyph glyph-name="saraulowthai" unicode="&#xf718;" 
d="M-471 -1311l4 369h-147l-2 258h463l-2 -627h-316z" />
    <glyph glyph-name="sarauulowthai" unicode="&#xf719;" 
d="M-1218 -684h467v-229q1 -81 35 -122.5t105 -41.5q68 0 104 41.5t34 122.5l1 229h315v-229q0 -88 -24 -165.5t-77.5 -135.5t-140.5 -91.5t-213 -33.5q-118 0 -203 28.5t-140.5 80.5t-83 125.5t-30.5 162.5h-147z" />
    <glyph glyph-name="phinthulowthai" unicode="&#xf71a;" 
d="M-571 -877q1 48 19 89.5t49 73t72.5 49.5t89.5 18q46 0 87.5 -18t72 -49.5t48.5 -73t17 -89.5q0 -46 -18 -87t-49 -71.5t-72.5 -48.5t-87.5 -18q-48 0 -89 18t-72 48.5t-48.5 71.5t-18.5 87z" />
    <glyph glyph-name="lochula.short" unicode="&#xf71d;" horiz-adv-x="2224" 
d="M1749 0h-373l-303 963l-287 -963h-372l-374 1679h377l205 -1233l284 971h348l299 -975q17 85 32.5 164t30 156.5t29 155.5t31.5 159q14 62 17 104.5t4 80.5q0 43 -10 76.5t-34 56.5t-64 35t-98 12l3 237q79 3 143.5 19.5t111.5 48t75 81t35 118.5h385q-11 -89 -39 -157.5
t-69.5 -118t-94 -81.5t-112.5 -49q43 -38 69 -86.5t36.5 -103t7 -113.5t-18.5 -119z" />
    <glyph glyph-name="rulakkhangyao" unicode="&#xf881;" horiz-adv-x="2601" 
d="M519 274h180l1 -274h-516l-1 909q-1 34 -7 69t-21 68.5t-42 63.5t-70 53q15 68 44 135t73.5 128.5t106 114.5t142.5 92t183 61t227 22q202 0 340 -49t227 -135q86 90 203 135t247 45t241.5 -35.5t193 -108t127.5 -183t45 -259.5l-1 -1671h-336l1 1614q1 181 -69 264.5
t-202 83.5q-111 0 -183.5 -66t-88.5 -196q8 -34 12 -70t2 -73l-1 -1557h-336l-1 1585q2 22 0.5 44.5t-7.5 50.5q-12 57 -40 109.5t-77.5 93t-122.5 65.5t-175 27q-105 1 -180 -23t-125 -60t-77 -77.5t-36 -73.5q31 -21 53 -52t36.5 -68.5t21 -81t5.5 -89.5z" />
    <glyph glyph-name="lulakkhangyao" unicode="&#xf882;" horiz-adv-x="2707" 
d="M1339 1040q0 71 -21.5 140t-72.5 124t-134.5 89.5t-206.5 36.5q-103 1 -180.5 -22.5t-131 -59.5t-84 -77t-38.5 -75q25 -23 46.5 -54.5t37 -69t24 -80t7.5 -87.5l5 -905h-500l-2 274h164v635q-1 34 -6.5 69t-20.5 68.5t-42.5 63.5t-70.5 53q15 68 45.5 135t76.5 128.5
t110 114.5t147 92t186 61t228 22q103 0 189 -13.5t157.5 -38t129.5 -59t104 -77.5q86 93 205 138.5t252 45.5q130 0 241.5 -35.5t193 -108t127.5 -183t45 -259.5l-1 -1671h-336l1 1614q1 181 -68.5 264.5t-201.5 83.5q-117 0 -189.5 -70.5t-82.5 -211.5q4 -31 7 -61.5
t2 -61.5v-1557h-340z" />
    <glyph glyph-name="yamakkanleftthai" 
d="M-566 2396q-69 0 -112 -10.5t-66.5 -31.5t-32 -51.5t-8.5 -70.5l2 -69h-82q-54 0 -88.5 -15.5t-54 -45t-27 -71.5t-7.5 -94h-303q0 80 17 152.5t53.5 131.5t93.5 102.5t137 64.5q14 58 48.5 107t92.5 84.5t141 55t194 19.5z" />
    <glyph glyph-name="saraamleft" horiz-adv-x="1430" 
d="M43 1126q0 95 24.5 175.5t67 145.5t101 114.5t127.5 83t145.5 50.5t155.5 17q130 0 241.5 -35.5t193 -108t127.5 -183t45 -259.5l3 -1126h-336l-3 1069q2 181 -68 264.5t-202 83.5q-117 0 -189 -73t-81 -218h-352zM-1082 2224q0 -23 9 -44t24.5 -36.5t36.5 -25t44 -9.5
t44 9.5t37 25t25 36.5t9 44t-9.5 44t-25.5 36.5t-36.5 25t-43.5 9.5t-44 -9.5t-36.5 -25t-24.5 -36.5t-9 -44zM-1287 2224q0 66 24.5 124t67.5 101.5t101 69t124 25.5q64 0 122.5 -25.5t102.5 -69t70.5 -101.5t26.5 -124t-26 -124t-70 -101.5t-102.5 -68.5t-122.5 -25
q-66 0 -124 25t-101 68.5t-68 101.5t-25 124z" />
    <glyph glyph-name="uni0E33.alt1" horiz-adv-x="1430" 
d="M43 1126q0 95 24.5 175.5t67 145.5t101 114.5t127.5 83t145.5 50.5t155.5 17q130 0 241.5 -35.5t193 -108t127.5 -183t45 -259.5l3 -1126h-336l-3 1069q2 181 -68 264.5t-202 83.5q-117 0 -189 -73t-81 -218h-352zM-1082 2224q0 -23 9 -44t24.5 -36.5t36.5 -25t44 -9.5
t44 9.5t37 25t25 36.5t9 44t-9.5 44t-25.5 36.5t-36.5 25t-43.5 9.5t-44 -9.5t-36.5 -25t-24.5 -36.5t-9 -44zM-1287 2224q0 66 24.5 124t67.5 101.5t101 69t124 25.5q64 0 122.5 -25.5t102.5 -69t70.5 -101.5t26.5 -124t-26 -124t-70 -101.5t-102.5 -68.5t-122.5 -25
q-66 0 -124 25t-101 68.5t-68 101.5t-25 124z" />
    <glyph glyph-name="saraithai.alt1" 
d="M-1377 1933l136 267h1085v-267h-1221z" />
    <glyph glyph-name="saraiithai.alt1" 
d="M-1241 2200h770l-6 237h319l2 -504h-1221z" />
    <glyph glyph-name="sarauethai.alt1" 
d="M-706 2228q0 61 23 115t62 94t91.5 63t112.5 23q61 0 115.5 -23t95 -63t63.5 -94t22 -115q1 -62 -21.5 -115.5t-62 -93.5t-92.5 -63t-113 -23h-967l136 267h536zM-518 2228q0 -21 9 -40t23.5 -32.5t33 -21.5t38.5 -8q21 0 40.5 8t33.5 21.5t22.5 32.5t8.5 40
q-1 47 -31.5 77t-73.5 30q-21 0 -40.5 -8t-33.5 -22.5t-22 -34t-8 -42.5z" />
    <glyph glyph-name="saraueethai.alt1" 
d="M-1241 2200h332l-2 237h303l2 -237h147l-2 237h303l2 -504h-1221z" />
    <glyph glyph-name="saraithai.alt2" 
d="M-2163 1933l131 267h1450v-267h-1581z" />
    <glyph glyph-name="saraiithai.alt2" 
d="M-2032 2200h1131l-2 237h319l2 -504h-1581z" />
    <glyph glyph-name="sarauethai.alt2" 
d="M-1132 2228q0 61 23 115t62.5 94t92.5 63t115 23q61 0 115 -23t93.5 -63t62 -94t21.5 -115q1 -62 -21 -115.5t-61 -93.5t-92.5 -63t-114.5 -23h-1327l135 267h897zM-944 2228q0 -43 31 -72.5t77 -29.5q43 0 72 29.5t29 72.5q-1 47 -29.5 77t-71.5 30q-23 0 -43 -8
t-34.5 -22.5t-22.5 -34t-8 -42.5z" />
    <glyph glyph-name="saraueethai.alt2" 
d="M-2028 2200h689l-2 237h303l2 -237h151l-2 237h303l2 -504h-1581z" />
    <glyph glyph-name="maiekthai.alt2" 
d="M-895 3117h307l5 -491h-311z" />
    <glyph glyph-name="maithothai.alt2" 
d="M-1221 2621l1 250h-156l-4 250h422l4 -250q81 1 143.5 21.5t105.5 54.5t65 78.5t22 95.5h291q1 -97 -39.5 -187t-122.5 -159.5t-206.5 -111.5t-291.5 -42h-234z" />
    <glyph glyph-name="maitrithai.alt2" 
d="M-700 2621q-1 19 -3.5 50t-8.5 61t-16.5 52t-27.5 22t-27.5 -19t-16 -47t-7 -60.5t-0.5 -58.5h-217q-1 26 -3 58.5t-7.5 60.5t-15.5 47t-25 19q-17 0 -27.5 -22t-16 -52t-7 -61t-0.5 -50h-250q-8 111 11.5 192.5t58 135.5t90 80.5t108.5 26.5q59 0 107 -28t83 -75
q30 47 83 75t112 28q37 0 71.5 -11t64 -33.5t52 -56.5t35.5 -80q16 19 30 45.5t24 58t16 66t7 68.5h266q0 -50 -12 -103.5t-34.5 -105t-53.5 -99t-68.5 -85.5t-79.5 -64t-86 -35h-209z" />
    <glyph glyph-name="maichattawathai.alt2" 
d="M-593 2830l7 -209h-303l-3 209h-237l2 242h237l1 205h299l-1 -205h238l-2 -242h-238z" />
    <glyph glyph-name="saraithai.alt3" 
d="M-2064 1933l135 267h1773v-267h-1908z" />
    <glyph glyph-name="saraiithai.alt3" 
d="M-1929 2200h1458l-6 237h319l2 -504h-1908z" />
    <glyph glyph-name="sarauethai.alt3" 
d="M-518 2228q0 -21 9 -40t23.5 -32.5t33 -21.5t38.5 -8q21 0 40.5 8t33.5 21.5t22.5 32.5t8.5 40q-1 47 -31.5 77t-73.5 30q-21 0 -40.5 -8t-33.5 -22.5t-22 -34t-8 -42.5zM-706 2228q0 61 23 115t62 94t91.5 63t112.5 23q61 0 115.5 -23t95 -63t63.5 -94t22 -115
q1 -62 -21.5 -115.5t-62 -93.5t-92.5 -63t-113 -23h-1654l135 267h1224z" />
    <glyph glyph-name="saraueethai.alt3" 
d="M-1929 2200h1020l-2 237h303l2 -237h147l-2 237h303l2 -504h-1908z" />
    <glyph glyph-name="maiekthai.alt4" 
d="M-471 2912h312l-3 -491h-311z" />
    <glyph glyph-name="maithothai.alt4" 
d="M-775 2417v249h-156l1 250h417v-250q81 2 145 22t108 54t68 78.5t24 95.5h289q-1 -97 -41.5 -187t-123 -159.5t-206.5 -111t-292 -41.5h-233z" />
    <glyph glyph-name="maitrithai.alt4" 
d="M-439 2417q-1 18 -3.5 49t-8.5 61t-16.5 52t-27.5 22t-26 -19t-13.5 -47t-5.5 -60t-2 -58h-217q1 26 -1 58t-8 60t-16.5 47t-25.5 19q-17 0 -27.5 -22t-16 -52t-7 -61t-0.5 -49h-250q-8 111 11.5 192.5t57.5 135t90 80t109 26.5q59 0 107 -28t82 -75q31 47 82.5 75
t109.5 28q78 0 139.5 -44t87.5 -136q17 18 31.5 45t25 58.5t15.5 65.5t4 68h265q1 -50 -11 -103.5t-34 -105t-52.5 -98.5t-68 -85t-79.5 -64t-87 -35h-213z" />
    <glyph glyph-name="maichattawathai.alt4" 
d="M-165 2626v-209h-303v209h-233l-2 241h233l2 205h303l-2 -205h237l2 -241h-237z" />
    <glyph glyph-name="maiekthai.alt5" 
d="M-1004 2953h311l-2 -491h-311z" />
    <glyph glyph-name="maithothai.alt5" 
d="M-1304 2458v249h-156l1 250h421v-250q81 2 145 22t108.5 54t67.5 78.5t23 95.5h287q1 -97 -39.5 -187t-123 -159.5t-207.5 -111t-294 -41.5h-233z" />
    <glyph glyph-name="maitrithai.alt5" 
d="M-866 2458q1 18 -0.5 49t-7 61t-16 52t-27.5 22t-27.5 -19t-16.5 -47t-8.5 -60t-3.5 -58h-217q1 26 -0.5 58t-7 60t-15 47t-24.5 19q-17 0 -27.5 -22t-16.5 -52t-8 -61t-3 -49h-250q-8 111 12 192.5t59 135t92 80t110 26.5q58 0 104.5 -28t80.5 -75q31 47 86 75t114 28
q77 0 138 -44t84 -136q18 18 32 45t23.5 58.5t15 65.5t6.5 68h266q-1 -50 -13.5 -103.5t-35 -105t-53.5 -99t-68 -85t-78.5 -63.5t-85.5 -35h-213z" />
    <glyph glyph-name="maichattawathai.alt5" 
d="M-701 2666l-1 -208h-303l1 208h-238l-3 242h238l2 205h303l-2 -205h233l3 -242h-233z" />
    <glyph glyph-name="sarauthai.alt6" 
d="M-804 -819l-1 368h-148l4 258h463l-3 -626h-315z" />
    <glyph glyph-name="sarauuthai.alt6" 
d="M-1326 -193h467l-1 -229q-2 -80 32 -122t105 -42q68 0 104 42t37 122l1 229h316l-1 -229q-2 -87 -25.5 -164.5t-77 -135.5t-139.5 -92t-212 -34q-119 0 -204 28.5t-140.5 81t-84 125.5t-33.5 162h-147z" />
    <glyph glyph-name="phinthuthai.alt6" 
d="M-945 -369q1 48 19 89.5t49 73t72.5 49.5t89.5 18q46 0 87 -18t71.5 -49.5t48.5 -73t18 -89.5q0 -46 -17.5 -87t-47.5 -71.5t-71 -48.5t-87 -18q-48 0 -90 18t-73.5 48.5t-50 71.5t-18.5 87z" />
    <glyph glyph-name="sarauthai.alt7" 
d="M-763 -819l-1 368h-148l4 258h463l-3 -626h-315z" />
    <glyph glyph-name="sarauuthai.alt7" 
d="M-1531 -193h467l-1 -229q-2 -80 32 -122t105 -42q68 0 104 42t37 122l2 229h315l-1 -229q-1 -87 -25 -164.5t-77 -135.5t-139.5 -92t-212.5 -34q-118 0 -203 28.5t-141 81t-84.5 125.5t-33.5 162h-147z" />
    <glyph glyph-name="phinthuthai.alt7" 
d="M-879 -369q0 48 18 89.5t49 73t72.5 49.5t89.5 18q46 0 87.5 -18t72 -49.5t48.5 -73t17 -89.5q1 -46 -16.5 -87t-47.5 -71.5t-71 -48.5t-87 -18q-48 0 -90 18t-73.5 48.5t-50 71.5t-18.5 87z" />
    <glyph glyph-name="maihanakatthai.alt8" 
d="M-1271 1937v402h311l-2 -144h1286l1 -258h-1596z" />
    <glyph glyph-name="maiekthai.alt8" 
d="M-981 3117h311l1 -491h-311z" />
    <glyph glyph-name="maithothai.alt8" 
d="M-1249 2621v250h-156l-3 250h421l4 -250q81 1 144.5 21.5t106.5 54.5t65 78.5t20 95.5h291q1 -97 -38.5 -187t-121.5 -159.5t-206.5 -111.5t-293.5 -42h-233z" />
    <glyph glyph-name="maitrithai.alt8" 
d="M-655 2621q-1 19 -3.5 50t-8.5 61t-16.5 52t-27.5 22t-27.5 -19t-16 -47t-7 -60.5t-0.5 -58.5h-217q-1 26 -3 58.5t-7.5 60.5t-15.5 47t-25 19q-17 0 -27.5 -22t-16 -52t-7 -61t-0.5 -50h-250q-8 111 11.5 192.5t58 135.5t90 80.5t108.5 26.5q59 0 107 -28t83 -75
q30 47 83.5 75t111.5 28q37 0 71.5 -11t64 -33.5t52 -56.5t35.5 -80q16 19 30 45.5t24 58t16 66t7 68.5h266q1 -50 -11.5 -103.5t-35 -105t-53.5 -99t-68.5 -85.5t-79.5 -64t-86 -35h-209z" />
    <glyph glyph-name="maichattawathai.alt8" 
d="M-675 2830l3 -209h-303l-3 209h-237l2 242h237l1 205h299l4 -205h233l-2 -242h-234z" />
    </font>
</defs>
</svg>
