<svg height="24.311" viewBox="0 0 24 24.311" width="24" xmlns="http://www.w3.org/2000/svg"><g fill="none" stroke="#000" stroke-linecap="round" stroke-linejoin="round" stroke-width="1.5"><path d="m22.5 3h-22.5v-2.25a.75.75 0 0 1 .75-.75h21.75" transform="translate(.75 .75)"/><path d="m.808 19.5a2.758 2.758 0 0 1 0-3.9 2.758 2.758 0 0 0 0-3.9 2.758 2.758 0 0 1 0-3.9 2.758 2.758 0 0 0 0-3.9 2.758 2.758 0 0 1 0-3.9" transform="translate(11.942 3.75)"/><path d="m.808 19.5a2.758 2.758 0 0 1 0-3.9 2.758 2.758 0 0 0 0-3.9 2.758 2.758 0 0 1 0-3.9 2.758 2.758 0 0 0 0-3.9 2.758 2.758 0 0 1 0-3.9" transform="translate(8.25 3.75)"/><path d="m.808 19.5a2.758 2.758 0 0 1 0-3.9 2.758 2.758 0 0 0 0-3.9 2.758 2.758 0 0 1 0-3.9 2.758 2.758 0 0 0 0-3.9 2.758 2.758 0 0 1 0-3.9" transform="translate(4.5 3.75)"/><path d="m22.5 0h-22.5v2.25a.75.75 0 0 0 .75.75h3.209" transform="translate(.75 3.75)"/><path d="m0 .5h11.1" transform="translate(12.151 6.25)"/></g></svg>