<svg height="24.243" viewBox="0 0 24.053 24.243" width="24.053" xmlns="http://www.w3.org/2000/svg"><g fill="none" stroke="#000" stroke-linecap="round" stroke-linejoin="round" stroke-width="1.5"><path d="m2.363 4.726a2.363 2.363 0 1 0 -2.363-2.363 2.363 2.363 0 0 0 2.363 2.363z" transform="translate(3.468 11.898)"/><path d="m5.416 0a5.4 5.4 0 1 0 5.225 6.7 3.368 3.368 0 0 0 -.5-6.7z" transform="translate(.752 9.199)"/><path d="m9.206 1.514c-.606 1.26.351 2.5-.255 3.756s-2.168 1.284-2.773 2.544.351 2.5-.254 3.755-2.169 1.284-2.774 2.544l-3.15-1.513c.606-1.26 2.168-1.284 2.774-2.544s-.352-2.5.254-3.755 2.172-1.285 2.772-2.545-.35-2.5.256-3.756z" transform="translate(13.84 9.38)"/><path d="m14.625 5.25a2.625 2.625 0 1 0 0-5.25h-12a2.625 2.625 0 0 0 0 5.25z" transform="translate(6.018 .949)"/><path d="m.125 0 .75 2.25" transform="translate(9.643 .949)"/><path d="m.125 0 .75 2.25" transform="translate(13.393 .949)"/><path d="m.125 0 .75 2.25" transform="translate(17.143 .949)"/></g></svg>