<svg height="24" viewBox="0 0 19.5 24" width="19.5" xmlns="http://www.w3.org/2000/svg"><g fill="none" stroke="#000" stroke-linecap="round" stroke-linejoin="round" stroke-width="1.5"><path d="m1.5 0h15a1.5 1.5 0 0 1 1.5 1.5v1.5a1.5 1.5 0 0 1 -1.5 1.5h-15a1.5 1.5 0 0 1 -1.5-1.5v-1.5a1.5 1.5 0 0 1 1.5-1.5z" transform="translate(.75 3.75)"/><path d="m13.648 13.666a1.5 1.5 0 0 1 -1.491 1.334h-9.314a1.5 1.5 0 0 1 -1.491-1.334l-1.352-13.666h15z" transform="translate(2.25 8.25)"/><path d="m13.915.829a1.5 1.5 0 0 0 -1.342-.829h-10.146a1.5 1.5 0 0 0 -1.342.829l-1.085 2.171h15z" transform="translate(2.25 .75)"/><path d="m3 6a3 3 0 1 0 -3-3 3 3 0 0 0 3 3z" transform="translate(6.75 12.75)"/></g></svg>