<svg height="24.308" viewBox="0 0 24.273 24.308" width="24.273" xmlns="http://www.w3.org/2000/svg"><g fill="none" stroke="#000" stroke-linecap="round" stroke-linejoin="round" stroke-width="1.5"><path d="m22.5 0c0 6.213-5.036 9.75-11.25 9.75s-11.25-3.537-11.25-9.75z" transform="translate(.75 10.808)"/><path d="m1.334 0-1.255 2.51a.75.75 0 0 0 .671 1.09h9.573a.75.75 0 0 0 .671-1.085l-1.26-2.515" transform="translate(6.466 19.963)"/><path d="m19.5 6.747a3 3 0 0 0 -3-3h-2.493a5.222 5.222 0 0 0 -9.757-.7 3.717 3.717 0 0 0 -.5-.047 3.75 3.75 0 0 0 -3.75 3.747" transform="translate(2.25 4.061)"/><path d="m0 3 5.25-3" transform="translate(18 4.808)"/><path d="m0 5.392 4.621-5.392" transform="translate(15.629 1.058)"/></g></svg>