<svg height="24" viewBox="0 0 24 24" width="24" xmlns="http://www.w3.org/2000/svg"><g fill="none" stroke="#000" stroke-linecap="round" stroke-linejoin="round" stroke-width="1.5"><path d="m6 16.5h-3.75l-2.25-16.5h12.75l-.366 2.683" transform="translate(.75 6.75)"/><path d="m0 16.5 2.25-16.5 4.5.75" transform="translate(6 .75)"/><path d="m0 0h10.5v1.5a1.5 1.5 0 0 1 -1.5 1.5h-7.5a1.5 1.5 0 0 1 -1.5-1.5z" transform="translate(11.25 20.25)"/><path d="m3 0h4.5a3 3 0 0 1 3 3v1.5h-10.5v-1.5a3 3 0 0 1 3-3z" transform="translate(11.25 12.75)"/><path d="m1.5 0h10.5a1.5 1.5 0 0 1 0 3h-10.5a1.5 1.5 0 0 1 0-3z" transform="translate(9.75 17.25)"/></g></svg>