<svg height="3.569" viewBox="0 0 15.466 3.569" width="15.466" xmlns="http://www.w3.org/2000/svg" xmlns:xlink="http://www.w3.org/1999/xlink"><clipPath id="a"><path d="m4.285-10.5a1.782 1.782 0 0 0 -1.785 1.785 1.782 1.782 0 0 0 1.785 1.784 1.782 1.782 0 0 0 1.784-1.784 1.782 1.782 0 0 0 -1.784-1.785zm11.9 0a1.782 1.782 0 0 0 -1.785 1.785 1.782 1.782 0 0 0 1.785 1.785 1.782 1.782 0 0 0 1.785-1.785 1.782 1.782 0 0 0 -1.789-1.785zm-5.948 0a1.782 1.782 0 0 0 -1.789 1.785 1.782 1.782 0 0 0 1.785 1.785 1.782 1.782 0 0 0 1.785-1.785 1.782 1.782 0 0 0 -1.785-1.785z" transform="translate(-2.5 10.5)"/></clipPath><g clip-path="url(#a)"><path d="m-2.5-15.5h27.363v15.466h-27.363z" transform="translate(-3.448 9.552)"/></g></svg>