<svg height="19.654" viewBox="0 0 24.057 19.654" width="24.057" xmlns="http://www.w3.org/2000/svg"><g fill="none" stroke="#000" stroke-linecap="round" stroke-linejoin="round" stroke-width="1.5"><path d="m0 7.718c2.676.687 4.895 3.137 5.985 6.432a1.493 1.493 0 0 0 2.765.176 11.254 11.254 0 0 0 -4.679-14.326" transform="translate(13.561 3.727)"/><path d="m5.652 0a11.243 11.243 0 0 0 -4.725 14.219 1.5 1.5 0 0 0 2.807-.086c1.091-3.293 3.308-5.742 5.984-6.433" transform="translate(.775 3.741)"/><path d="m5.74 11.25c2.926 0 4.939-5.937 5.682-8.545a1.5 1.5 0 0 0 -.891-1.805 12.755 12.755 0 0 0 -4.791-.9 12.755 12.755 0 0 0 -4.791.9 1.5 1.5 0 0 0 -.891 1.807c.742 2.606 2.756 8.543 5.682 8.543z" transform="translate(6.287 .75)"/><path d="m0 0 5.184 4.32" transform="translate(1.442 9.68)"/><path d="m0 4.33 5.2-4.33" transform="translate(17.428 9.67)"/></g></svg>