<svg height="18" viewBox="0 0 23.997 18" width="23.997" xmlns="http://www.w3.org/2000/svg"><g fill="none" stroke="#000" stroke-linecap="round" stroke-linejoin="round" stroke-width="1.5"><path d="m16.5 0v2.75a3 3 0 0 1 -3 3h-10.5a3 3 0 0 1 -3-3v-2.75" transform="translate(3.75 11.5)"/><path d="m11.25 7.5a11.735 11.735 0 0 1 8.65 3.658 1.5 1.5 0 0 0 2.6-1.014v-.019c0-5.592-5.037-10.125-11.25-10.125s-11.25 4.533-11.25 10.125v.019a1.5 1.5 0 0 0 2.6 1.014 11.735 11.735 0 0 1 8.65-3.658z" transform="translate(.75 .75)"/><path d="m0 9.477 4.01-9.477" transform="translate(4.72 1.184)"/><path d="m0 7.188 3.042-7.188" transform="translate(11.74 1.062)"/><path d="m0 5.819 2.461-5.819" transform="translate(17.509 3.729)"/></g></svg>