<svg height="21.762" viewBox="0 0 24.147 21.762" width="24.147" xmlns="http://www.w3.org/2000/svg"><g fill="none" stroke="#000" stroke-linecap="round" stroke-linejoin="round" stroke-width="1.5"><path d="m22.5 0c0 4.971-5.036 9-11.25 9s-11.25-4.025-11.25-9z" transform="translate(.897 12.012)"/><path d="m1.991 2.25a6.79 6.79 0 0 0 -1.991-2.25" transform="translate(6.897 6.762)"/><path d="m11.423 4.979a3 3 0 0 0 -4.2-3.219 3 3 0 0 0 -5.464 2.483 3 3 0 0 0 -1.49 3.972l.017.036" transform="translate(.898 .761)"/><path d="m7.425 4.5a3.75 3.75 0 1 0 -7.35 0" transform="translate(14.397 4.516)"/></g></svg>