<svg height="24.302" viewBox="0 0 22.647 24.302" width="22.647" xmlns="http://www.w3.org/2000/svg"><g fill="none" stroke="#000" stroke-linecap="round" stroke-linejoin="round" stroke-width="1.5"><path d="m16.194 0a1.407 1.407 0 0 1 1.482 1.584 8.837 8.837 0 0 1 -8.83 6.666 8.837 8.837 0 0 1 -8.834-6.663 1.407 1.407 0 0 1 1.488-1.587z" transform="translate(4.206 11.549)"/><path d="m.5 0v3.75" transform="translate(12.552 19.802)"/><path d="m0 .5h6" transform="translate(10.052 23.052)"/><path d="m.075 4.5a3.751 3.751 0 1 1 7.425-.755v.755" transform="translate(5.55 7.057)"/><path d="m7.43 4.482a3.751 3.751 0 1 0 -7.43-.752v.75" transform="translate(13.052 7.072)"/><path d="m7.5 3.75a3.75 3.75 0 0 0 -7.5 0" transform="translate(9.302 3.302)"/><path d="m5.555 7.142-5.555-7.142" transform="translate(1.052 1.052)"/></g></svg>