<svg height="23.407" viewBox="0 0 23.407 23.407" width="23.407" xmlns="http://www.w3.org/2000/svg"><g fill="none" stroke="#000" stroke-linecap="round" stroke-linejoin="round" stroke-width="1.5" transform="translate(.826 .825)"><path d="m15.22 0 .27.27a4.294 4.294 0 0 1 -.016 6.072l-9.131 9.132a4.294 4.294 0 0 1 -6.073.015l-.27-.27" transform="translate(5.017 5.018)"/><path d="m1.519 16.739-.27-.27a4.294 4.294 0 0 1 .016-6.069l9.135-9.135a4.294 4.294 0 0 1 6.073-.015l.27.27"/><path d="m2.855 0h18.683a2.855 2.855 0 0 1 0 5.71h-18.683a2.855 2.855 0 0 1 0-5.71z" transform="matrix(.70710678 -.70710678 .70710678 .70710678 .235 17.484)"/><path d="m0 12.175.323-1.593a1.442 1.442 0 0 1 1.126-1.126l.659-.133a1.44 1.44 0 0 0 1.125-1.128l.134-.659a1.442 1.442 0 0 1 1.125-1.126l.66-.133a1.442 1.442 0 0 0 1.125-1.126l.134-.659a1.44 1.44 0 0 1 1.125-1.126l.659-.133a1.442 1.442 0 0 0 1.126-1.126l.134-.659a1.437 1.437 0 0 1 1.128-1.125l1.595-.323" transform="translate(5.295 5.296)"/></g></svg>