<svg height="53.584" viewBox="0 0 43.467 53.584" width="43.467" xmlns="http://www.w3.org/2000/svg"><g fill="none" stroke="#5754d6" stroke-linecap="round" stroke-linejoin="round" stroke-width="3"><path d="m3.372 0h33.723a3.372 3.372 0 0 1 3.372 3.372v3.373a3.372 3.372 0 0 1 -3.372 3.372h-33.723a3.372 3.372 0 0 1 -3.372-3.372v-3.373a3.372 3.372 0 0 1 3.372-3.372z" transform="translate(1.5 8.245)"/><path d="m30.683 30.723a3.372 3.372 0 0 1 -3.352 3h-20.939a3.372 3.372 0 0 1 -3.352-3l-3.04-30.723h33.723z" transform="translate(4.872 18.361)"/><path d="m31.283 1.864a3.372 3.372 0 0 0 -3.017-1.864h-22.81a3.372 3.372 0 0 0 -3.017 1.864l-2.439 4.881h33.723z" transform="translate(4.872 1.5)"/><path d="m6.745 13.489a6.745 6.745 0 1 0 -6.745-6.744 6.745 6.745 0 0 0 6.745 6.744z" transform="translate(14.989 28.478)"/></g></svg>