<svg height="53.845" viewBox="0 0 50.148 53.845" width="50.148" xmlns="http://www.w3.org/2000/svg"><g fill="none" stroke="#fe8c01" stroke-linecap="round" stroke-linejoin="round" stroke-width="3"><path d="m37.8.007a3.363 3.363 0 0 1 2.6.993 3.056 3.056 0 0 1 .859 2.548c-2.372 8.971-10.942 15.16-20.61 14.885-9.675.274-18.249-5.915-20.622-14.89a3.056 3.056 0 0 1 .862-2.551 3.364 3.364 0 0 1 2.611-.985z" transform="translate(7.358 25.543)"/><path d="m.5 0v8.373" transform="translate(28.399 43.971)"/><path d="m0 .5h13.4" transform="translate(22.201 51.845)"/><path d="m.168 10.042a8.376 8.376 0 1 1 16.583-1.679v1.675" transform="translate(12.148 15.513)"/><path d="m16.59 10.008a8.376 8.376 0 1 0 -16.59-1.679v1.671" transform="translate(28.899 15.547)"/><path d="m16.747 8.373a8.373 8.373 0 1 0 -16.747 0" transform="translate(20.526 7.129)"/><path d="m12.4 15.947-12.4-15.947" transform="translate(2.105 2.105)"/></g></svg>