<svg height="53.584" viewBox="0 0 53.584 53.584" width="53.584" xmlns="http://www.w3.org/2000/svg"><g fill="none" stroke="#237be6" stroke-linecap="round" stroke-linejoin="round" stroke-width="3"><path d="m13.489 37.095h-8.431l-5.058-37.095h28.664l-.823 6.032" transform="translate(1.5 14.989)"/><path d="m0 37.095 5.058-37.095 10.117 1.686" transform="translate(13.303 1.5)"/><path d="m0 0h23.606v3.372a3.372 3.372 0 0 1 -3.372 3.372h-16.862a3.372 3.372 0 0 1 -3.372-3.372z" transform="translate(25.106 45.339)"/><path d="m6.745 0h10.116a6.745 6.745 0 0 1 6.745 6.745v3.372h-23.606v-3.372a6.745 6.745 0 0 1 6.745-6.745z" transform="translate(25.106 28.478)"/><path d="m3.372 0h23.606a3.372 3.372 0 1 1 0 6.745h-23.606a3.372 3.372 0 0 1 0-6.745z" transform="translate(21.734 38.595)"/></g></svg>