<svg height="40.493" viewBox="0 0 54.12 40.493" width="54.12" xmlns="http://www.w3.org/2000/svg"><g fill="none" stroke="#ff2d55" stroke-linecap="round" stroke-linejoin="round" stroke-width="3"><path d="m38.857 0v5.623c0 3.388-3.163 6.134-7.065 6.134h-24.727c-3.902.001-7.065-2.746-7.065-6.134v-5.623" transform="translate(7.634 27.235)"/><path d="m25.563 17.755a26.156 26.156 0 0 1 19.649 8.66 3.314 3.314 0 0 0 3.738.894 3.551 3.551 0 0 0 2.17-3.295v-.045c.007-13.238-11.439-23.969-25.557-23.969s-25.563 10.731-25.563 23.969v.045a3.551 3.551 0 0 0 2.17 3.295 3.314 3.314 0 0 0 3.738-.894 26.156 26.156 0 0 1 19.655-8.66z" transform="translate(1.5 1.5)"/><path d="m0 19.379 8.2-19.379" transform="translate(10.717 2.387)"/><path d="m0 14.7 6.22-14.7" transform="translate(26.864 2.138)"/><path d="m0 11.9 5.032-11.9" transform="translate(40.887 8.638)"/></g></svg>