<svg xmlns="http://www.w3.org/2000/svg" width="93.756" height="145.879" viewBox="0 0 93.756 145.879">
  <defs>
    <style>
      .cls-1, .cls-2, .cls-3, .cls-5 {
        fill: none;
      }

      .cls-2, .cls-3, .cls-4, .cls-5 {
        stroke: #d5d5d5;
        stroke-miterlimit: 10;
        stroke-width: 1.5px;
      }

      .cls-2, .cls-5 {
        stroke-linecap: round;
      }

      .cls-4 {
        fill: #fff;
      }

      .cls-5 {
        stroke-linejoin: round;
      }
    </style>
  </defs>
  <g id="emptycart" transform="translate(0.75 0.75)">
    <path id="Rectangle" class="cls-1" d="M2.477,0H85.452L78.022,11.146l9.908,7.431H0l11.146-7.431Z" transform="translate(1.231 35.915)"/>
    <path id="bag" class="cls-2" d="M87.359,91.126H4.9A4.768,4.768,0,0,1,0,86.511V3.46A3.625,3.625,0,0,1,3.762,0H89.807a2.384,2.384,0,0,1,2.449,2.307v84.2A4.768,4.768,0,0,1,87.359,91.126Z" transform="translate(0 53.253)"/>
    <path id="Rectangle-2" data-name="Rectangle" class="cls-3" d="M86.691,0V14.861a2.36,2.36,0,0,1-2.223,2.477H2.223A2.36,2.36,0,0,1,0,14.861V0" transform="translate(89.16 53.253) rotate(180)"/>
    <circle id="Oval" class="cls-4" cx="4.663" cy="4.663" r="4.663" transform="translate(20.97 69.949)"/>
    <circle id="Oval-2" data-name="Oval" class="cls-4" cx="4.663" cy="4.663" r="4.663" transform="translate(62.006 69.949)"/>
    <path id="Oval-3" data-name="Oval" class="cls-2" d="M39.63-16A19.815,19.815,0,0,1,19.815,3.815,19.815,19.815,0,0,1,0-16" transform="translate(26 95.26)"/>
    <path id="Path_3" data-name="Path 3" class="cls-2" d="M1.314,0l8.8,8.688a1.238,1.238,0,0,1-.27,1.965L0,16.1" transform="translate(2.47 37.149)"/>
    <path id="Path_3-2" data-name="Path 3" class="cls-2" d="M.163,0-8.261,8.591a1.238,1.238,0,0,0,.291,1.954L2.054,16.014" transform="translate(87.894 37.239)"/>
    <path id="lines" class="cls-5" d="M64.522,5.329,50.776,20.752ZM32.2,0V0ZM0,5.329,13.746,20.752Z" transform="translate(13.616)"/>
  </g>
</svg>
