<svg id="Layer_1" data-name="Layer 1" xmlns="http://www.w3.org/2000/svg" viewBox="0 0 93.76 145.9"><defs><style>.cls-1{fill:none;}.cls-2{fill:#d5d5d5;}.cls-3{fill:#fff;}</style></defs><title>emptyCart</title><g id="emptycart"><g id="Rectangle"><path class="cls-1" d="M91.18,140.74h83l-7.43,11.15,9.91,7.43H88.71l11.14-7.43Z" transform="translate(-86.73 -104.06)"/></g><g id="bag"><path class="cls-2" d="M92.22,250a5.52,5.52,0,0,1-5.49-5.35V161.54a4.39,4.39,0,0,1,4.54-4.21h86a3.12,3.12,0,0,1,3.2,3v84.23a5.53,5.53,0,0,1-5.65,5.37H92.22Zm-1.1-91.13a2.88,2.88,0,0,0-2.89,2.74v83a4,4,0,0,0,4.13,3.87h82.5a4,4,0,0,0,4.12-3.9V160.39a1.65,1.65,0,0,0-1.68-1.56H91.12Z" transform="translate(-86.73 -104.06)"/></g><g id="Rectangle-2"><path class="cls-2" d="M177.39,158.08h-1.5V143.22a1.63,1.63,0,0,0-1.52-1.73H92.17a1.62,1.62,0,0,0-1.48,1.69v14.9H89.2V143.22A3.1,3.1,0,0,1,92.13,140h82.28a3.13,3.13,0,0,1,3,3.27Z" transform="translate(-86.73 -104.06)"/></g><g id="Oval"><circle class="cls-3" cx="26.38" cy="75.38" r="4.66"/><path class="cls-2" d="M113.11,184.85a5.42,5.42,0,1,1,5.41-5.41A5.41,5.41,0,0,1,113.11,184.85Zm0-9.33a3.92,3.92,0,1,0,3.91,3.92A3.92,3.92,0,0,0,113.11,175.52Z" transform="translate(-86.73 -104.06)"/></g><g id="Oval-2"><circle class="cls-3" cx="67.42" cy="75.38" r="4.66"/><path class="cls-2" d="M154.15,184.85a5.42,5.42,0,1,1,5.41-5.41A5.42,5.42,0,0,1,154.15,184.85Zm0-9.33a3.92,3.92,0,1,0,3.91,3.92A3.93,3.93,0,0,0,154.15,175.52Z" transform="translate(-86.73 -104.06)"/></g><g id="Oval-3"><path class="cls-2" d="M133.29,204.65a20.58,20.58,0,0,1-20.56-20.56.75.75,0,0,1,1.5,0,19.07,19.07,0,0,0,38.13,0,.75.75,0,0,1,1.5,0A20.59,20.59,0,0,1,133.29,204.65Z" transform="translate(-86.73 -104.06)"/></g><g id="Path_3" data-name="Path 3"><path class="cls-2" d="M90,158.83a.75.75,0,0,1-.37-1.41L99.43,152l.11-.08a.48.48,0,0,0,0-.69l-8.8-8.69a.75.75,0,0,1,0-1.06.75.75,0,0,1,1.06,0l8.8,8.69a1.94,1.94,0,0,1,.59,1.4,2,2,0,0,1-.57,1.41,2,2,0,0,1-.46.34l-9.84,5.45A.81.81,0,0,1,90,158.83Z" transform="translate(-86.73 -104.06)"/></g><g id="Path_3-2" data-name="Path 3-2"><path class="cls-2" d="M177.42,158.83a.73.73,0,0,1-.35-.09l-10-5.47a2,2,0,0,1-.44-.33,1.94,1.94,0,0,1-.59-1.4,1.92,1.92,0,0,1,.57-1.41l8.42-8.59a.75.75,0,0,1,1.07,1.05l-8.42,8.59a.43.43,0,0,0-.14.35.48.48,0,0,0,.14.34l.11.08,10,5.47a.75.75,0,0,1,.3,1A.74.74,0,0,1,177.42,158.83Z" transform="translate(-86.73 -104.06)"/></g><g id="lines"><path class="cls-2" d="M151.87,126.33a.73.73,0,0,1-.5-.19.75.75,0,0,1-.25-.56.73.73,0,0,1,.19-.5l13.75-15.42a.74.74,0,0,1,1.05-.07.76.76,0,0,1,.26.56.74.74,0,0,1-.2.5l-13.74,15.43A.77.77,0,0,1,151.87,126.33Zm-37,0a.77.77,0,0,1-.56-.25l-13.75-15.43a.75.75,0,0,1,.06-1.06.76.76,0,0,1,1.06.07l13.75,15.42a.73.73,0,0,1,.19.5.78.78,0,0,1-.25.56A.75.75,0,0,1,114.84,126.33Zm18.06-.3a.73.73,0,0,1-.25-.55l-.22-20.66a.74.74,0,0,1,.19-.5.71.71,0,0,1,.56-.26.74.74,0,0,1,.75.74l.22,20.66a.74.74,0,0,1-.19.5.71.71,0,0,1-.55.26A.76.76,0,0,1,132.9,126Z" transform="translate(-86.73 -104.06)"/></g></g></svg>