<svg id="Layer_1" data-name="Layer 1" xmlns="http://www.w3.org/2000/svg" viewBox="0 0 12.09 6.92"><defs><style>.cls-1{fill:#19baed;}</style></defs><title>arrow-down-blue</title><path class="cls-1" d="M413.67,26.29a.46.46,0,0,1,.08.25.33.33,0,0,1-.08.22L408,32.5a.41.41,0,0,1-.24.08.31.31,0,0,1-.22-.08l-5.74-5.74a.29.29,0,0,1-.09-.22.4.4,0,0,1,.09-.25l.54-.54a.29.29,0,0,1,.22-.09.4.4,0,0,1,.25.09l4.95,4.95,5-4.95a.36.36,0,0,1,.24-.09.28.28,0,0,1,.22.09Z" transform="translate(-401.66 -25.66)"/></svg>