<svg xmlns="http://www.w3.org/2000/svg" width="23" height="23" viewBox="0 0 23 23">
  <g id="Group_12461" data-name="Group 12461" transform="translate(0.25 24.25)">
    <g id="Group_12456" data-name="Group 12456" transform="translate(0.75 -20.25)">
      <path id="Path_9605" data-name="Path 9605" d="M1.4,0H19.6A1.392,1.392,0,0,1,21,1.385V16.615A1.392,1.392,0,0,1,19.6,18H1.4A1.392,1.392,0,0,1,0,16.615V1.385A1.392,1.392,0,0,1,1.4,0Z" fill="none" stroke="#0abaee" stroke-linejoin="round" stroke-width="2"/>
    </g>
    <g id="Group_12457" data-name="Group 12457" transform="translate(0.75 -14.85)">
      <path id="Path_9606" data-name="Path 9606" d="M0,.5H21" transform="translate(0 -0.5)" fill="none" stroke="#0abaee" stroke-linejoin="round" stroke-width="2"/>
    </g>
    <g id="Group_12458" data-name="Group 12458" transform="translate(6.35 -23.25)">
      <path id="Path_9607" data-name="Path 9607" d="M.5,5.25V0" transform="translate(-0.5)" fill="none" stroke="#0abaee" stroke-linecap="round" stroke-linejoin="round" stroke-width="2"/>
    </g>
    <g id="Group_12459" data-name="Group 12459" transform="translate(16.15 -23.25)">
      <path id="Path_9608" data-name="Path 9608" d="M.5,5.25V0" transform="translate(-0.5)" fill="none" stroke="#0abaee" stroke-linecap="round" stroke-linejoin="round" stroke-width="2"/>
    </g>
    <g id="Group_12460" data-name="Group 12460" transform="translate(7.5 -11.659)">
      <path id="Path_9609" data-name="Path 9609" d="M7.5,0,3,6,0,3" fill="none" stroke="#0abaee" stroke-linecap="round" stroke-linejoin="round" stroke-width="2"/>
    </g>
  </g>
</svg>
