<svg xmlns="http://www.w3.org/2000/svg" width="97" height="97" viewBox="0 0 97 97">
  <defs>
    <style>
      .cls-1 {
        fill: #7ed321;
      }
    </style>
  </defs>
  <path id="Shape" class="cls-1" d="M48.5,97A48.513,48.513,0,0,1,29.623,3.812,48.512,48.512,0,0,1,67.378,93.189,48.191,48.191,0,0,1,48.5,97ZM27.886,49.788a4.027,4.027,0,0,0-2.851,1.171,3.958,3.958,0,0,0,0,5.644L38.959,70.388a4.06,4.06,0,0,0,5.7,0l30.485-30.18a3.958,3.958,0,0,0,0-5.644,4.058,4.058,0,0,0-5.7,0L41.809,61.921,30.737,50.959A4.027,4.027,0,0,0,27.886,49.788Z"/>
</svg>
