<svg xmlns="http://www.w3.org/2000/svg" width="19.95" height="15.627" viewBox="0 0 19.95 15.627">
  <defs>
    <style>
      .cls-1 {
        fill: #d6d6d6;
      }
    </style>
  </defs>
  <path id="credit_card" data-name="credit card" class="cls-1" d="M549.456,74.627H534.494a2.551,2.551,0,0,1-2.494-2.6V61.6a2.551,2.551,0,0,1,2.494-2.6h14.963a2.551,2.551,0,0,1,2.494,2.6V72.022A2.551,2.551,0,0,1,549.456,74.627Zm0-11.72a1.275,1.275,0,0,0-1.247-1.3H535.74a1.275,1.275,0,0,0-1.247,1.3v1.3h14.963Zm0,3.907H534.494V70.72a1.275,1.275,0,0,0,1.247,1.3h12.469a1.275,1.275,0,0,0,1.247-1.3Zm-9.975,3.907h-2.494a1.3,1.3,0,0,1,0-2.6h2.494a1.3,1.3,0,0,1,0,2.6Z" transform="translate(-532 -58.999)"/>
</svg>
