<svg xmlns="http://www.w3.org/2000/svg" width="95.494" height="63.333" viewBox="0 0 95.494 63.333">
  <defs>
    <style>
      .cls-1 {
        fill: #e5e5e5;
      }
    </style>
  </defs>
  <g id="Component_20_1" data-name="Component 20 – 1" transform="translate(-0.001)">
    <path id="Op_component_1" data-name="Op component 1" class="cls-1" d="M1478.859,1964.405a1.425,1.425,0,0,0-.032-.22l0-.012a1.5,1.5,0,0,0-.064-.2l-.013-.034c0-.011-.008-.021-.013-.032a1.507,1.507,0,0,0-.08-.154l-.019-.031a1.475,1.475,0,0,0-.126-.175l-.012-.014a1.509,1.509,0,0,0-.578-.416l-.007,0a1.519,1.519,0,0,0-.219-.068l-.012,0a1.514,1.514,0,0,0-.224-.032h-.015a1.545,1.545,0,0,0-.224,0l-.018,0a1.559,1.559,0,0,0-.222.039h0l-78.4,20.1a1.508,1.508,0,0,0-.075,2.9l23.164,7.24,3.953,19.765a1.508,1.508,0,0,0,2.315.959l11.715-7.811,12.472,13.607a1.508,1.508,0,0,0,2.489-.406l24.125-54.286s0-.01.005-.015a1.548,1.548,0,0,0,.071-.2l.009-.034a1.522,1.522,0,0,0,.037-.208c0-.01,0-.019,0-.029a1.483,1.483,0,0,0,0-.219A.05.05,0,0,0,1478.859,1964.405Zm-50.727,45.856-3.188-15.941,5.334,1.667,7.306,7.971Zm24.655,5.82-19.358-21.12,11.586-7.557a1.493,1.493,0,0,0,.24-2.306l-.021-.022a1.493,1.493,0,0,0-1.871-.195l-12.474,8.136-26.426-8.258,64.412-16.517-18.128,11.824a1.508,1.508,0,0,0,1.647,2.526l6.6-4.305,14.913-9.726Z" transform="translate(-1383.369 -1963.003)"/>
    <path id="Op_component_2" data-name="Op component 2" class="cls-1" d="M1392.623,2052.4h-22.115a1.508,1.508,0,0,0,0,3.016h22.114a1.508,1.508,0,0,0,0-3.016Z" transform="translate(-1369 -2008.165)"/>
    <path id="Op_component_3" data-name="Op component 3" class="cls-1" d="M1547.147,2084.9h-10.052a1.508,1.508,0,0,0,0,3.016h10.052a1.508,1.508,0,0,0,0-3.016Z" transform="translate(-1453.16 -2024.587)"/>
    <path id="Op_component_4" data-name="Op component 4" class="cls-1" d="M1427.264,2076.777H1415.2a1.508,1.508,0,0,0,0,3.016h12.063a1.508,1.508,0,0,0,0-3.016Z" transform="translate(-1391.579 -2020.481)"/>
    <path id="Op_component_5" data-name="Op component 5" class="cls-1" d="M1463.874,1963h-8.042a1.508,1.508,0,0,0,0,3.016h8.042a1.508,1.508,0,0,0,0-3.016Z" transform="translate(-1412.106 -1963.002)"/>
  </g>
</svg>
