<svg xmlns="http://www.w3.org/2000/svg" width="335.445" height="151" viewBox="0 0 335.445 151">
  <defs>
    <style>
      .cls-1 {
        fill: #f4f4f4;
      }

      .cls-2 {
        fill: #b9bbd9;
      }

      .cls-3 {
        fill: #fff;
      }

      .cls-4 {
        fill: none;
        stroke: #d5d5d5;
        stroke-width: 4px;
      }

      .cls-5, .cls-6 {
        fill: #d5d5d5;
        font-family: Gotham-Medium, Gotham;
        font-weight: 500;
      }

      .cls-5 {
        font-size: 151px;
      }

      .cls-6 {
        font-size: 150px;
      }
    </style>
  </defs>
  <g id="Group_11152" data-name="Group 11152" transform="translate(-254.798 -352.48)">
    <g id="Sad_96px_1" transform="translate(365.916 369.594)">
      <path id="Path_759" data-name="Path 759" class="cls-1" d="M122.809,66.4A56.4,56.4,0,1,1,66.4,10,56.4,56.4,0,0,1,122.809,66.4Z" transform="translate(-10 -10)"/>
      <path id="Path_760" data-name="Path 760" class="cls-2" d="M46.808,48.4A10.4,10.4,0,1,1,36.4,38,10.4,10.4,0,0,1,46.808,48.4Z" transform="translate(1.793 12.384)"/>
      <path id="Path_761" data-name="Path 761" class="cls-3" d="M35.8,43.9A3.9,3.9,0,1,1,31.9,40,3.9,3.9,0,0,1,35.8,43.9Z" transform="translate(2.394 12.985)"/>
      <path id="Path_762" data-name="Path 762" class="cls-2" d="M74.808,48.4A10.4,10.4,0,1,1,64.4,38,10.4,10.4,0,0,1,74.808,48.4Z" transform="translate(10.208 12.384)"/>
      <path id="Path_763" data-name="Path 763" class="cls-3" d="M63.8,43.9A3.9,3.9,0,1,1,59.9,40,3.9,3.9,0,0,1,63.8,43.9Z" transform="translate(10.809 12.985)"/>
      <path id="Path_764" data-name="Path 764" class="cls-4" d="M60.808,74.4A10.4,10.4,0,0,0,40,74.4" transform="translate(6 20.197)"/>
    </g>
    <text id="_4" data-name="4" class="cls-5" transform="translate(254.798 473.48)"><tspan x="0" y="0">4</tspan></text>
    <text id="_4-2" data-name="4" class="cls-6" transform="translate(487.243 472.703)"><tspan x="0" y="0">4</tspan></text>
  </g>
</svg>
