<svg height="19" viewBox="0 0 23 19" width="23" xmlns="http://www.w3.org/2000/svg" xmlns:xlink="http://www.w3.org/1999/xlink"><clipPath id="a"><path d="m1.5-19.5h21a1 1 0 0 1 1 1v1a1 1 0 0 1 -1 1h-21a1 1 0 0 1 -1-1v-1a1 1 0 0 1 1-1z"/></clipPath><clipPath id="b"><path d="m1.5-11.5h21a1 1 0 0 1 1 1v1a1 1 0 0 1 -1 1h-21a1 1 0 0 1 -1-1v-1a1 1 0 0 1 1-1z"/></clipPath><clipPath id="c"><path d="m1.5-3.5h21a1 1 0 0 1 1 1v1a1 1 0 0 1 -1 1h-21a1 1 0 0 1 -1-1v-1a1 1 0 0 1 1-1z"/></clipPath><g transform="translate(-.5 19.5)"><g clip-path="url(#a)"><path d="m-4.5-24.5h33v13h-33z" fill="#2c317a"/></g><g clip-path="url(#b)"><path d="m-4.5-16.5h33v13h-33z" fill="#2c317a"/></g><g clip-path="url(#c)"><path d="m-4.5-8.5h33v13h-33z" fill="#2c317a"/></g></g></svg>