<svg id="Group_10745" data-name="Group 10745" xmlns="http://www.w3.org/2000/svg" width="70" height="70" viewBox="0 0 70 70">
  <defs>
    <style>
      .cls-1 {
        fill: none;
      }

      .cls-2 {
        fill: #00c300;
      }

      .cls-3 {
        fill: #fff;
      }
    </style>
  </defs>
  <path id="Path_9123" data-name="Path 9123" class="cls-1" d="M35,0A35,35,0,1,1,0,35,35,35,0,0,1,35,0Z" transform="translate(0)"/>
  <g id="Component_18_1" data-name="Component 18 – 1" transform="translate(15.5 16.5)">
    <path id="Path_1" data-name="Path 1" class="cls-2" d="M340.968,364.809a9.552,9.552,0,0,0,.151-1.157,14.543,14.543,0,0,0-.018-1.485c-.464-8.068-8.835-14.5-19.093-14.5-10.556,0-19.113,6.807-19.113,15.2,0,7.717,7.229,14.092,16.6,15.072a1.039,1.039,0,0,1,.922,1.149l-.4,3.589a1.042,1.042,0,0,0,1.49,1.051c7.913-3.819,12.645-7.748,15.471-11.152.514-.619,2.191-2.968,2.533-3.585A12.794,12.794,0,0,0,340.968,364.809Z" transform="translate(-302.895 -347.67)"/>
    <path id="Path_2" data-name="Path 2" class="cls-3" d="M592.8,827.215v-6.4a.978.978,0,0,0-.978-.978h0a.978.978,0,0,0-.978.978v7.381a.978.978,0,0,0,.978.978h3.911a.978.978,0,0,0,.978-.978h0a.978.978,0,0,0-.978-.978Z" transform="translate(-584.197 -808.933)"/>
    <path id="Path_3" data-name="Path 3" class="cls-3" d="M886.344,829.17h-.427a.764.764,0,0,1-.764-.764V820.6a.764.764,0,0,1,.764-.764h.427a.764.764,0,0,1,.764.764v7.809A.764.764,0,0,1,886.344,829.17Z" transform="translate(-871.71 -808.933)"/>
    <path id="Path_4" data-name="Path 4" class="cls-3" d="M1039.037,820.81v4.509s-3.9-5.093-3.964-5.16a.973.973,0,0,0-.766-.327,1,1,0,0,0-.94,1.017v7.341a.978.978,0,0,0,.978.978h0a.978.978,0,0,0,.977-.978v-4.482s3.964,5.137,4.022,5.193a.974.974,0,0,0,.662.267,1.014,1.014,0,0,0,.987-1.018V820.81a.978.978,0,0,0-.978-.978h0A.978.978,0,0,0,1039.037,820.81Z" transform="translate(-1016.502 -808.932)"/>
    <path id="Path_5" data-name="Path 5" class="cls-3" d="M1433.048,820.811h0a.978.978,0,0,0-.978-.978h-3.911a.978.978,0,0,0-.978.978v7.381a.978.978,0,0,0,.978.978h3.911a.978.978,0,0,0,.978-.978h0a.978.978,0,0,0-.978-.978h-2.933V825.48h2.933a.978.978,0,0,0,.978-.978h0a.978.978,0,0,0-.978-.978h-2.933v-1.736h2.933A.977.977,0,0,0,1433.048,820.811Z" transform="translate(-1401.226 -808.933)"/>
  </g>
</svg>
