<svg xmlns="http://www.w3.org/2000/svg" width="18.478" height="18.483" viewBox="0 0 18.478 18.483">
  <defs>
    <style>
      .cls-1 {
        fill: #d6d6d6;
      }
    </style>
  </defs>
  <path id="map" class="cls-1" d="M132.858,1958.168v-3.662l1.5-1.5.812.541,2.31,6.929Zm-4.176-2.452a.763.763,0,0,1-.888,0s-5.33-4-5.33-7.537a1.429,1.429,0,0,1,.015-.145c-.005-.1-.015-.2-.015-.3a5.774,5.774,0,0,1,11.549,0c0,.1-.01.2-.015.3a1.429,1.429,0,0,1,.015.145C134.013,1951.713,129.127,1955.384,128.682,1955.716Zm-.444-10.187a2.209,2.209,0,1,0,2.221,2.208A2.215,2.215,0,0,0,128.238,1945.529Zm-4.619,12.639-4.619,2.31,2.31-6.929.812-.541,1.5,1.5Zm2.986-.676a2.31,2.31,0,0,0,3.267,0h0l1.831-1.831v3.085l-3.464,1.733-3.465-1.733v-3.085l1.831,1.831Z" transform="translate(-119 -1941.995)"/>
</svg>
