<svg xmlns="http://www.w3.org/2000/svg" xmlns:xlink="http://www.w3.org/1999/xlink" width="26" height="23.707" viewBox="0 0 26 23.707">
  <defs>
    <style>
      .cls-1 {
        fill: #666;
      }

      .cls-2 {
        fill: #8e8e8e;
        font-size: 7px;
        font-family: Gotham-Medium, Gotham;
        font-weight: 500;
        letter-spacing: 0.1em;
      }

      .cls-3 {
        clip-path: url(#clip-path);
      }

      .cls-4 {
        clip-path: url(#clip-path-2);
      }
    </style>
    <clipPath id="clip-path">
      <path id="Path_9125" data-name="Path 9125" class="cls-1" d="M18.878-11.534c-2.149-2.282-5.312-4.308-8.59-4.456C10.128-16,9.974-16,9.81-16c-3.477.027-6.641,1.947-8.945,4.336l-.123.129a2.654,2.654,0,0,0,0,3.681C1.728-6.807,5.29-3.387,9.706-3.387h.209c4.415,0,7.978-3.42,8.965-4.467A2.653,2.653,0,0,0,18.878-11.534ZM17.67-8.916C15.9-7.033,13.321-5.246,10.6-5a7.049,7.049,0,0,1-.795.035A11.334,11.334,0,0,1,2.219-8.636q-.137-.137-.269-.278a1.133,1.133,0,0,1,0-1.559c1.935-2.058,4.862-4.017,7.86-3.95a7.936,7.936,0,0,1,3.063.61,12.584,12.584,0,0,1,2.78,1.558,14.608,14.608,0,0,1,2.019,1.779A1.133,1.133,0,0,1,17.67-8.916Z" transform="translate(-0.001 16)"/>
    </clipPath>
    <clipPath id="clip-path-2">
      <path id="Path_9127" data-name="Path 9127" class="cls-1" d="M11.547-12a3.459,3.459,0,0,0-.348.018.221.221,0,0,0-.177.125.221.221,0,0,0,.015.216,1.768,1.768,0,0,1-.289,2.287,1.768,1.768,0,0,1-2.3.057.222.222,0,0,0-.211-.037.222.222,0,0,0-.144.159A3.178,3.178,0,0,0,8-8.453a3.547,3.547,0,0,0,3.547,3.547,3.547,3.547,0,0,0,3.547-3.547A3.547,3.547,0,0,0,11.547-12Z" transform="translate(-8 12)"/>
    </clipPath>
  </defs>
  <g id="Show" transform="translate(-352 -342.293)">
    <text id="Show-2" data-name="Show" class="cls-2" transform="translate(352 365)"><tspan x="0" y="0">SHOW</tspan></text>
    <g id="show-3" data-name="show" transform="translate(355 342.293)">
      <g id="Group_9323" data-name="Group 9323" class="cls-3" transform="translate(0)">
        <path id="Path_9124" data-name="Path 9124" class="cls-1" d="M-5-21H22.8V-.5H-5Z" transform="translate(0.912 17.059)"/>
      </g>
      <g id="Group_9324" data-name="Group 9324" class="cls-4" transform="translate(6.262 2.759)">
        <path id="Path_9126" data-name="Path 9126" class="cls-1" d="M3-17H18.963V-1.037H3Z" transform="translate(-7.434 12.566)"/>
      </g>
    </g>
  </g>
</svg>
