<svg xmlns="http://www.w3.org/2000/svg" width="102.92" height="107.574" viewBox="0 0 102.92 107.574">
  <defs>
    <style>
      .cls-1, .cls-3, .cls-4, .cls-5 {
        fill: none;
      }

      .cls-1, .cls-2, .cls-3, .cls-4 {
        stroke: #d5d5d5;
        stroke-width: 4px;
      }

      .cls-2 {
        fill: #fff;
      }

      .cls-2, .cls-3 {
        stroke-linecap: round;
      }

      .cls-2, .cls-3, .cls-4, .cls-5 {
        stroke-miterlimit: 10;
      }

      .cls-6, .cls-7 {
        stroke: none;
      }

      .cls-7 {
        fill: #d5d5d5;
      }
    </style>
  </defs>
  <g id="Component_6_1" data-name="Component 6 – 1" transform="translate(2 2)">
    <path id="Oval" class="cls-1" d="M40.155,0A40.155,40.155,0,1,1,0,40.155,40.155,40.155,0,0,1,40.155,0Z"/>
    <path id="Oval-2" data-name="Oval" class="cls-2" d="M25.33,62.923a42.278,42.278,0,0,0,6.434.607A31.806,31.806,0,1,0,8.012,52.856" transform="translate(8.391 8.391)"/>
    <path id="Oval-3" data-name="Oval" class="cls-3" d="M0,0A31.732,31.732,0,0,0,8.635,5" transform="translate(20.134 64.817)"/>
    <path id="Oval-4" data-name="Oval" class="cls-3" d="M22.775,0A22.75,22.75,0,0,0,0,22.775" transform="translate(17.98 17.98)"/>
    <path id="Path_4" data-name="Path 4" class="cls-4" d="M0,0,7.192,7.192" transform="translate(73.119 71.92)"/>
    <g id="Rectangle" class="cls-5" transform="translate(76.073 73.905)">
      <path class="cls-6" d="M7.019,18.324a14.384,14.384,0,0,1,0-20.342h0a.261.261,0,0,1,.328,0L20.634,11.269a14.384,14.384,0,0,1,0,20.342h0a.261.261,0,0,1-.328,0Z"/>
      <path class="cls-7" d="M 19.96998405456543 25.6178092956543 C 21.63616180419922 21.81368446350098 20.91479873657227 17.20681571960449 17.80561065673828 14.09764003753662 L 7.679066181182861 3.971094846725464 C 7.106726169586182 5.271727561950684 6.806025505065918 6.688982009887695 6.806025505065918 8.152668952941895 C 6.806025505065918 10.92632579803467 7.886139869689941 13.53396892547607 9.84742546081543 15.49524021148682 L 19.96998405456543 25.6178092956543 M 20.47028350830078 31.66911125183105 C 20.4077033996582 31.66911125183105 20.34512519836426 31.64981079101562 20.30652618408203 31.6112117767334 L 7.018997192382812 18.32366943359375 C 1.401697039604187 12.70638275146484 1.401697039604187 3.598954439163208 7.018997192382812 -2.018331289291382 C 7.057590007781982 -2.056931257247925 7.12016487121582 -2.076231241226196 7.182741641998291 -2.076231241226196 C 7.245318412780762 -2.076231241226196 7.307897090911865 -2.056931257247925 7.346497058868408 -2.018331289291382 L 20.63404083251953 11.269211769104 C 26.2513256072998 16.88649749755859 26.2513256072998 25.99392509460449 20.63404083251953 31.6112117767334 C 20.59543991088867 31.64981079101562 20.53286170959473 31.66911125183105 20.47028350830078 31.66911125183105 Z"/>
    </g>
  </g>
</svg>
