<svg id="Layer_1" data-name="Layer 1" xmlns="http://www.w3.org/2000/svg" viewBox="0 0 14.13 13.64"><defs><style>.cls-1{fill:#242126;}</style></defs><title>search-0</title><g id="Union_28" data-name="Union 28"><path class="cls-1" d="M127,285.32a4.84,4.84,0,0,0,3.05-1.07l.63-.51.44-.69a4.88,4.88,0,1,0-4.12,2.27m6.69,2.32a1,1,0,0,1-.7-.28l-2-1.94a6.42,6.42,0,1,1,2.39-5,6.47,6.47,0,0,1-1,3.44l2.06,2a1.05,1.05,0,0,1,0,1.47A1.07,1.07,0,0,1,133.69,287.64Z" transform="translate(-120.62 -274)"/></g></svg>