<svg height="21.361" viewBox="0 0 22.132 21.361" width="22.132" xmlns="http://www.w3.org/2000/svg"><g fill="#fff"><path d="m20.46875572 20.1115036c-.06110954-.00000191-.14985084-.01540565-.22559547-.08877945l-3.13792038-3.04609108-.79384041-.7706089-.86132908.69435883c-1.56365013 1.26054-3.45201969 1.92682075-5.46096992 1.92682075-4.81875992 0-8.7391001-3.94255066-8.7391001-8.78860092 0-4.84604979 3.92034018-8.78859961 8.7391001-8.78859961 4.81875991 0 8.73910045 3.94254982 8.73910045 8.78859961 0 1.67491054-.46982002 3.30314064-1.35868072 4.70866012l-.54265023.85807038.72857094.70705986 3.22801018 3.13273048c.1404686.13648033.13037872.37788964-.02301025.53763962-.10761452.11191368-.22897148.1287384-.29168511.12874031z"/><path d="m9.98910046 17.57720375c1.72037029 0 3.33747005-.57055092 4.67644977-1.64998054l.97670651-.78736592.67079448-1.06071377c.762249-1.20530986 1.16514969-2.60251045 1.16514969-4.04054069 0-4.15679979-3.35960102-7.53859949-7.48910045-7.53859949-4.12949992 0-7.48910022 3.3817997-7.48910022 7.53859949 0 4.15680027 3.3596003 7.53860092 7.48910022 7.53860092m10.47972965 3.78429985c-.39715958.00001907-.79108048-.14615059-1.09543038-.44099998l-3.13881874-3.04696083c-1.71050071 1.3789196-3.8819704 2.20366096-6.24548053 2.20366096-5.5170002 0-9.98910014-4.4946003-9.98910014-10.03860092 0-5.54399967 4.47209994-10.03859959 9.98910014-10.03859959 5.51700019 0 9.98910045 4.49459992 9.98910045 10.03859959 0 1.97816086-.56917 3.82231998-1.55220985 5.37677002l3.22801018 3.13273048c.63359832.61560059.6371994 1.64520073.0080986 2.30039978-.32779885.34090996-.76243973.51296997-1.19326973.51300049z" fill="#242126"/></g></svg>