<svg height="15.062" viewBox="0 0 15.562 15.062" width="15.562" xmlns="http://www.w3.org/2000/svg"><g fill="none"><path d="m13.6 14.724-2.23-2.241a6.979 6.979 0 0 1 -11.37-5.463 6.985 6.985 0 1 1 12.9 3.736l2.325 2.337a1.156 1.156 0 0 1 0 1.631 1.143 1.143 0 0 1 -1.623 0z"/><path d="m6.98474455 12.03906155c1.15173006 0 2.23286009-.38356972 3.12653017-1.10923958l.649086-.52706719.44419384-.70910263c.50041961-.79887008.76492977-1.72356033.76492977-2.67412042 0-2.76777983-2.23614979-5.01953006-4.98473978-5.01953006s-4.98474002 2.25175023-4.98474002 5.01953006c0 2.76777982 2.23615003 5.01952982 4.98474002 5.01952982m7.42865038 3.02245998c-.29377079 0-.58753014-.11279011-.81128025-.33788967l-2.23011017-2.24120998c-1.19902992.97362995-2.72527981 1.55663967-4.38725996 1.55663967-3.85797 0-6.98473997-3.14208985-6.98473997-7.01952982 0-3.87695003 3.12676997-7.01953001 6.98473997-7.01953001 3.85796976 0 6.98473978 3.14257998 6.98473978 7.01953001 0 1.37305021-.39221001 2.65381002-1.07001019 3.73584032l2.32520008 2.33690929c.44921017.45069027.44921017 1.18018055 0 1.63135052-.22369956.22509956-.51745986.33788967-.81127929.33788967z" fill="#2c317a"/></g></svg>