<svg height="17.734" viewBox="0 0 16.541 17.734" width="16.541" xmlns="http://www.w3.org/2000/svg"><g style="opacity:.696;fill:none;stroke:#ed0000;stroke-linecap:round;stroke-linejoin:round;stroke-width:1.3"><path d="m0 3.188 15-3.188" transform="translate(.771 1.567)"/><path d="m4.083.024-3.213.682a1.1 1.1 0 0 0 -.846 1.3l.228 1.074 5.357-1.139-.228-1.072a1.1 1.1 0 0 0 -1.3-.846z" transform="translate(5.341 .654)"/><path d="m.5 5.477v-5.477" transform="translate(6.843 7.773)"/><path d="m.5 5.477v-5.477" transform="translate(10.129 7.773)"/><path d="m9.877 0h1.917l-1.011 11.592a1.1 1.1 0 0 1 -1.1 1h-7.835a1.1 1.1 0 0 1 -1.091-1l-.757-9.126" transform="translate(3.217 4.487)"/></g></svg>