<svg id="Group_9079" data-name="Group 9079" xmlns="http://www.w3.org/2000/svg" width="60" height="60" viewBox="0 0 60 60">
  <defs>
    <style>
      .cls-1 {
        fill: none;
      }

      .cls-2 {
        fill: #57acec;
      }
    </style>
  </defs>
  <path id="Path_9123" data-name="Path 9123" class="cls-1" d="M30,0A30,30,0,1,1,0,30,30,30,0,0,1,30,0Z"/>
  <path id="Twitter_Icon_copy_2" data-name="Twitter Icon copy 2" class="cls-2" d="M1003.856,4066.018a14.044,14.044,0,0,1-3.869,1.015,6.534,6.534,0,0,0,2.961-3.565,13.852,13.852,0,0,1-4.28,1.561,6.877,6.877,0,0,0-4.918-2.037,6.6,6.6,0,0,0-6.74,6.449,6.243,6.243,0,0,0,.174,1.47,19.435,19.435,0,0,1-13.888-6.735,6.19,6.19,0,0,0-.912,3.241,6.377,6.377,0,0,0,3,5.365,6.888,6.888,0,0,1-3.051-.805v.081a6.532,6.532,0,0,0,5.406,6.324,7.151,7.151,0,0,1-1.776.227,6.865,6.865,0,0,1-1.268-.118,6.712,6.712,0,0,0,6.3,4.477,13.923,13.923,0,0,1-8.371,2.762,14.349,14.349,0,0,1-1.608-.09,19.709,19.709,0,0,0,10.331,2.9,18.619,18.619,0,0,0,19.173-18.348c0-.28-.007-.558-.019-.832a13.389,13.389,0,0,0,3.362-3.339Z" transform="translate(-957.008 -4043.606)"/>
</svg>
