<svg xmlns="http://www.w3.org/2000/svg" width="67.854" height="65.089" viewBox="0 0 67.854 65.089">
  <g id="Group_12492" data-name="Group 12492" transform="translate(0.75 24.75)">
    <g id="Group_12486" data-name="Group 12486" transform="translate(28.391 1.626)">
      <path id="Path_9615" data-name="Path 9615" d="M18.606,37.213A18.606,18.606,0,1,0,0,18.606,18.606,18.606,0,0,0,18.606,37.213Z" fill="none" stroke="#7ed321" stroke-linecap="round" stroke-linejoin="round" stroke-width="3"/>
    </g>
    <g id="Group_12487" data-name="Group 12487" transform="translate(38.968 14.064)">
      <path id="Path_9616" data-name="Path 9616" d="M17.168,0,8.159,12.01a2.332,2.332,0,0,1-3.507.251L0,7.61" fill="none" stroke="#7ed321" stroke-linecap="round" stroke-linejoin="round" stroke-width="3"/>
    </g>
    <g id="Group_12488" data-name="Group 12488" transform="translate(0.75 -23.25)">
      <path id="Path_9617" data-name="Path 9617" d="M52.032,19.81a10.178,10.178,0,0,1,8.427-7.792,2.007,2.007,0,0,0,1.73-1.949V3.962A4.057,4.057,0,0,0,58.043,0H4.146A4.057,4.057,0,0,0,0,3.962v6.112a2,2,0,0,0,1.73,1.949A10.051,10.051,0,0,1,10.394,21.8,10.051,10.051,0,0,1,1.73,31.57,2.01,2.01,0,0,0,0,33.522v6.1a4.057,4.057,0,0,0,4.146,3.962H20.73" transform="translate(0)" fill="none" stroke="#c6c6c6" stroke-linecap="round" stroke-linejoin="round" stroke-width="3"/>
    </g>
    <g id="Group_12489" data-name="Group 12489" transform="translate(21.48 9.012)">
      <path id="Path_9618" data-name="Path 9618" d="M.5,5.269V0" transform="translate(-0.5)" fill="none" stroke="#c6c6c6" stroke-linecap="round" stroke-linejoin="round" stroke-width="3"/>
    </g>
    <g id="Group_12490" data-name="Group 12490" transform="translate(21.48 -4.954)">
      <path id="Path_9619" data-name="Path 9619" d="M.5,5.269V0" transform="translate(-0.5)" fill="none" stroke="#c6c6c6" stroke-linecap="round" stroke-linejoin="round" stroke-width="3"/>
    </g>
    <g id="Group_12491" data-name="Group 12491" transform="translate(21.48 -17.691)">
      <path id="Path_9620" data-name="Path 9620" d="M.5,5.269V0" transform="translate(-0.5)" fill="none" stroke="#c6c6c6" stroke-linecap="round" stroke-linejoin="round" stroke-width="3"/>
    </g>
  </g>
</svg>
