<svg xmlns="http://www.w3.org/2000/svg" xmlns:xlink="http://www.w3.org/1999/xlink" width="306" height="199" viewBox="0 0 306 199"><defs><style>.a{fill:#fff;}.b{fill:#f7f7f7;}.c{clip-path:url(#c);}.d{opacity:0.1;}.e{fill:#676c72;}.f{fill:#dcddde;}.g{fill:#3aa8b8;}.h{opacity:0.7;}.i{fill:#e7e43d;}.j{fill:#07bcef;}.k{opacity:0.7;}.l{fill:#1788b2;}.m{clip-path:url(#d);}.n{fill:#e2df3f;}.o{fill:#4c4649;}.o,.p,.q,.r{fill-rule:evenodd;}.p{fill:#e2241b;}.q{fill:#6cb550;}.r{fill:#99989a;}.s{filter:url(#a);}</style><filter id="a" x="0" y="0" width="306" height="199" filterUnits="userSpaceOnUse"><feOffset dy="1" input="SourceAlpha"/><feGaussianBlur stdDeviation="1" result="b"/><feFlood flood-opacity="0.302"/><feComposite operator="in" in2="b"/><feComposite in="SourceGraphic"/></filter><clipPath id="c"><rect class="a" width="300" height="193" rx="20"/></clipPath><clipPath id="d"><path d="M398.364,79.408l4.405,4.405a1,1,0,0,0,1.385,0,1,1,0,0,0,0-1.413L399.749,78Zm-5.818-7.2a1,1,0,0,0,0,1.413l4.405,4.405,1.413-1.413L393.959,72.2a.992.992,0,0,0-.693-.3,1.056,1.056,0,0,0-.72.3" transform="translate(-392.255 -71.9)"/></clipPath></defs><g transform="translate(-614 -223)"><g transform="translate(617 225)"><g class="s" transform="matrix(1, 0, 0, 1, -3, -2)"><rect class="b" width="300" height="193" rx="20" transform="translate(3 2)"/></g><g class="c"><g transform="translate(166.487 -7.005)"><g class="d" transform="translate(0 0)"><path class="e" d="M396.03,16.37h5.389v1.415h-3.865v1.47h3.43v1.415h-3.43v2.776H396.03Z" transform="translate(-396.028 31.539)"/><path class="e" d="M403.42,20.042h0a2.126,2.126,0,1,0-4.247,0h0a2.151,2.151,0,0,0,2.123,2.232,2.119,2.119,0,0,0,2.123-2.232m-5.88,0h0a3.684,3.684,0,0,1,3.756-3.7,3.639,3.639,0,0,1,3.756,3.648h0a3.639,3.639,0,0,1-3.756,3.648,3.564,3.564,0,0,1-3.756-3.593" transform="translate(-389.319 31.404)"/><path class="e" d="M402.678,19.8c.762,0,1.2-.381,1.2-.98h0c0-.653-.49-1.034-1.252-1.034H401.1V19.8Zm-3.158-3.43h3.266a2.962,2.962,0,0,1,2.069.708,2.222,2.222,0,0,1,.6,1.633h0a2.148,2.148,0,0,1-1.524,2.178l1.742,2.559h-1.851L402.3,21.161h-1.2v2.287H399.52Z" transform="translate(-380.517 31.539)"/><path class="e" d="M406.691,20.5l-.925-2.287L404.84,20.5Zm-1.633-4.138h1.415l3.049,7.132H407.89l-.653-1.579h-2.994l-.653,1.579H402.01Z" transform="translate(-369.454 31.493)"/><path class="e" d="M403.94,16.37h1.579v5.662h3.539v1.415H403.94Z" transform="translate(-360.875 31.539)"/><path class="e" d="M405.44,16.37h1.524v5.662H410.5v1.415H405.44Z" transform="translate(-354.209 31.539)"/><path class="e" d="M407.78,16.414h1.633l1.47,4.791,1.633-4.845h1.307l1.579,4.845,1.47-4.791H418.5l-2.4,7.132h-1.361l-1.579-4.627-1.633,4.627h-1.361Z" transform="translate(-343.812 31.493)"/><path class="e" d="M410.33,16.37h5.335v1.361h-3.756v1.415h3.321v1.415h-3.321v1.47h3.811v1.415h-5.39Z" transform="translate(-332.479 31.539)"/><path class="e" d="M411.94,16.37h1.579v5.662h3.539v1.415H411.94Z" transform="translate(-325.322 31.539)"/><path class="e" d="M413.46,16.37h1.579v5.662h3.539v1.415H413.46Z" transform="translate(-318.57 31.539)"/><rect class="e" width="3.103" height="1.47" transform="translate(102.406 51.12)"/><path class="e" d="M419.61,22.086c.708,0,1.089-.218,1.089-.762h0c0-.49-.381-.762-1.143-.762h-1.8v1.579h1.851Zm-.435-2.885c.708,0,1.143-.218,1.143-.762h0c0-.436-.381-.708-1.034-.708h-1.524v1.524h1.415Zm-2.94-2.831H419.5a2.394,2.394,0,0,1,1.851.653,1.6,1.6,0,0,1,.49,1.2h0a1.633,1.633,0,0,1-.925,1.524,1.751,1.751,0,0,1,1.307,1.742h0c0,1.307-1.035,1.96-2.668,1.96H416.18V16.37Z" transform="translate(-306.479 31.539)"/><path class="e" d="M417.9,16.37h5.335v1.361h-3.811v1.415h3.321v1.415h-3.321v1.47h3.866v1.415H417.9Z" transform="translate(-298.835 31.539)"/><rect class="e" width="1.579" height="7.077" transform="translate(127.881 47.908)"/><path class="e" d="M420.49,16.37h1.415l3.321,4.355V16.37h1.579v7.077h-1.361l-3.43-4.519v4.519H420.49Z" transform="translate(-287.326 31.539)"/><path class="e" d="M422.26,20.042h0a3.671,3.671,0,0,1,3.7-3.7,3.755,3.755,0,0,1,2.777.98l-.98,1.2a2.688,2.688,0,0,0-1.851-.708,2.1,2.1,0,0,0-2.014,2.232h0a2.088,2.088,0,0,0,2.123,2.232,2.6,2.6,0,0,0,1.47-.436V20.8h-1.579V19.443h3.1v3.1a4.7,4.7,0,0,1-3.049,1.143,3.531,3.531,0,0,1-3.7-3.648" transform="translate(-279.458 31.404)"/><path class="e" d="M502.519,28.2a13.828,13.828,0,0,1-14.264,14.046h-6.424V13.831h6.424a13.86,13.86,0,0,1,14.264,14.046Zm-36.095,9.2-.055.054-.435.49-.109.109-.436.436-.054.054-.49.436-.055.054a14.358,14.358,0,0,1-9.309,3.43,14.32,14.32,0,0,1-6.805-1.688l-.163-.109-.055-.054-.327-.218-.272-.163h0l-.272-.163-.381-.272-.054-.054-.109-.054-.49-.381h0a14.873,14.873,0,0,1-2.722-2.831v-.054l-.436-.6-.054-.054-.381-.6-.054-.109-.327-.653-.055-.054c-.218-.49-.435-.98-.6-1.47v-.054a2.709,2.709,0,0,1-.218-.708l-.054-.218-.163-.544-.054-.272-.109-.49-.054-.272-.055-.49-.055-.272-.055-.544V27.985a5.27,5.27,0,0,1,.055-.926v-.272c0-.272.055-.49.055-.762v-.163c.055-.272.109-.6.163-.871l.054-.163c.054-.272.109-.49.164-.708l.054-.218c.109-.272.163-.6.272-.871h0l.327-.817.055-.163c.109-.272.272-.544.381-.817h0l.49-.817.055-.054c.163-.218.327-.49.49-.708l.054-.054c.381-.49.762-.98,1.2-1.47l.054-.054a16.655,16.655,0,0,1,3.865-2.885l.055-.054.49-.218.055-.054.109-.054.381-.163.327-.109.218-.109.272-.109.218-.054h.054l.218-.054a13.859,13.859,0,0,1,4.029-.544,14.3,14.3,0,0,1,10.616,4.682l.109.109.327.381.272.327.109.163.381.544.054.054.327.544.054.054.327.544.054.054.272.544.055.054.272.544.055.054.218.544.055.054.218.6.055.054.163.6.054.163.109.381.109.381h0l.055.163.054.163.109.6a13.943,13.943,0,0,1,.163,2.123,14.323,14.323,0,0,1-2.994,8.765Zm77.96-2.831h-3.375a1.86,1.86,0,0,0-1.688.98,14.164,14.164,0,0,1-12.031,6.86h-.109a14.376,14.376,0,0,1,.109-28.745,14.1,14.1,0,0,1,12.031,6.86,1.962,1.962,0,0,0,1.688,1.034h3.375a1.258,1.258,0,0,0,1.2-.544,1.342,1.342,0,0,0,.054-1.361,20.131,20.131,0,0,0-4.464-6.424l-.163-.163-.163-.163-.109-.109a19.982,19.982,0,0,0-13.5-5.226,20.25,20.25,0,0,0-19.381,14.862,20.266,20.266,0,0,0-19.49-14.645H477.857A1.915,1.915,0,0,0,475.843,9.8V25.318A20.545,20.545,0,0,0,459.619,8.06h-.054c-.272-.054-.544-.109-.871-.163l-.272-.054c-.218-.054-.435-.054-.708-.109l-.327-.054-.272-.054h-2.831l-.381.054a20.5,20.5,0,0,0-18.456,16.278V9.53h0c0,.054.109-1.524-1.034-1.742-1.143-.163-2.722,1.361-3.266,1.851L415.74,22.215,400.333,9.639c-.544-.49-2.123-2.014-3.266-1.851s-1.034,1.742-1.034,1.742V46.06c0,1.415.6,2.287,2.014,2.287h2.777a1.426,1.426,0,0,0,1.252-1.47v-28.2l12.3,9.908a2.192,2.192,0,0,0,1.361.49h0a2.393,2.393,0,0,0,1.361-.49l12.3-9.908V46.931c0,.6.49,1.47,1.252,1.47h2.831c1.415,0,2.014-.871,2.014-2.287V32.286A20.38,20.38,0,0,0,453.9,48.51h.218l.6.054h.925a20.439,20.439,0,0,0,10.779-3.049l2.722,3.1a2.646,2.646,0,0,0,1.688.925,2.572,2.572,0,0,0,1.851-.708l.708-.6a2.61,2.61,0,0,0,.98-1.8,2.512,2.512,0,0,0-.653-1.851l-2.668-3.1a20.255,20.255,0,0,0,4.9-10.725V46.169a1.958,1.958,0,0,0,2.014,2.069h10.507a20.315,20.315,0,0,0,19.49-14.645,20.25,20.25,0,0,0,19.381,14.862,19.983,19.983,0,0,0,13.5-5.226,22.025,22.025,0,0,0,4.845-6.805,1.605,1.605,0,0,0,0-1.415,2.138,2.138,0,0,0-1.307-.436" transform="translate(-396.03 -7.57)"/><path class="f" d="M427.132,20.406A11.106,11.106,0,1,1,416.026,9.3a11.118,11.118,0,0,1,11.106,11.106" transform="translate(-356.52 0.118)"/><path class="g" d="M404.91,11.27" transform="translate(-356.567 8.874)"/><path class="g" d="M404.91,11.26h0v.054Z" transform="translate(-356.567 8.828)"/><path class="g" d="M408.38,9.87h0l.055.054Z" transform="translate(-341.142 2.652)"/><path class="g" d="M404.91,11.36v0Z" transform="translate(-356.567 9.273)"/><path class="g" d="M404.91,11.434h0V11.38Z" transform="translate(-356.567 9.361)"/><path class="g" d="M405.22,12.42" transform="translate(-355.189 13.984)"/><path class="g" d="M405.22,12.42" transform="translate(-355.189 13.984)"/><path class="g" d="M405.22,12.42" transform="translate(-355.189 13.984)"/><path class="g" d="M405.22,12.42Z" transform="translate(-355.189 13.984)"/><path class="g" d="M405.27,12.49h0v.054Z" transform="translate(-354.962 14.294)"/><path class="g" d="M408.98,11.144h0V11.09h0v.054Z" transform="translate(-338.477 8.073)"/><path class="g" d="M408.99,11.1Z" transform="translate(-338.434 8.118)"/><path class="g" d="M408.98,11.144Zm0-.054Z" transform="translate(-338.477 8.073)"/><path class="g" d="M408.98,11.09Z" transform="translate(-338.477 8.073)"/><path class="g" d="M408.98,11.09Z" transform="translate(-338.477 8.073)"/><path class="g" d="M408.99,11.19Z" transform="translate(-338.434 8.517)"/><path class="g" d="M408.99,11.18" transform="translate(-338.434 8.473)"/><path class="g" d="M408.99,11.18Z" transform="translate(-338.434 8.473)"/><path class="g" d="M408.99,11.524h0V11.47h0Z" transform="translate(-338.434 9.763)"/><path class="g" d="M408.99,11.49Z" transform="translate(-338.434 9.851)"/><path class="g" d="M408.99,11.48Z" transform="translate(-338.434 9.807)"/><path class="g" d="M408.99,11.49" transform="translate(-338.434 9.851)"/><path class="g" d="M408.99,11.48" transform="translate(-338.434 9.807)"/><path class="g" d="M408.99,11.49Z" transform="translate(-338.434 9.851)"/><path class="g" d="M427.122,21.069h0v.109h0v-.109h0v0Zm0,.49h0v.054h0v-.054Zm-.054.054Zm0,0h0v-.054h0Zm-.381,2.014v.054h0v-.054Zm-.381.98Zm0,.054h0l-.054.109.054-.109-.054.054.054-.054Zm-.435.925Zm-.055.054Zm0,.054h0l.055-.054Zm-2.668-7.077Zm-3.266,12.14h0l-.163.054h-.109l-.109.054h-.382c-.218.054-.435.109-.708.163l-.272.054h-.055l-.49.054h0l-.164.054h-.054a8.185,8.185,0,0,1-1.47.054h-.327a3.411,3.411,0,0,0-.6-.054,2.215,2.215,0,0,0-.544-.109l-.163-.054h0L414,30.978h-.055l-.435-.054h-.055l-.164-.054v-.054l-.272-.109h-.055l-.163-.054h0l-.272-.163h-.055a9.312,9.312,0,0,1-1.361-.544l-.163-.109V29.78l-.218-.218-.054-.054s-.49-.272-.762-.436l-.055-.054-.054-.054-.163-.163v-.054l-.218-.218-.055-.054-.109-.163v-.054l-.163-.272-.055-.054-.653-.6-.054-.054-.055-.054-.109-.163V27l-.109-.272-.054-.054-.272-.272V26.35l-.054-.054-.109-.218.054-.054-.109-.327-.055-.054-.054-.218.054-.054-.054-.327-.055-.054-.272-.436-.054-.218.054-.054-.054-.381-.055-.054-.218-.381-.054-.054-.054-.218.218-.272.054-.054v-.381l-.054-.054v-.218l.054-.054.544-.544.163.381h0v.054l.109-.054.054-.381-.054-.054.054-.272.109-.054.109-.436v-.054l.054-.218.435-.327a9.048,9.048,0,0,0,.435.926l.49-.327a1.506,1.506,0,0,0,.218.381h0l.054.054.218.381h0l.054.054c.163.327.381.653.49.871l.109-.109.109-.381-.055-.054.055-.218.544-.327.109-.054h.054l.163-.381-.054-.054.054-.218.164-.109.163-.381-.054-.054.054-.218,1.143-.6a3.235,3.235,0,0,0,.163.381h0l.054.054.163.381h0v.054h0l.163.381h0l.054.054c.381.762.762,1.579.926,1.8l.544-.272s.762,1.415.926,1.742l.49-.218.164.381.054.054.49-.218.109-.054.163-.327v-.054l.054-.218.109-.054.163-.327v-.054l-.109.054h0l-.381.163h0l-.109.054h0l-.381.163-.163-.381h0v-.054l-.109.054h0l-.381.163s-.49-.925-.6-1.252l-.054-.054.054-.218.545-.272.163.381.054.054.164.381h0v.054l.163-.054.163-.381v-.054l.054-.218.163-.054.164-.381V20.96a3.261,3.261,0,0,0-.164-.381h0v-.054h0l-.163-.436h0v-.054l-.218-.49.109-.218.6-.218.163-.054.218-.381-.055-.054-.163-.49.109-.218.163-.054.218-.381v-.054a2.4,2.4,0,0,0-.163-.436h0l-.218-.544.054-.218.163-.054.218-.327-.055-.054.055-.218.163-.054.163-.327v-.054a3.23,3.23,0,0,0-.163-.381h0l-.054-.054-.163-.381h0l-.054-.054a9.693,9.693,0,0,0-.871-1.579l-.163.054-.436.163-.163-.272h0l-.054-.054h0l-.163-.272h0V12.25l-.218-.327.054-.163.544-.163.218.272.055.054.163.272h0l.055.054.163-.054.163-.272-.055-.054.055-.163.163-.054.109-.218-.055-.054.055-.109.109-.054.109-.218-.055-.054.055-.109.109-.054.109-.218-.055-.054-.218-.218-.055-.054v-.109h.109l.054-.163h-.054v.381a5.914,5.914,0,0,1,.816-.109l.327.218s.49-.054.762-.054l.6.436.055.054.055.054h.381s.327.272.6.49h0l.055.054.218.218.054.054.055.054h.381l.218.218.054.054.055.054.381.054a7.968,7.968,0,0,1,.544.6l.054.054.055.054.327.054s.327.436.49.708v.054l.054.054.272.054a4.78,4.78,0,0,1,.49.871l.272.109.218.436.218.109.163.327.055.109v.054l.163.109s.218.49.327.817l.054.109v.054l.163.163a6.917,6.917,0,0,1,.218.817v.163l.109.163s.109.544.163.871v.109h0a14.264,14.264,0,0,1,.055,1.47c0,.218-.109,1.2-.163,1.47a7.963,7.963,0,0,1-.218.925l-.109.109-.054.054-.055.218-.054.163v-.054l-.109-.054-.055-.054-.109-.054a3.966,3.966,0,0,0,.109-.436h0V22.92l.109-.49h-.054l-.163-.054h-.054l-.163-.054.054-.49H426.2l-.163-.054.054-.49h-.054l-.218-.054V20.8h0v-.054l.218-.163h0l.109-.218v-.054h-.054l-.272-.054v-.436h0v-.054a.942.942,0,0,0-.381-.054h-.762l-.054-.49h-.109l-.327.054h-.109l-.327.054-.109-.49h-.109l-.163.272v.054l.109.49.49-.054.054.49.436-.054.055.49.381-.054v.49H425l.163-.163h0v-.163l.109-.163h.381a8.69,8.69,0,0,1-.055.926h0v.054h0l-.055.436h0v.054l-.109.163h-.109l-.218.272v.054l-.109.163h-.327l.055-.436h0V22.1l-.381.054v-.49h-.109l-.218.272v.054l-.109.218H423.8l-.218.272v.544l-.109.163h-.109l-.272.054h-.109l-.218.272v.054l-.109.163h-.109l-.163.109h0v.109l-.109.218-.109.054-.163.218h0V24.5h0v.054l-.109.163-.109.054h0l-.272.054-.109.054-.163.272v.054l-.054.163-.109.054-.163.109h0V25.7h0v.054l.055.381h0v.381l.327-.109v.327h0v.054h0v.327h0v.054l.272-.054s-.054.381-.109.708l.6-.163-.109.327h0v.054l.163-.054h.054l.109-.109h0l.054-.054h0v-.054l.109-.163h.054l.218-.218V27.33l.109-.163h.272l.218-.218.055-.054.109-.163h.436l.218-.218.054-.054.163-.163h.055l.218-.218.054-.054.109-.163h.055c.109.054.6.163.653.436l-.163.109-.109.109-.109.109h0a.982.982,0,0,1-.109.6h0a13.4,13.4,0,0,1-5.118,3.539m4.791-3.375Zm-.054,0Zm0,0Zm0,.054Zm0,0Zm0,0Zm-4.791,3.375Zm0,0Zm-.054,0Zm0,0Zm0,0Zm0,0Zm0,0Zm-.98.327-.054,0Zm-.055,0Zm-.109.054Zm-.055,0Zm-1.307.218Zm0,0Zm-.762.054ZM406.6,26.187Zm-.055,0Zm-1.47-4.083Zm-.163-1.579Zm0-.6h0v0Zm0,.109Zm11.541,11.324Zm1.2-.109Zm.762-.109Zm8.71-11.65h0v.054h0V19.49Zm0,.109h0v0h0v0Zm-1.307,6.043Zm0,0Zm0,0Zm0,0Zm-6.86,5.444,0,0Zm.054,0Zm.054,0Zm-.054,0Zm0,0Zm8.058-12.14h0V19h0v-.054Zm.054,2.178v-.218h0v-.98h0v-.49h0v-.272h0v0h0v-.218h0a11.114,11.114,0,0,0-1.361-3.974h0l-.054-.054h0c-.272-.436-.545-.817-.817-1.252l-.055-.109-.055-.054h0a16.691,16.691,0,0,0-1.361-1.415l-.055-.054-.055-.054h0a11.164,11.164,0,0,0-6.261-2.613H417l-.544-.054h-.327a11.132,11.132,0,0,0-11.106,10.616v.762h0a10.607,10.607,0,0,0,.109,1.307v.327a11.093,11.093,0,0,0,1.361,3.756l.054.109h0l.054.054h0V26.3h0l-.054-.054.109.218V26.4l-.054-.054a3.86,3.86,0,0,0,.545.762l.054.109.055.054h0A11.269,11.269,0,0,0,414,31.413h.055l.435.054h0a3.106,3.106,0,0,0,.708.054h1.252l.544-.054.218-.054h0l.218-.054h.327l.544-.109h0l.109-.054h0l.109-.054h0l.109-.054h.054l.218-.054h-.054l-.163.054.327-.109h.109l.109-.054h.055l.109-.054h.163l.109-.054-.109.054.054-.054h-.054l.109-.054h0a10.92,10.92,0,0,0,4.682-3.266l.109-.109.055-.054h0l.272-.381.055-.109.055-.054v-.054l.218-.272h0l.055-.054.054-.054h0l.218-.327.054-.109.055-.054.163-.272.055-.109.054-.054V25.37h0c.109-.272.272-.49.381-.762l.055-.163v-.163h0a4.251,4.251,0,0,0,.272-.762l.054-.163v-.109l.109-.381h0v-.054h0a4.67,4.67,0,0,0,.163-.925v-.218h0l.055-.218h0l.054-.163v-.109h0v-.163h0V20.96h0v.163h.163v.054h0v-.054h0v-.109h0Z" transform="translate(-356.567 0.163)"/><path class="g" d="M408.99,11.47Z" transform="translate(-338.434 9.763)"/><path class="g" d="M408.98,11.624h0V11.57h0Z" transform="translate(-338.475 10.206)"/><path class="g" d="M408.98,11.57Z" transform="translate(-338.477 10.206)"/><path class="g" d="M408.95,11.814h0V11.76Z" transform="translate(-338.609 11.05)"/><path class="g" d="M408.95,11.76Z" transform="translate(-338.609 11.05)"/><path class="g" d="M409,11.8h0v.109h0V11.8Zm-.054,0h0v.054h0V11.8Zm0,.109v.109h0L409,11.75V11.8Z" transform="translate(-338.609 11.006)"/><path class="g" d="M408.95,11.77Z" transform="translate(-338.609 11.095)"/><path class="g" d="M408.95,11.78Z" transform="translate(-338.609 11.139)"/><path class="g" d="M405.88,13.124h.055l-.055-.054Z" transform="translate(-352.255 16.873)"/><path class="g" d="M408.83,12.184h.055V12.13h0Z" transform="translate(-339.144 12.695)"/><path class="g" d="M408.84,12.13" transform="translate(-339.1 12.695)"/><path class="g" d="M408.835,12.319Zm0,.054h0l-.055.109h0v-.054h0l.055-.163h0l.054-.054Z" transform="translate(-339.367 13.051)"/><path class="g" d="M408.79,12.23h0v.054h0V12.23Z" transform="translate(-339.321 13.138)"/><path class="g" d="M408.79,12.23Z" transform="translate(-339.321 13.138)"/><path class="g" d="M408.8,12.22" transform="translate(-339.276 13.095)"/><path class="g" d="M408.75,12.32Z" transform="translate(-339.501 13.54)"/><path class="g" d="M408.53,12.64" transform="translate(-340.475 14.961)"/><path class="g" d="M406.884,13.38Z" transform="translate(-348.032 18.25)"/><path class="g" d="M406.88,13.38Z" transform="translate(-347.81 18.25)"/><path class="g" d="M407.01,13.38h0Z" transform="translate(-347.231 18.25)"/><path class="g" d="M406.97,13.38Z" transform="translate(-347.411 18.25)"/><path class="g" d="M407.024,13.38Z" transform="translate(-347.411 18.25)"/><path class="g" d="M406.97,13.38Z" transform="translate(-347.411 18.25)"/><path class="g" d="M406.97,13.38Z" transform="translate(-347.411 18.25)"/><path class="g" d="M407.04,13.38h.054Z" transform="translate(-347.099 18.25)"/><path class="g" d="M407.292,13.38Zm-.054,0Zm0,0Zm0,0Zm0,0Z" transform="translate(-347.189 18.25)"/><path class="g" d="M407.05,13.38Z" transform="translate(-347.053 18.25)"/><path class="g" d="M407.05,13.38Z" transform="translate(-347.053 18.25)"/><path class="g" d="M407.05,13.38Z" transform="translate(-347.053 18.25)"/><path class="g" d="M407.05,13.38Z" transform="translate(-347.053 18.25)"/><path class="g" d="M407.05,13.38Z" transform="translate(-347.053 18.25)"/><path class="g" d="M407.1,13.38Z" transform="translate(-347.053 18.25)"/><path class="g" d="M407.62,13.27Z" transform="translate(-344.521 17.762)"/><path class="g" d="M407.58,13.28Z" transform="translate(-344.699 17.806)"/><path class="g" d="M407.58,13.28" transform="translate(-344.699 17.806)"/><path class="g" d="M407.58,13.28Z" transform="translate(-344.699 17.806)"/><path class="g" d="M407.58,13.324h.109l.054-.054h0l-.054.054Z" transform="translate(-344.699 17.762)"/><path class="g" d="M407.55,13.29Z" transform="translate(-344.832 17.85)"/><path class="g" d="M407.56,13.29" transform="translate(-344.79 17.85)"/><path class="g" d="M407.56,13.29Z" transform="translate(-344.79 17.85)"/><path class="g" d="M407.56,13.29Z" transform="translate(-344.79 17.85)"/><path class="g" d="M407.55,13.29Z" transform="translate(-344.832 17.85)"/><path class="g" d="M407.55,13.29" transform="translate(-344.832 17.85)"/><path class="g" d="M407.54,13.334h.054l.164-.054h0l-.054.054Z" transform="translate(-344.878 17.806)"/><path class="g" d="M407.54,13.344v0Z" transform="translate(-344.878 17.85)"/><path class="g" d="M407.614,13.29Z" transform="translate(-344.788 17.85)"/><path class="g" d="M407.52,13.3" transform="translate(-344.965 17.895)"/><path class="g" d="M407.52,13.3" transform="translate(-344.965 17.895)"/><path class="g" d="M407.52,13.3" transform="translate(-344.965 17.895)"/><path class="g" d="M407.619,13.344l.054-.054h0l-.163.054h.055Z" transform="translate(-345.012 17.85)"/><path class="g" d="M407.52,13.3Z" transform="translate(-344.965 17.895)"/><path class="g" d="M407.53,13.3Z" transform="translate(-344.924 17.895)"/><path class="g" d="M407.53,13.3Z" transform="translate(-344.924 17.895)"/><path class="g" d="M407.53,13.3" transform="translate(-344.924 17.895)"/><path class="g" d="M407.53,13.3Z" transform="translate(-344.924 17.895)"/><path class="g" d="M407.54,13.3Z" transform="translate(-344.878 17.895)"/><path class="g" d="M407.53,13.3" transform="translate(-344.924 17.895)"/><path class="g" d="M407.53,13.3" transform="translate(-344.924 17.895)"/><path class="g" d="M407.52,13.3Z" transform="translate(-344.965 17.895)"/><path class="g" d="M407.575,13.3Z" transform="translate(-344.965 17.895)"/><path class="g" d="M407.53,13.3" transform="translate(-344.924 17.895)"/><path class="g" d="M407.52,13.3" transform="translate(-344.965 17.895)"/><path class="g" d="M407.52,13.3Z" transform="translate(-344.965 17.895)"/><path class="g" d="M407.554,13.354V13.3l-.055.054Z" transform="translate(-345.054 17.895)"/><path class="g" d="M407.49,13.31" transform="translate(-345.099 17.94)"/><path class="g" d="M407.49,13.31" transform="translate(-345.099 17.94)"/><path class="g" d="M407.49,13.31" transform="translate(-345.099 17.94)"/><path class="g" d="M407.43,13.32" transform="translate(-345.365 17.983)"/><path class="g" d="M407.43,13.32Z" transform="translate(-345.365 17.983)"/><path class="g" d="M407.44,13.32" transform="translate(-345.321 17.983)"/><path class="g" d="M407.41,13.33Z" transform="translate(-345.453 18.027)"/><path class="g" d="M407.65,13.26Z" transform="translate(-344.387 17.716)"/><path class="g" d="M407.47,9.9l.272.218h0v.054h.163l.055-.054h.054l-.054-.163-.055-.054-.218-.218h0l-.055-.054-.109.054-.054.163Z" transform="translate(-345.187 1.584)"/><path class="g" d="M407.589,9.8l-.109.218h.163l.109-.218L407.7,9.75Z" transform="translate(-345.145 2.117)"/><path class="g" d="M407.619,11.461h0c.163.436.327.98.327.98l.6-.163.163-.054.218-.327v-.054l-.163.054h0l-.435.109c-.055-.163-.218-.6-.327-.871h0V11.08l-.163-.436h0V10.59l-.163.054-.163.327v.054l.163.436h-.054Z" transform="translate(-345.012 5.851)"/><path class="g" d="M407.713,11.114l-.163.327V11.5l.163-.054.163-.327V11.06Z" transform="translate(-344.832 7.941)"/><path class="g" d="M408.9,14.891v-.054l-.109-.436v-.054l.109-.218.109-.054.218-.327v-.054a8.386,8.386,0,0,1-.163-.925h0v-.054l.109-.218,1.035-.272.109.49.109-.054.218-.327v-.054l-.055-.436h0v-.054h-.109l-.381.109-.109-.436v-.054l-.109.054h0l-.381.109-.109-.49-.163.054-.218.327v.054l-.109.218-.163.054-.218.327v.054l.109.49-.109.218-.109.054-.218.327v.054l.109.49-.109.218-.109.054-.218.327v.054l-.054.218-.109.054-.163.327v.054l.109.436.49-.163.109.436.109-.054.163-.327v-.054l.109-.218.109-.054Z" transform="translate(-344.878 8.028)"/><path class="g" d="M408.163,11.834l-.163.272v.054h.109l.163-.327V11.78Z" transform="translate(-342.833 11.139)"/><path class="g" d="M408.058,11.964l-.218.272.054.054H408l.164-.327V11.91Z" transform="translate(-343.544 11.717)"/><path class="g" d="M408.138,11.89l-.218.327.054.054.054-.054.218-.272V11.89Z" transform="translate(-343.187 11.628)"/><path class="g" d="M408.052,12.074V12.02h-.109l-.163.327V12.4l.109-.054Z" transform="translate(-343.812 12.206)"/><path class="g" d="M410.485,14.247l-.163-.327h0v-.054l-.109.054-.327.163-.218-.381-.109.054h0l-.327.163-.218-.381-.109.054-.327.163c-.218-.327-.762-1.2-.762-1.2l-.109.054h0l-.381.163-.49-.817-.109.054-.109.381.055.054.544.817.49-.272.218.327.055.054.218.327h0l.054.054h0l.218.327h0l.055.054.109-.054h0l.327-.163.218.327h0l.055.054.109-.054h0l.327-.163.218.327.054.054.109-.054.327-.163.164.327h0v.054l.109-.054-.164-.327Z" transform="translate(-348.964 11.939)"/><path class="g" d="M407.658,12.31l-.109.054-.109.272v.054l.109-.054.109-.272Z" transform="translate(-345.321 13.495)"/><path class="g" d="M407.878,12.23h-.109l-.109.327v.054l.109-.054.109-.272Z" transform="translate(-344.345 13.138)"/><path class="g" d="M407.784,10.266l.544-.109.109-.054.109-.054.054-.163-.054-.054-.49.109-.164.054h-.054l-.327.109H407.4l-.163.272v.054l.436.653.055.054.109-.054L408,10.81h0l-.218-.327-.054-.054Z" transform="translate(-346.211 2.473)"/></g></g><g class="h" transform="translate(256.762 67.938)"><path class="i" d="M25.847,42.385l.492-3.782-1.517-.192-.492,3.782" transform="translate(8.302 30.337)"/><path class="i" d="M26.567,36.865l.492-3.782-1.517-.192-.492,3.782" transform="translate(9.12 24.06)"/><path class="i" d="M28.682,8.81l-.492,3.782,1.517.192L30.2,9" transform="translate(12.69 -3.318)"/><path class="i" d="M27.962,14.38l-.492,3.782,1.517.192.492-3.761" transform="translate(11.871 3.015)"/><path class="i" d="M24.26,9.012l.513,3.782L26.29,12.6,25.777,8.82" transform="translate(8.221 -3.306)"/><path class="i" d="M25.01,14.562l.513,3.782,1.517-.214-.513-3.761" transform="translate(9.074 3.004)"/><path class="i" d="M27.51,33.062l.513,3.782,1.517-.214-.513-3.761" transform="translate(11.917 24.038)"/><path class="i" d="M28.26,38.614l.513,3.761,1.517-.192L29.777,38.4" transform="translate(12.77 30.326)"/><path class="i" d="M29.67,32.778l1.475,3.5,1.432-.577L31.1,32.18" transform="translate(14.373 23.253)"/><path class="i" d="M31.85,37.937l1.475,3.526,1.41-.6-1.475-3.5" transform="translate(16.851 29.143)"/><path class="i" d="M25.338,18.453,23.82,14.97l-1.41.6,1.517,3.5" transform="translate(6.118 3.686)"/><rect class="i" width="1.539" height="7.009" transform="translate(24.071 8.949) rotate(-23.466)"/><path class="i" d="M21.758,10.193,20.24,6.71l-1.41.6,1.517,3.5" transform="translate(2.048 -5.706)"/><path class="i" d="M16.71,12.74l2.329,3.013,1.218-.962L17.928,11.8" transform="translate(-0.362 0.082)"/><path class="i" d="M20.14,17.15l2.329,3.013,1.218-.94L21.358,16.21" transform="translate(3.537 5.096)"/><path class="i" d="M37.787,37.383,35.458,34.37l-1.218.94,2.329,3.013" transform="translate(19.569 25.743)"/><path class="i" d="M35.177,33.993,32.848,30.98l-1.218.94,2.329,3.013" transform="translate(16.601 21.889)"/><path class="i" d="M33.25,30.568l3.035,2.308.919-1.218L34.169,29.35" transform="translate(18.443 20.035)"/><path class="i" d="M37.77,34,40.8,36.306l.94-1.239L38.71,32.78" transform="translate(23.582 23.935)"/><path class="i" d="M22.265,20.338,19.23,18.03l-.94,1.218,3.056,2.308" transform="translate(1.434 7.165)"/><path class="i" d="M17.793,16.947,14.759,14.66l-.919,1.218,3.035,2.308" transform="translate(-3.626 3.333)"/><path class="i" d="M11.85,19.622l3.526,1.432.577-1.432L12.427,18.19" transform="translate(-5.888 7.347)"/><path class="i" d="M17.02,21.732l3.526,1.432.577-1.41L17.6,20.3" transform="translate(-0.01 9.746)"/><path class="i" d="M42.343,30.289,38.8,28.9l-.556,1.432,3.547,1.389" transform="translate(24.117 19.524)"/><path class="i" d="M38.523,28.789,34.976,27.4l-.556,1.432,3.547,1.389" transform="translate(19.774 17.819)"/><path class="i" d="M44.715,26.46l-3.782-.47-.192,1.517L44.522,28" transform="translate(26.959 16.215)"/><rect class="i" width="1.539" height="3.825" transform="translate(61.63 42.943) rotate(-82.687)"/><path class="i" d="M39.035,25.752l-3.782-.492-.192,1.517,3.782.492" transform="translate(20.501 15.386)"/><path class="i" d="M20.385,23.317l-3.8-.427-.171,1.517,3.782.449" transform="translate(-0.703 12.691)"/><rect class="i" width="1.539" height="5.449" transform="translate(7.037 36.105) rotate(-83.477)"/><path class="i" d="M13.035,22.477l-3.8-.427L9.06,23.567l3.782.449" transform="translate(-9.06 11.736)"/><path class="i" d="M20.192,25.32l-3.782.492.192,1.517,3.782-.492" transform="translate(-0.703 15.454)"/><path class="i" d="M14.652,26.05l-3.782.513.214,1.517,3.782-.513" transform="translate(-7.002 16.284)"/><path class="i" d="M44.512,22.09l-3.782.492.192,1.517,3.782-.492" transform="translate(26.948 11.781)"/><rect class="i" width="3.825" height="1.539" transform="translate(61.611 35.18) rotate(-7.568)"/><path class="i" d="M38.832,22.84l-3.782.492.214,1.539,3.782-.513" transform="translate(20.49 12.634)"/><path class="i" d="M42.306,18.6,38.78,19.989l.556,1.432,3.547-1.389" transform="translate(24.731 7.813)"/><path class="i" d="M37.937,20.33,34.39,21.74l.577,1.432,3.526-1.41" transform="translate(19.739 9.78)"/><path class="i" d="M20.535,27.49l-3.5,1.5.6,1.41,3.5-1.5" transform="translate(0.001 17.921)"/><path class="i" d="M16.655,29.15l-3.5,1.517.6,1.389,3.5-1.5" transform="translate(-4.41 19.808)"/><path class="i" d="M42.527,13.43,39.45,15.717l.919,1.218,3.056-2.265" transform="translate(25.492 1.935)"/><rect class="i" width="5.834" height="1.539" transform="matrix(0.803, -0.597, 0.597, 0.803, 57.481, 23.214)"/><path class="i" d="M36.266,18.08,33.21,20.345l.919,1.239L37.185,19.3" transform="translate(18.398 7.222)"/><path class="i" d="M21.312,29.45,18.32,31.822l.94,1.2,2.992-2.351" transform="translate(1.469 20.149)"/><rect class="i" width="5.428" height="1.539" transform="translate(12.977 57.337) rotate(-38.259)"/><path class="i" d="M15.532,34.01,12.54,36.361l.94,1.218,2.992-2.372" transform="translate(-5.103 25.334)"/><path class="i" d="M39.171,9.57,36.82,12.583l1.218.94,2.351-2.992" transform="translate(22.502 -2.454)"/><rect class="i" width="6.518" height="1.539" transform="matrix(0.617, -0.787, 0.787, 0.617, 52.895, 18.331)"/><path class="i" d="M33.931,16.25,31.58,19.263l1.218.94,2.351-2.992" transform="translate(16.545 5.141)"/><path class="i" d="M22.467,31.08,20.18,34.136l1.218.919L23.685,32" transform="translate(3.583 22.003)"/><path class="i" d="M20.225,34.05,17.96,37.106l1.218.919,2.287-3.056" transform="translate(1.059 25.379)"/><path class="i" d="M33.716,8.97l-1.5,3.5,1.41.6,1.5-3.483" transform="translate(17.272 -3.136)"/><rect class="i" width="4.637" height="1.539" transform="translate(46.566 16.158) rotate(-66.716)"/><path class="i" d="M31.126,15l-1.5,3.483,1.41.62,1.5-3.5" transform="translate(14.327 3.72)"/><path class="i" d="M20.85,43.6l1.475-3.5-1.432-.6L19.44,43.026" transform="translate(2.741 31.576)"/><rect class="i" width="5.898" height="1.539" transform="translate(25.008 67.819) rotate(-67.381)"/><path class="i" d="M23.87,36.353l1.475-3.526-1.41-.577-1.475,3.5" transform="translate(6.175 23.333)"/><path class="j" d="M27.909,52.639V33H26.37V52.639" transform="translate(10.621 24.186)"/><path class="j" d="M26.37,6.24V27.375h1.539V6.24" transform="translate(10.621 -6.24)"/><path class="j" d="M22.26,9.576l4.1,15.237,1.5-.406L23.735,9.17" transform="translate(5.948 -2.909)"/><path class="j" d="M28.59,32.995,32.714,48.21l1.475-.406L30.065,32.61" transform="translate(13.145 23.742)"/><path class="j" d="M30.67,32.429,42.359,52.3l1.325-.791L31.995,31.66" transform="translate(15.51 22.662)"/><path class="j" d="M27.7,24.294,19.775,10.66l-1.325.791,7.928,13.613" transform="translate(1.616 -1.214)"/><path class="j" d="M16.47,15.46l8.484,8.4,1.09-1.09-8.505-8.4" transform="translate(-0.635 3.004)"/><path class="j" d="M42.481,38.949,33.548,30.23,32.48,31.341l8.933,8.7" transform="translate(17.568 21.036)"/><path class="j" d="M33.89,29.755,53.956,41.23l.769-1.325L34.638,28.43" transform="translate(19.171 18.99)"/><path class="j" d="M30.836,26.357,10.3,14.39,9.53,15.715,30.066,27.682" transform="translate(-8.526 3.027)"/><path class="j" d="M11.23,21.6l15.237,4.039.406-1.475L11.636,20.1" transform="translate(-6.593 9.519)"/><path class="j" d="M50.666,30.473l-15.472-4.1-.385,1.475,15.472,4.1" transform="translate(20.216 16.648)"/><path class="j" d="M53.686,24.18H35.18v1.539H53.686" transform="translate(20.638 14.158)"/><path class="j" d="M26.53,24.18H10.78v1.539H26.53" transform="translate(-7.105 14.158)"/><path class="j" d="M26.445,26.4,11.23,30.439l.406,1.475L26.83,27.875" transform="translate(-6.593 16.682)"/><path class="j" d="M50.293,20.1,34.8,24.224l.385,1.475,15.493-4.1" transform="translate(20.206 9.519)"/><path class="j" d="M51.543,15.3,33.87,25.451l.748,1.325L52.312,16.625" transform="translate(19.148 4.061)"/><path class="j" d="M26.374,28.48,12.74,36.3l.748,1.325,13.655-7.8" transform="translate(-4.876 19.047)"/><path class="j" d="M41.917,13.92,32.45,23.43,33.54,24.5l9.467-9.488" transform="translate(17.534 2.492)"/><path class="j" d="M26.334,30.3,15.2,41.348l1.068,1.09L27.424,31.39" transform="translate(-2.08 21.116)"/><path class="j" d="M42.061,7.95,30.65,27.5l1.325.769L43.386,8.719" transform="translate(15.487 -4.296)"/><path class="j" d="M25.449,31.72,19.23,42.576l1.325.769,6.219-10.877" transform="translate(2.503 22.73)"/><path class="j" d="M32.726,9.17,28.58,24.492l1.475.385L34.2,9.576" transform="translate(13.133 -2.909)"/><path class="j" d="M23.735,48.176l4.082-15.13-1.475-.406L22.26,47.77" transform="translate(5.948 23.777)"/><path class="j" d="M35.46,26.62a16.459,16.459,0,0,1-1.71,4.146l1.325.769a18.566,18.566,0,0,0,1.859-4.509Z" transform="translate(19.012 16.932)"/><path class="j" d="M32.45,19.45A17.475,17.475,0,0,1,35.185,23l1.325-.769a18.631,18.631,0,0,0-2.97-3.868Z" transform="translate(17.534 7.54)"/><path class="j" d="M34.54,22.686a16.866,16.866,0,0,1,.6,4.424h1.539a18.943,18.943,0,0,0-.641-4.83Z" transform="translate(19.91 11.997)"/><path class="j" d="M26.74,34.508a19.768,19.768,0,0,0,4.915-.684l-.406-1.475a17.4,17.4,0,0,1-4.509.62Z" transform="translate(11.041 23.447)"/><path class="j" d="M18.09,27.045a18.033,18.033,0,0,0,1.923,4.573l1.325-.769a16.407,16.407,0,0,1-1.752-4.188Z" transform="translate(1.206 16.977)"/><path class="j" d="M21.508,20.959a18.092,18.092,0,0,1,3.633-2.714l-.748-1.325a18.6,18.6,0,0,0-3.953,2.97Z" transform="translate(3.879 5.903)"/><path class="j" d="M19.585,25.066A16.768,16.768,0,0,1,21.358,20.9l-1.325-.769a17.888,17.888,0,0,0-1.923,4.552Z" transform="translate(1.229 9.553)"/><path class="j" d="M29.366,15.77H29.2a19.54,19.54,0,0,0-4.765.6l.385,1.5a17.33,17.33,0,0,1,4.381-.556v-.769l-.021.769h.15Z" transform="translate(8.415 4.595)"/><path class="j" d="M22.27,32.926a18.167,18.167,0,0,0,4.616,1.859l.385-1.5a17.054,17.054,0,0,1-4.231-1.71Z" transform="translate(5.96 22.571)"/><path class="j" d="M31.569,34.333a18.4,18.4,0,0,0,3.889-3.013l-1.09-1.09A17.132,17.132,0,0,1,30.8,32.987Z" transform="translate(15.657 21.036)"/><path class="j" d="M33.766,17.982a19.732,19.732,0,0,0-4.53-1.9l-.406,1.475A16.713,16.713,0,0,1,33,19.307Z" transform="translate(13.418 4.948)"/><path class="j" d="M23.114,32.21a17.462,17.462,0,0,1-2.8-3.59l-1.325.769A18.626,18.626,0,0,0,22.025,33.3Z" transform="translate(2.23 19.206)"/><path class="j" d="M19.317,27.144a16.374,16.374,0,0,1,.62-4.488l-1.475-.406a18.525,18.525,0,0,0-.662,4.894Z" transform="translate(0.877 11.963)"/><path class="i" d="M49.73,32.726H48.96a13.739,13.739,0,0,1-4.082,9.787,14.033,14.033,0,0,1-19.746,0,13.775,13.775,0,0,1,0-19.575,14.033,14.033,0,0,1,19.746,0,13.739,13.739,0,0,1,4.082,9.787H50.5a15.2,15.2,0,0,0-4.552-10.877,15.581,15.581,0,0,0-21.925,0,15.272,15.272,0,0,0,0,21.754,15.581,15.581,0,0,0,21.925,0A15.291,15.291,0,0,0,50.5,32.726Z" transform="translate(2.776 6.381)"/></g><g class="k" transform="translate(76.069 -7.344)"><g transform="translate(0.097 78.128)"><path class="l" d="M403.317,106.074h-1a4.017,4.017,0,1,1-4.017-4.017,4.02,4.02,0,0,1,4.017,4.017h1.995a6.012,6.012,0,1,0-6.012,6.012,5.983,5.983,0,0,0,6.012-6.012Z" transform="translate(-392.29 -100.09)"/></g><g transform="translate(78.087 78.128)"><path class="l" d="M431.467,106.074h-1a4.017,4.017,0,1,1-4.017-4.017,4.02,4.02,0,0,1,4.017,4.017h1.995a6.012,6.012,0,1,0-6.012,6.012,5.983,5.983,0,0,0,6.012-6.012Z" transform="translate(-420.44 -100.09)"/></g><g transform="translate(78.087 0.138)"><path class="l" d="M431.467,77.924h-1a4.017,4.017,0,1,1-4.017-4.017,4.02,4.02,0,0,1,4.017,4.017h1.995a6.012,6.012,0,1,0-6.012,6.012,5.983,5.983,0,0,0,6.012-6.012Z" transform="translate(-420.44 -71.94)"/></g><g transform="translate(0 0.028)"><g class="m"><rect class="n" width="12.384" height="12.19" transform="translate(-0.097)"/></g></g><path class="n" d="M403.462,71.9a.992.992,0,0,0-.693.3l-4.405,4.405-1.413,1.413-4.405,4.405a1,1,0,0,0,0,1.413.939.939,0,0,0,1.385,0l4.405-4.405,1.413-1.413,4.405-4.405a1,1,0,0,0,0-1.413.9.9,0,0,0-.693-.3" transform="translate(-392.255 -71.872)"/><path class="n" d="M407.319,71.89a.992.992,0,0,0-.693.3,1,1,0,0,0,0,1.413l4.405,4.405,1.413-1.413-4.405-4.405a1.006,1.006,0,0,0-.72-.3m6.511,6.123-1.413,1.413,4.405,4.405a.939.939,0,0,0,1.385,0,1,1,0,0,0,0-1.413l-4.378-4.405" transform="translate(-367.326 -71.89)"/><path class="n" d="M417.542,71.89a.992.992,0,0,0-.693.3L412.444,76.6l-1.413,1.413-4.405,4.405a1,1,0,0,0,0,1.413.992.992,0,0,0,.693.3.962.962,0,0,0,.693-.277l4.405-4.405,1.413-1.413,4.405-4.405a1,1,0,0,0,0-1.413.92.92,0,0,0-.693-.332" transform="translate(-367.326 -71.89)"/><path class="n" d="M407.319,85.97a.889.889,0,0,0-.693.3,1,1,0,0,0,0,1.413l4.405,4.405,1.413-1.413-4.405-4.405a1.006,1.006,0,0,0-.72-.3m6.511,6.1-1.413,1.413,4.405,4.405a.939.939,0,0,0,1.385,0,1,1,0,0,0,0-1.413l-4.378-4.405" transform="translate(-367.326 -46.961)"/><path class="n" d="M417.542,85.97a.992.992,0,0,0-.693.3l-4.405,4.405-1.413,1.413L406.626,96.5a1,1,0,0,0,0,1.413,1,1,0,0,0,1.385,0l4.405-4.405,1.413-1.413,4.405-4.405a1,1,0,0,0,0-1.413.992.992,0,0,0-.693-.3" transform="translate(-367.326 -46.961)"/><path class="n" d="M421.4,93.55a.889.889,0,0,0-.693.3,1,1,0,0,0,0,1.413l4.405,4.405,1.413-1.413-4.405-4.405a1.055,1.055,0,0,0-.72-.3m6.511,6.1-1.413,1.413,4.405,4.405a.992.992,0,0,0,.693.3.889.889,0,0,0,.693-.3,1,1,0,0,0,0-1.413l-4.377-4.405" transform="translate(-342.398 -33.541)"/><path class="n" d="M431.622,93.55a.992.992,0,0,0-.693.3l-4.405,4.405-1.413,1.413-4.405,4.405a1,1,0,0,0,0,1.413,1,1,0,0,0,1.385,0l4.405-4.405,1.413-1.413,4.405-4.405a1,1,0,0,0,0-1.413.992.992,0,0,0-.693-.3" transform="translate(-342.398 -33.541)"/><path class="j" d="M406.265,73.62a4.288,4.288,0,0,0-.609.028,1,1,0,0,0,.166,1.995,2.382,2.382,0,0,1,.443-.028.993.993,0,0,0,1-1,1.011,1.011,0,0,0-1-1" transform="translate(-370.151 -68.827)"/><path class="j" d="M411.484,74.509c-.277.249-.582.526-.859.8a1,1,0,1,0,1.441,1.385,7.678,7.678,0,0,1,.693-.665,1.007,1.007,0,0,0,.111-1.413.947.947,0,0,0-1.385-.111Zm-3.435,4.544c-.166.332-.332.665-.5,1.025a.986.986,0,0,0,1.8.8c.139-.3.277-.61.443-.914a.979.979,0,0,0-.443-1.33A.952.952,0,0,0,408.048,79.052Zm-1.939,5.209-.249,1.08a.995.995,0,1,0,1.939.443l.249-1a1.013,1.013,0,0,0-.72-1.219A1,1,0,0,0,406.109,84.261Zm-.942,5.458c-.028.36-.055.72-.083,1.108a1,1,0,0,0,1.995.111c.028-.36.055-.693.083-1.053a1,1,0,0,0-.914-1.08,1.033,1.033,0,0,0-1.081.914Zm-.194,5.375c-.028.36-.055.693-.083,1.053a1,1,0,0,0,1.995.166c.028-.36.055-.72.083-1.108a1,1,0,0,0-.942-1.053A1.014,1.014,0,0,0,404.973,95.093Zm-.693,5.153-.249,1a1,1,0,1,0,1.939.5l.249-1.08a1.01,1.01,0,0,0-.748-1.191A1.036,1.036,0,0,0,404.28,100.246Zm-1.579,4.9c-.138.3-.277.61-.443.914a.991.991,0,1,0,1.773.887c.166-.332.332-.665.5-1.025a.984.984,0,0,0-.5-1.3A1.043,1.043,0,0,0,402.7,105.15Zm-2.715,4.211a7.673,7.673,0,0,1-.693.665,1,1,0,0,0,1.3,1.524c.3-.249.582-.526.859-.8a.981.981,0,0,0-.055-1.413A1,1,0,0,0,399.986,109.361Z" transform="translate(-380.413 -67.693)"/><path class="j" d="M398.791,87.733a2.384,2.384,0,0,1-.443.028,1,1,0,0,0,0,1.995,4.289,4.289,0,0,0,.61-.028.975.975,0,0,0,.887-1.08A.941.941,0,0,0,398.791,87.733Z" transform="translate(-383.234 -43.849)"/><path class="j" d="M420.024,101.89H419.5a.984.984,0,0,0-.028,1.967h.554a.993.993,0,0,0,1-1A.97.97,0,0,0,420.024,101.89Z" transform="translate(-345.788 -18.775)"/><path class="j" d="M433.64,117.234c-.332-.055-.637-.111-.97-.166a.985.985,0,0,0-1.164.776,1,1,0,0,0,.776,1.164c.332.055.693.139,1.025.194a.982.982,0,0,0,1.136-.831A.963.963,0,0,0,433.64,117.234Zm-4.738-1.191-.914-.332a.983.983,0,0,0-1.274.582.973.973,0,0,0,.582,1.274c.333.111.665.249,1,.36a1.034,1.034,0,0,0,1.274-.61A1.122,1.122,0,0,0,428.9,116.043Zm-4.488-1.995c-.277-.166-.582-.332-.859-.5a.988.988,0,1,0-1.025,1.69c.3.194.609.36.914.526a1,1,0,0,0,1.358-.388.956.956,0,0,0-.388-1.33m-4.045-2.743c-.249-.194-.5-.416-.748-.637a1.031,1.031,0,0,0-1.413.083,1,1,0,0,0,.083,1.413c.249.222.526.443.8.665a1,1,0,0,0,1.385-.139.974.974,0,0,0-.111-1.385m-3.519-3.408c-.222-.249-.415-.5-.637-.748a1,1,0,1,0-1.551,1.274c.222.277.443.526.665.8a1.011,1.011,0,0,0,1.524-1.33Zm-2.881-3.962c-.166-.277-.332-.554-.5-.859a1,1,0,0,0-1.745.97c.166.3.332.61.526.914a.964.964,0,0,0,1.358.332,1,1,0,0,0,.36-1.358m-2.161-4.377-.332-.914a.977.977,0,0,0-1.274-.61.987.987,0,0,0-.61,1.274,10.045,10.045,0,0,0,.36.97,1.006,1.006,0,0,0,1.274.582A1.024,1.024,0,0,0,411.808,99.558Zm-1.358-4.71c-.055-.3-.111-.637-.166-.97a.982.982,0,0,0-1.136-.831,1,1,0,0,0-.831,1.136c.055.332.111.693.194,1.025a1,1,0,0,0,1.164.776.945.945,0,0,0,.776-1.136" transform="translate(-363.837 -34.451)"/><path class="j" d="M410.175,92.9v-.526a1,1,0,1,0-1.995,0v.554a.977.977,0,0,0,1.025.97A.987.987,0,0,0,410.175,92.9Z" transform="translate(-364.059 -37.383)"/><path class="l" d="M422.26,78.307v1.081a1,1,0,1,0,1.995,0V78.307a1,1,0,1,0-1.995,0m0,5.347v1.081a1,1,0,1,0,1.995,0V83.654a1,1,0,1,0-1.995,0m0,5.347v1.08a1,1,0,1,0,1.995,0V89a1,1,0,1,0-1.995,0m0,5.347v1.08a1,1,0,1,0,1.995,0v-1.08a1,1,0,1,0-1.995,0m0,5.319v1.08a1,1,0,1,0,1.995,0v-1.08a.993.993,0,0,0-1-1,1.011,1.011,0,0,0-1,1m0,5.347v1.08a1,1,0,1,0,1.995,0v-1.08a.993.993,0,0,0-1-1,1.011,1.011,0,0,0-1,1m0,5.347v1.08a1,1,0,1,0,1.995,0v-1.08a.993.993,0,0,0-1-1,1.011,1.011,0,0,0-1,1m0,5.347v1.08a1,1,0,1,0,1.995,0v-1.08a.993.993,0,0,0-1-1,1.011,1.011,0,0,0-1,1" transform="translate(-339.131 -62.294)"/></g></g></g><g transform="translate(640.222 254.555)"><path class="o" d="M58,72.129s4.421-5.5,5-6.347l.311-.155.361-.008V89.535h-3.5V72.617H58" transform="translate(-58 -65.422)"/><path class="o" d="M101.189,69.414c-2.052,0-3.723,2.022-3.723,4.5v6.606c0,2.478,1.672,4.5,3.723,4.5s3.723-2.024,3.723-4.5V73.913c0-2.478-1.669-4.5-3.723-4.5m0,20.013c-4.064,0-7.371-4-7.371-8.908V73.913C93.818,69,97.125,65,101.189,65s7.369,4.005,7.369,8.913v6.606c0,4.911-3.3,8.908-7.369,8.908" transform="translate(-82.467 -65)"/><path class="o" d="M154.433,72.129s4.421-5.5,5-6.347l.309-.155.366-.008V89.535h-3.5V72.617h-2.177" transform="translate(-123.873 -65.422)"/><path class="p" d="M218.379,76.5v5.3h2.7V76.631a1.4,1.4,0,0,1,1.413-1.407h1.579V72.753h-1.946a3.743,3.743,0,0,0-3.744,3.745" transform="translate(-167.555 -70.296)"/><path class="p" d="M198.338,65.619h-2.7v2.261h-1.271v2.441h1.271v2.895c0,2.273,1.842,3.721,4.113,3.721h1.592V74.571h-1.6a1.407,1.407,0,0,1-1.408-1.407V70.321l1.77-.006a1.291,1.291,0,0,0,1.237-1.3V67.879h-3.007Z" transform="translate(-151.153 -65.422)"/><path class="p" d="M268.582,75.914a1.687,1.687,0,0,1,1.768-1.522,1.67,1.67,0,0,1,1.774,1.522Zm6.124,1.3c-.019-2.793-1.535-4.989-4.357-4.989a4.441,4.441,0,0,0-4.377,4.654c0,2.906,1.776,4.628,4.4,4.679a4.5,4.5,0,0,0,3.947-2.36l-2.452-.64a1.815,1.815,0,0,1-1.516.758A1.679,1.679,0,0,1,268.6,77.8h6.111c.006-.132,0-.448,0-.587Z" transform="translate(-200.065 -69.933)"/><path class="p" d="M243.845,78.143a1.408,1.408,0,1,1-2.816,0V74.024a1.275,1.275,0,0,0-1.3-1.271h-1.405v5.037a4.113,4.113,0,1,0,8.227,0V72.753h-2.7Z" transform="translate(-181.175 -70.296)"/><path class="q" d="M418.565,117.057c-.5,0-.981.271-1.78,1.018v-.041a.794.794,0,0,0-.215-.6.955.955,0,0,0-.7-.29h-1.025l0,6.575a.956.956,0,0,0,.983.949.973.973,0,0,0,.977-.751l0-.011v-3.767a3.42,3.42,0,0,1,1.951-1.253.923.923,0,0,0-.189-1.833" transform="translate(-301.756 -100.56)"/><path class="q" d="M440.985,117.929l-2.184-2.822.665-.61.005.006,1.075-.974,0,0a.849.849,0,0,0,.021-1.2l-.618-.66-1.613,1.461-.027.025-2.745,2.375,0-5.29a.912.912,0,0,0-.013-.151.963.963,0,0,0-.959-.87l-1,.011v9.143a.981.981,0,0,0,1.96,0v-.4l1.857-1.678,2.07,2.709a.961.961,0,0,0,.835.416.876.876,0,0,0,.915-.874,1,1,0,0,0-.247-.621" transform="translate(-314.567 -95.205)"/><path class="q" d="M346.325,122.549a2.158,2.158,0,0,1-1.564.633l-1.994,0v-4.051h1.994a2.116,2.116,0,0,1,2.2,2.011v.027a2.009,2.009,0,0,1-.64,1.379m-1.422-5.174h-4.092v5.807h-7.642a.946.946,0,0,0-.21.023.8.8,0,0,0-.489.818v.864l2.075,0,6.266,0v2.06a.98.98,0,0,0,1.958,0v-1.329l0-.1,0-.632h1.212l.726,0a4.572,4.572,0,0,0,2.958-1.046,3.518,3.518,0,0,0,1.289-2.715V121.1a3.856,3.856,0,0,0-4.049-3.727" transform="translate(-245.489 -100.777)"/><path class="q" d="M392.627,121.072v1.339a3.782,3.782,0,0,1-1.918.62c-.836,0-1.376-.395-1.376-1.006V122c0-.7.627-1.117,1.678-1.117a8.744,8.744,0,0,1,1.616.192m1.025-3.526a3.612,3.612,0,0,0-2.6-.852,7.173,7.173,0,0,0-1.451.139l-.033,0-.365.091c-.116.031-.226.064-.335.1l-1.175.35.271.85a.856.856,0,0,0,.443.523.658.658,0,0,0,.53.013l1.141-.339a5,5,0,0,1,.744-.054c1.062,0,1.712.514,1.793,1.414a9.884,9.884,0,0,0-1.952-.192c-2.034,0-3.248.925-3.248,2.475v.028a2.521,2.521,0,0,0,2.8,2.376,4.69,4.69,0,0,0,2.444-.545.951.951,0,0,0,.884.5.928.928,0,0,0,.958-.916v-3.619a3.081,3.081,0,0,0-.853-2.345" transform="translate(-283.024 -100.311)"/><path class="r" d="M326.232,110.162a.949.949,0,0,0-.708-.3H324.5l-.006.941v8.026a.966.966,0,0,0,1.93,0l.008-6.315V110.78a.8.8,0,0,0-.2-.618" transform="translate(-240.042 -95.644)"/><path class="r" d="M227.643,117.652a.957.957,0,0,0-.683-.276h-1.024v6.236l.008.349a.966.966,0,0,0,1.93,0v-5.729a.8.8,0,0,0-.23-.58" transform="translate(-172.717 -100.778)"/><path class="r" d="M226.35,109.613a1.057,1.057,0,1,0,1.089,1.056,1.074,1.074,0,0,0-1.089-1.056" transform="translate(-172.255 -95.475)"/><path class="r" d="M280.137,112.668a.854.854,0,0,0-.229-.642.958.958,0,0,0-.7-.291h-1.023v1.793h-1.107v1.711l1.128-.006v3.578a1.99,1.99,0,0,0,2.261,2.229,3.6,3.6,0,0,0,1.211-.2l.006,0c.325-.129.325-.431.325-.7,0-.518-.243-.839-.635-.839a.866.866,0,0,0-.113.013,2.081,2.081,0,0,1-.313.028c-.562,0-.813-.246-.813-.8v-3.325l1.246,0a.812.812,0,0,0,.626-.207.857.857,0,0,0,.275-.636v-.859h-2.147Z" transform="translate(-207.652 -96.924)"/><path class="r" d="M200.462,113.847v4.013h-1.9a2.055,2.055,0,0,1-2.2-1.922v-.027a2.247,2.247,0,0,1,2.208-2.054l1.872-.009Zm0-3.163v1.435h-1.841a4.06,4.06,0,0,0-4.247,3.831v.028a3.47,3.47,0,0,0,1.14,2.573,4.274,4.274,0,0,0,2.921,1.074h4.006V109.67h-.994a1.013,1.013,0,0,0-.985,1.014Z" transform="translate(-151.157 -95.514)"/><path class="r" d="M239.657,122.53c-1.387-.125-2.121-.847-2.121-2.085v-.03a2.057,2.057,0,0,1,2.2-2.047A2.907,2.907,0,0,1,242,119.493l0,1.909a2.993,2.993,0,0,1-2.338,1.128m4.107-5.481a.906.906,0,0,0-.663-.284H242v.8a4.041,4.041,0,0,0-2.757-.93,3.859,3.859,0,0,0-2.627,1,3.681,3.681,0,0,0-1.171,2.791v.03a3.825,3.825,0,0,0,3.8,3.931,4.689,4.689,0,0,0,2.75-.974c-.045,1.425-.892,2.177-2.458,2.177a4.413,4.413,0,0,1-1.427-.219l-1.274-.528a.7.7,0,0,0-.558-.044.91.91,0,0,0-.528.5l-.386.868,1.2.46a7.734,7.734,0,0,0,.736.281l.132.046,0,0a7.325,7.325,0,0,0,2.145.31,4.766,4.766,0,0,0,3.411-1.084,4.05,4.05,0,0,0,1.063-3.034v-5.26a1.132,1.132,0,0,0-.29-.839" transform="translate(-179.154 -100.274)"/><path class="r" d="M299.355,123.023c-.836,0-1.376-.395-1.376-1.006v-.028c0-.7.628-1.116,1.678-1.116a8.77,8.77,0,0,1,1.615.192V122.4a3.778,3.778,0,0,1-1.918.62m.346-6.337a7.153,7.153,0,0,0-1.452.139l-.033,0-.365.091c-.117.032-.231.065-.335.1l-1.175.349.272.851a.851.851,0,0,0,.443.522.657.657,0,0,0,.53.014l1.141-.339a5.089,5.089,0,0,1,.744-.053c1.063,0,1.712.514,1.793,1.414a9.833,9.833,0,0,0-1.952-.192c-2.034,0-3.248.925-3.248,2.474v.028a2.521,2.521,0,0,0,2.8,2.376,4.691,4.691,0,0,0,2.444-.544.951.951,0,0,0,.884.5.928.928,0,0,0,.958-.916v-3.618a3.085,3.085,0,0,0-.853-2.346,3.614,3.614,0,0,0-2.6-.852" transform="translate(-220.62 -100.306)"/><path class="r" d="M268.732,117.653a.955.955,0,0,0-.684-.276h-1.024v6.236l.007.35a.966.966,0,0,0,1.93,0v-5.729a.8.8,0,0,0-.229-.58" transform="translate(-200.784 -100.778)"/><path class="r" d="M267.439,109.614a1.057,1.057,0,1,0,1.089,1.056,1.074,1.074,0,0,0-1.089-1.056" transform="translate(-200.323 -95.475)"/></g></g></svg>