<svg xmlns="http://www.w3.org/2000/svg" width="186.868" height="40" viewBox="0 0 186.868 40">
  <defs>
    <style>
      .cls-1 {
        fill: #4c4649;
      }

      .cls-1, .cls-2, .cls-3, .cls-4 {
        fill-rule: evenodd;
      }

      .cls-2 {
        fill: #e2241b;
      }

      .cls-3 {
        fill: #6cb550;
      }

      .cls-4 {
        fill: #99989a;
      }
    </style>
  </defs>
  <g id="_101truedigitalpark_logo" data-name="101truedigitalpark_logo" transform="translate(-58 -65)">
    <path id="Fill-1" class="cls-1" d="M58,75.223s6.522-8.117,7.379-9.364l.459-.229.533-.012V100.9H61.212V75.944H58" transform="translate(0 -0.329)"/>
    <path id="Fill-3" class="cls-1" d="M104.693,71.511c-3.027,0-5.493,2.983-5.493,6.638V87.9c0,3.655,2.466,6.642,5.493,6.642s5.493-2.987,5.493-6.642V78.149c0-3.655-2.463-6.638-5.493-6.638m0,29.526c-6,0-10.875-5.9-10.875-13.141V78.149C93.818,70.908,98.7,65,104.693,65s10.871,5.909,10.871,13.15V87.9c0,7.245-4.872,13.141-10.871,13.141" transform="translate(-19.072)"/>
    <path id="Fill-5" class="cls-1" d="M154.433,75.223s6.522-8.117,7.383-9.364l.455-.229.54-.012V100.9h-5.166V75.944h-3.212" transform="translate(-51.348 -0.329)"/>
    <path id="Fill-7" class="cls-2" d="M218.379,78.278V86.1h3.98v-7.63a2.071,2.071,0,0,1,2.085-2.076h2.329V72.753H223.9a5.522,5.522,0,0,0-5.523,5.526" transform="translate(-85.398 -4.128)"/>
    <path id="Fill-9" class="cls-2" d="M200.225,65.619h-3.981v3.335h-1.875v3.6h1.875v4.271c0,3.354,2.717,5.49,6.068,5.49h2.349V78.826H202.3a2.076,2.076,0,0,1-2.077-2.075v-4.2l2.611-.008a1.9,1.9,0,0,0,1.824-1.913v-1.68h-4.436Z" transform="translate(-72.613 -0.33)"/>
    <path id="Fill-11" class="cls-2" d="M269.822,77.669a2.489,2.489,0,0,1,2.608-2.246,2.464,2.464,0,0,1,2.617,2.246Zm9.035,1.912c-.028-4.12-2.265-7.36-6.427-7.36a6.551,6.551,0,0,0-6.457,6.866c0,4.287,2.62,6.827,6.487,6.9a6.633,6.633,0,0,0,5.824-3.482l-3.617-.944a2.677,2.677,0,0,1-2.236,1.119,2.477,2.477,0,0,1-2.588-2.237h9.016c.009-.194,0-.661,0-.865Z" transform="translate(-110.74 -3.845)"/>
    <path id="Fill-13" class="cls-2" d="M246.471,80.705a2.077,2.077,0,1,1-4.155,0V74.628a1.882,1.882,0,0,0-1.924-1.875h-2.073v7.431c0,3.365,1.817,6.09,6.069,6.09s6.068-2.725,6.068-6.09V72.753h-3.985Z" transform="translate(-96.015 -4.128)"/>
    <path id="Fill-15" class="cls-3" d="M420.335,117.057c-.74,0-1.447.4-2.626,1.5l0-.061a1.17,1.17,0,0,0-.317-.878,1.409,1.409,0,0,0-1.031-.427h-1.512l-.007,9.7a1.41,1.41,0,0,0,1.451,1.4,1.436,1.436,0,0,0,1.441-1.109l0-.016V121.61a5.046,5.046,0,0,1,2.879-1.849,1.362,1.362,0,0,0-.279-2.7" transform="translate(-190.008 -27.719)"/>
    <path id="Fill-17" class="cls-3" d="M444.5,122.069l-3.222-4.164.981-.9.008.008,1.585-1.436.007-.006a1.253,1.253,0,0,0,.03-1.763l-.912-.973-2.38,2.155-.04.037-4.05,3.5,0-7.8a1.344,1.344,0,0,0-.02-.223,1.421,1.421,0,0,0-1.415-1.284l-1.47.016v13.488a1.447,1.447,0,0,0,2.892,0v-.583l2.74-2.476,3.054,4a1.418,1.418,0,0,0,1.233.614,1.292,1.292,0,0,0,1.35-1.289,1.482,1.482,0,0,0-.365-.917" transform="translate(-199.995 -23.545)"/>
    <path id="Fill-19" class="cls-3" d="M352.91,125.008a3.183,3.183,0,0,1-2.308.934l-2.942,0v-5.977H350.6a3.122,3.122,0,0,1,3.251,2.966v.039a2.964,2.964,0,0,1-.944,2.035m-2.1-7.633h-6.037v8.567H333.5a1.4,1.4,0,0,0-.31.034,1.186,1.186,0,0,0-.721,1.207v1.274l3.061,0,9.245,0V131.5a1.445,1.445,0,0,0,2.889,0v-1.96l-.006-.146,0-.932h1.787l1.071,0a6.746,6.746,0,0,0,4.364-1.543,5.191,5.191,0,0,0,1.9-4v-.041a5.689,5.689,0,0,0-5.973-5.5" transform="translate(-146.148 -27.888)"/>
    <path id="Fill-21" class="cls-3" d="M395.1,123.153v1.976a5.58,5.58,0,0,1-2.829.915c-1.233,0-2.03-.583-2.03-1.485v-.041c0-1.032.926-1.648,2.476-1.648a12.9,12.9,0,0,1,2.383.283m1.512-5.2a5.328,5.328,0,0,0-3.831-1.257,10.582,10.582,0,0,0-2.141.205l-.049.006-.538.135c-.171.046-.334.094-.495.146l-1.734.517.4,1.254a1.262,1.262,0,0,0,.654.771.971.971,0,0,0,.783.019l1.683-.5a7.374,7.374,0,0,1,1.1-.079c1.567,0,2.525.759,2.645,2.086a14.582,14.582,0,0,0-2.879-.283c-3,0-4.792,1.365-4.792,3.651v.041c0,2.409,2.142,3.506,4.133,3.506a6.92,6.92,0,0,0,3.606-.8,1.4,1.4,0,0,0,1.3.737,1.369,1.369,0,0,0,1.413-1.351v-5.339a4.545,4.545,0,0,0-1.259-3.46" transform="translate(-175.406 -27.525)"/>
    <path id="Fill-23" class="cls-4" d="M327.057,110.305a1.4,1.4,0,0,0-1.044-.444H324.5l-.008,1.388v11.84a1.425,1.425,0,0,0,2.848,0l.013-9.316v-2.557a1.175,1.175,0,0,0-.3-.911" transform="translate(-141.902 -23.887)"/>
    <path id="Fill-25" class="cls-4" d="M228.455,117.783a1.411,1.411,0,0,0-1.008-.407h-1.511v9.2l.011.515a1.424,1.424,0,0,0,2.847,0v-8.452a1.181,1.181,0,0,0-.339-.856" transform="translate(-89.422 -27.889)"/>
    <path id="Fill-27" class="cls-4" d="M226.867,109.613a1.559,1.559,0,1,0,1.607,1.558,1.585,1.585,0,0,0-1.607-1.558" transform="translate(-89.062 -23.755)"/>
    <path id="Fill-29" class="cls-4" d="M281.591,113.112a1.26,1.26,0,0,0-.338-.948,1.413,1.413,0,0,0-1.032-.429h-1.51v2.646l-1.633,0v2.525l1.664-.008v5.278c0,2.182,1.123,3.289,3.336,3.289a5.315,5.315,0,0,0,1.786-.291l.008,0c.48-.191.48-.635.48-1.028,0-.763-.359-1.238-.936-1.238a1.28,1.28,0,0,0-.166.019,3.07,3.07,0,0,1-.461.042c-.829,0-1.2-.362-1.2-1.175v-4.9l1.838-.007a1.2,1.2,0,0,0,.923-.3,1.265,1.265,0,0,0,.4-.938v-1.267h-3.167Z" transform="translate(-116.654 -24.885)"/>
    <path id="Fill-31" class="cls-4" d="M203.355,115.832v5.92h-2.8a3.032,3.032,0,0,1-3.251-2.836v-.04a3.316,3.316,0,0,1,3.258-3.031l2.761-.013Zm0-4.666v2.117l-2.715,0c-3.455,0-6.266,2.535-6.266,5.652v.041a5.119,5.119,0,0,0,1.682,3.8,6.306,6.306,0,0,0,4.31,1.585l5.91,0V109.67h-1.467a1.5,1.5,0,0,0-1.453,1.5Z" transform="translate(-72.616 -23.786)"/>
    <path id="Fill-33" class="cls-4" d="M241.7,125.331c-2.047-.185-3.129-1.249-3.129-3.076v-.044a3.035,3.035,0,0,1,3.244-3.019,4.289,4.289,0,0,1,3.338,1.659l0,2.816a4.415,4.415,0,0,1-3.449,1.665m6.059-8.086a1.336,1.336,0,0,0-.978-.418h-1.625v1.184a5.962,5.962,0,0,0-4.068-1.372,5.694,5.694,0,0,0-3.875,1.477,5.431,5.431,0,0,0-1.727,4.117v.044a5.643,5.643,0,0,0,5.6,5.8,6.917,6.917,0,0,0,4.057-1.436c-.066,2.1-1.316,3.212-3.626,3.212a6.51,6.51,0,0,1-2.106-.323l-1.88-.778a1.027,1.027,0,0,0-.824-.065,1.343,1.343,0,0,0-.779.74l-.569,1.281,1.778.678a11.416,11.416,0,0,0,1.086.414l.194.067,0-.005a10.806,10.806,0,0,0,3.164.457,7.031,7.031,0,0,0,5.033-1.6,5.976,5.976,0,0,0,1.568-4.476v-7.76a1.67,1.67,0,0,0-.428-1.238" transform="translate(-94.44 -27.496)"/>
    <path id="Fill-35" class="cls-4" d="M300.919,126.035c-1.233,0-2.03-.582-2.03-1.483v-.042c0-1.031.926-1.647,2.476-1.647a12.94,12.94,0,0,1,2.383.283v1.975a5.573,5.573,0,0,1-2.829.914m.51-9.349a10.553,10.553,0,0,0-2.142.205l-.048.006-.539.135c-.173.047-.34.1-.495.146l-1.734.515.4,1.255a1.256,1.256,0,0,0,.654.77.97.97,0,0,0,.782.02l1.683-.5a7.506,7.506,0,0,1,1.1-.079c1.568,0,2.526.759,2.645,2.087a14.505,14.505,0,0,0-2.879-.284c-3,0-4.792,1.364-4.792,3.649v.041c0,2.409,2.143,3.506,4.134,3.506a6.921,6.921,0,0,0,3.605-.8,1.4,1.4,0,0,0,1.3.737,1.369,1.369,0,0,0,1.413-1.351V121.4a4.551,4.551,0,0,0-1.259-3.461,5.331,5.331,0,0,0-3.831-1.257" transform="translate(-126.762 -27.522)"/>
    <path id="Fill-37" class="cls-4" d="M269.543,117.784a1.409,1.409,0,0,0-1.009-.407h-1.51v9.2l.01.516a1.425,1.425,0,0,0,2.847,0V118.64a1.178,1.178,0,0,0-.338-.856" transform="translate(-111.3 -27.889)"/>
    <path id="Fill-39" class="cls-4" d="M267.957,109.614a1.559,1.559,0,1,0,1.606,1.557,1.584,1.584,0,0,0-1.606-1.557" transform="translate(-110.941 -23.756)"/>
  </g>
</svg>
